<?xml version="1.0" encoding="UTF-8" standalone="no"?>
<!-- Created with Inkscape (http://www.inkscape.org/) -->

<svg
   width="68.665939mm"
   height="12mm"
   viewBox="0 0 68.66594 12"
   version="1.1"
   id="svg1"
   inkscape:export-filename="bitmap.svg"
   inkscape:export-xdpi="96"
   inkscape:export-ydpi="96"
   inkscape:version="1.4.2 (f4327f4, 2025-05-13)"
   sodipodi:docname="Front-End-Developer.svg"
   xmlns:inkscape="http://www.inkscape.org/namespaces/inkscape"
   xmlns:sodipodi="http://sodipodi.sourceforge.net/DTD/sodipodi-0.dtd"
   xmlns:xlink="http://www.w3.org/1999/xlink"
   xmlns="http://www.w3.org/2000/svg"
   xmlns:svg="http://www.w3.org/2000/svg">
  <sodipodi:namedview
     id="namedview1"
     pagecolor="#ffffff"
     bordercolor="#000000"
     borderopacity="0.25"
     inkscape:showpageshadow="2"
     inkscape:pageopacity="0.0"
     inkscape:pagecheckerboard="true"
     inkscape:deskcolor="#d1d1d1"
     inkscape:document-units="mm"
     inkscape:zoom="8.9673091"
     inkscape:cx="112.07375"
     inkscape:cy="12.601328"
     inkscape:window-width="3840"
     inkscape:window-height="2054"
     inkscape:window-x="3829"
     inkscape:window-y="-11"
     inkscape:window-maximized="1"
     inkscape:current-layer="g3"
     showguides="true"
     showgrid="true">
    <sodipodi:guide
       position="-1.6769897,4.4007789"
       orientation="0,-1"
       id="guide7"
       inkscape:locked="false" />
    <sodipodi:guide
       position="14.97294,1.0467435"
       orientation="0,-1"
       id="guide3"
       inkscape:locked="false" />
    <inkscape:grid
       id="grid1"
       units="mm"
       originx="0"
       originy="0"
       spacingx="1"
       spacingy="1"
       empcolor="#0099e5"
       empopacity="0.30196078"
       color="#0099e5"
       opacity="0.14901961"
       empspacing="5"
       enabled="true"
       visible="true" />
  </sodipodi:namedview>
  <defs
     id="defs1">
    <linearGradient
       id="swatch9"
       inkscape:swatch="solid">
      <stop
         style="stop-color:#ffffff;stop-opacity:1;"
         offset="0"
         id="stop9" />
    </linearGradient>
    <linearGradient
       id="swatch5"
       inkscape:swatch="solid">
      <stop
         style="stop-color:#ffffff;stop-opacity:1;"
         offset="0"
         id="stop5" />
    </linearGradient>
    <linearGradient
       id="swatch4"
       inkscape:swatch="solid"
       inkscape:label="Orange">
      <stop
         style="stop-color:#ffaf19;stop-opacity:1;"
         offset="0"
         id="stop4" />
    </linearGradient>
    <linearGradient
       id="SVGID_1_"
       gradientUnits="userSpaceOnUse"
       x1="79.493202"
       y1="4859.4087"
       x2="338.11041"
       y2="4859.4087"
       gradientTransform="matrix(0.26497518,0,0,0.03450167,-28.862316,-163.61518)">
      <stop
         offset="0"
         style="stop-color:#b77800;stop-opacity:1;"
         id="stop1" />
      <stop
         offset="0.49896246"
         style="stop-color:#ffaf19;stop-opacity:1;"
         id="stop2" />
      <stop
         offset="1"
         style="stop-color:#c08200;stop-opacity:1;"
         id="stop3" />
    </linearGradient>
    <linearGradient
       inkscape:collect="always"
       xlink:href="#swatch4"
       id="linearGradient4"
       x1="0.29524511"
       y1="3.5573156"
       x2="14.356522"
       y2="3.5573156"
       gradientUnits="userSpaceOnUse"
       gradientTransform="matrix(1.4674404,0,0,1.2859012,-0.13800949,-0.30387324)" />
    <linearGradient
       inkscape:collect="always"
       xlink:href="#swatch4"
       id="linearGradient6"
       gradientUnits="userSpaceOnUse"
       x1="15.652498"
       y1="3.5879321"
       x2="68.308044"
       y2="3.5879321"
       gradientTransform="matrix(1.2481979,0,0,1.0937815,-2.6726122,-1.1454314)" />
    <linearGradient
       inkscape:collect="always"
       xlink:href="#swatch4"
       id="linearGradient8"
       gradientUnits="userSpaceOnUse"
       x1="0.29524511"
       y1="3.5573156"
       x2="14.356522"
       y2="3.5573156"
       gradientTransform="rotate(-7.7079398,4.571191,3.1840087)" />
    <linearGradient
       inkscape:collect="always"
       xlink:href="#swatch4"
       id="linearGradient9"
       x1="6.893713"
       y1="5.0143576"
       x2="7.2740517"
       y2="5.0143576"
       gradientUnits="userSpaceOnUse"
       gradientTransform="matrix(1.4603798,0,0,1.3777516,-1.1761488,-4.5031689)" />
  </defs>
  <path
     d="M 5.2181876,1.6954244 4.1343903,5.1577845 H 3.5469887 L 2.6369299,2.0456591 1.7103245,5.1577845 H 1.1298173 L 0.06670319,1.6954244 h 0.4012532 L 1.4166237,4.8585682 2.3542601,1.6954244 H 2.9251152 L 3.8517205,4.8585682 4.8224499,1.6954244 Z M 6.1781617,2.0456591 V 3.2149468 H 7.9403665 V 3.5431195 H 6.1781617 V 4.8185807 H 8.0189625 V 5.1577845 H 5.7989706 V 1.6954244 H 8.0189625 V 2.0456591 Z M 8.6411113,5.1577845 V 1.6954244 h 1.6601677 q 0.314384,0 0.507427,0.079975 0.193043,0.078596 0.285427,0.2661233 0.09376,0.1861484 0.09376,0.5129422 0,0.3350671 -0.08687,0.5129423 -0.08549,0.1778751 -0.365403,0.2716387 0.329552,0.093764 0.441241,0.2785332 0.113068,0.1833906 0.113068,0.5405198 0,0.3267938 -0.08273,0.5460352 -0.08135,0.2192415 -0.278533,0.336446 -0.1958,0.1172046 -0.530867,0.1172046 z M 10.38677,3.5541505 H 9.0244391 v 1.2644302 h 1.0617349 q 0.333689,0 0.492259,-0.03723 0.158571,-0.03723 0.231652,-0.1723596 0.07308,-0.1351299 0.07308,-0.4343462 0,-0.3088685 -0.09652,-0.4646816 Q 10.690122,3.5541505 10.38677,3.5541505 Z M 10.250261,2.0401436 H 9.0244391 v 1.1637722 h 1.0906919 q 0.263365,0 0.406769,-0.052397 0.144782,-0.052397 0.204073,-0.1861484 0.06067,-0.1337511 0.06067,-0.3833278 0,-0.3157628 -0.111689,-0.4288308 -0.11031,-0.1130679 -0.424694,-0.1130679 z"
     id="path1"
     style="font-size:5.64788px;font-family:EuroStyle;-inkscape-font-specification:'EuroStyle, Normal';letter-spacing:0.423591px;display:none;fill:#ffaf19;fill-opacity:1;stroke-width:0.212;stroke-linecap:round;stroke-linejoin:round;stroke-dasharray:none"
     inkscape:label="WEB" />
  <g
     inkscape:label="Layer 1"
     inkscape:groupmode="layer"
     id="layer1"
     transform="translate(7.9375,-3.7041669)"
     style="display:none">
    <path
       style="font-size:7.2432px;font-family:EuroStyle;-inkscape-font-specification:'EuroStyle, Normal';letter-spacing:0.264583px;display:inline;fill:#ffffff;stroke-width:0.714258;stroke-linecap:round;stroke-linejoin:round"
       d="M 27.840527,9.69921 V 5.329791 h 2.01679 q 0.480271,0 0.79175,0.118327 0.313221,0.116587 0.485491,0.348022 0.174011,0.231435 0.243616,0.570757 0.0696,0.337582 0.0696,0.830033 v 0.414147 q 0,0.659502 -0.09396,1.098009 -0.09397,0.438509 -0.415887,0.715186 -0.321921,0.274938 -0.958801,0.274938 z m 0.476791,-0.428067 h 1.426891 q 0.348022,0 0.586418,-0.04699 0.238395,-0.04699 0.382824,-0.222734 0.248837,-0.328881 0.248837,-1.219818 V 7.574527 q 0,-0.697785 -0.05046,-1.024925 -0.05743,-0.46983 -0.3167,-0.62296 Q 30.335851,5.771772 29.8434,5.771772 H 28.317322 Z M 32.398957,5.771779 V 7.247394 H 34.62282 V 7.66154 h -2.223863 v 1.609603 h 2.323049 V 9.69921 H 31.920427 V 5.329791 h 2.801579 v 0.441988 z m 6.091471,-0.441988 h 0.527253 L 37.477682,9.69921 h -0.704744 l -1.55392,-4.369419 h 0.527254 l 1.381648,3.977894 z m 1.501055,0.441988 v 1.475615 h 2.223863 V 7.66154 h -2.223863 v 1.609603 h 2.323049 V 9.69921 H 39.512953 V 5.329791 h 2.801579 v 0.441988 z m 3.347314,-0.441988 v 3.91351 H 45.54874 V 9.69921 H 42.811544 V 5.329791 Z m 2.675632,2.260404 V 7.332658 q 0,-0.549874 0.03132,-0.887456 0.03306,-0.339322 0.16357,-0.603819 0.132249,-0.264496 0.426327,-0.412406 0.294079,-0.14965 0.805673,-0.14965 h 0.205332 q 0.504632,0 0.819592,0.04699 0.314961,0.04525 0.530735,0.189672 0.217514,0.14269 0.328881,0.440248 0.111367,0.297559 0.111367,0.798712 0,1.026665 -0.0087,1.560879 -0.01044,0.408927 -0.08875,0.676904 -0.07657,0.267977 -0.245356,0.436768 -0.16705,0.167051 -0.447208,0.243616 -0.278418,0.07657 -0.692564,0.07657 -0.0609,0 -0.179232,-0.0087 -0.118328,-0.007 -0.198372,-0.007 -0.398487,0 -0.669944,-0.05046 Q 46.637383,9.633066 46.449451,9.499074 46.261519,9.363346 46.155372,9.109289 46.050966,8.853492 46.030084,8.444567 46.014424,8.152228 46.014424,7.590171 Z m 0.506373,-0.02262 v 0.699524 q 0.01044,0.438509 0.09048,0.659502 0.08178,0.219255 0.297559,0.308 0.215774,0.08701 0.652542,0.08701 0.424587,0 0.661242,-0.0261 0.236656,-0.02784 0.393265,-0.13225 0.156611,-0.104406 0.233175,-0.328881 0.07831,-0.224474 0.08875,-0.617739 0.01392,-0.476791 0.01392,-1.439072 0,-0.520293 -0.118328,-0.744767 -0.118327,-0.226215 -0.361943,-0.278419 -0.241876,-0.05394 -0.78827,-0.05394 h -0.170532 q -0.407186,0 -0.607298,0.07308 -0.198373,0.07308 -0.283639,0.295818 -0.08527,0.222735 -0.09396,0.701265 z m 3.389079,2.131636 V 5.329789 h 2.039411 q 0.285378,0 0.495931,0.04176 0.212294,0.04176 0.365424,0.179231 0.214033,0.193153 0.285378,0.482012 0.07134,0.287118 0.07134,0.657762 0,0.32192 -0.05742,0.572496 -0.05569,0.248836 -0.227955,0.412407 -0.120067,0.121807 -0.262757,0.186191 -0.142688,0.06264 -0.295819,0.08701 -0.153129,0.02262 -0.408925,0.02784 -0.254057,0.0052 -0.257537,0.0052 h -1.261581 v 1.71749 z m 0.485491,-2.131636 h 1.160655 q 0.443728,0 0.664722,-0.05046 0.220995,-0.05046 0.330621,-0.238395 0.109627,-0.189672 0.109627,-0.595118 0,-0.342802 -0.04872,-0.534214 -0.04699,-0.193152 -0.203593,-0.288859 -0.15661,-0.09571 -0.47331,-0.09571 H 50.395375 Z M 54.097666,5.77178 v 1.475615 h 2.223862 v 0.414146 h -2.223862 v 1.609603 h 2.323049 v 0.428067 h -2.80158 V 5.329789 h 2.80158 v 0.441988 z m 2.833982,3.927431 V 5.329789 h 2.060291 q 0.687345,0 0.984904,0.288858 0.297559,0.287119 0.297559,0.979683 0,0.365423 -0.03828,0.570756 -0.03828,0.203594 -0.201852,0.358464 -0.161831,0.154869 -0.515074,0.219253 0.697785,0.04872 0.697785,0.833514 V 9.699208 H 59.710605 V 8.693424 q 0,-0.421107 -0.193152,-0.591638 Q 59.3243,7.931255 58.891012,7.931255 h -1.482575 v 1.767953 z m 0.47679,-2.173399 h 1.418191 q 0.344542,0 0.544655,-0.06439 0.200113,-0.06438 0.294079,-0.240136 0.09571,-0.17749 0.09571,-0.501151 0,-0.368904 -0.04699,-0.562056 Q 59.667093,5.964926 59.50353,5.865739 59.339963,5.764816 58.99194,5.764816 h -1.583501 z"
       id="path15"
       inkscape:label="Developer" />
    <path
       d="m -7.452721,5.816603 v 1.471288 h 2.056074 V 7.691309 H -7.452721 V 9.642292 H -7.9375 V 5.386065 h 2.60357 v 0.430538 z m 2.875114,3.825689 V 5.386065 h 2.006919 q 0.669538,0 0.959389,0.281376 0.28985,0.279679 0.28985,0.954303 0,0.355957 -0.0373,0.555971 -0.03729,0.198318 -0.196623,0.349176 -0.157638,0.150858 -0.50173,0.213574 0.679708,0.04746 0.679708,0.811921 V 9.642292 H -1.870648 V 8.662563 q 0,-0.410198 -0.188149,-0.576311 -0.188148,-0.166113 -0.610212,-0.166113 h -1.444168 v 1.722153 z m 0.464439,-2.117096 h 1.381452 q 0.335616,0 0.530546,-0.06271 0.194928,-0.06271 0.28646,-0.233915 0.09323,-0.172893 0.09323,-0.488169 0,-0.359347 -0.04577,-0.547495 -0.04577,-0.188149 -0.205099,-0.284766 -0.159333,-0.09831 -0.49834,-0.09831 h -1.54248 z m 3.519228,0.06271 V 7.337041 q 0,-0.53563 0.0305,-0.864467 0.03221,-0.330531 0.159333,-0.588175 0.128823,-0.257646 0.415284,-0.401723 0.28646,-0.145773 0.7848,-0.145773 H 0.99599 q 0.49156,0 0.798361,0.04577 0.3068,0.04407 0.516984,0.184759 0.21188,0.138993 0.320362,0.428843 0.108482,0.289851 0.108482,0.778021 0,1.000069 -0.0085,1.520444 -0.01017,0.398332 -0.08645,0.659368 -0.07458,0.261034 -0.238999,0.425453 -0.162723,0.162723 -0.435623,0.237304 -0.271206,0.07458 -0.674623,0.07458 -0.05933,0 -0.174589,-0.0085 -0.115261,-0.0068 -0.193234,-0.0068 -0.388162,0 -0.652587,-0.04915 Q 0.012844,9.577845 -0.170219,9.447321 -0.353282,9.315109 -0.45668,9.067634 -0.558382,8.818464 -0.578722,8.420131 -0.593972,8.135366 -0.593972,7.58787 Z m 0.493254,-0.02203 v 0.681403 q 0.01018,0.427148 0.08814,0.642417 0.07967,0.213574 0.289851,0.300021 0.210184,0.08475 0.635637,0.08475 0.413587,0 0.644112,-0.02543 0.230525,-0.02712 0.383077,-0.128822 0.152554,-0.101702 0.227135,-0.320361 0.07627,-0.21866 0.08645,-0.601737 0.01356,-0.464439 0.01356,-1.401792 0,-0.506815 -0.115262,-0.725474 Q 2.036751,5.850497 1.799447,5.799645 1.563837,5.747095 1.031597,5.747095 H 0.865484 q -0.396638,0 -0.591566,0.07119 -0.193234,0.07119 -0.276291,0.288156 -0.08306,0.216964 -0.09153,0.683098 z M 7.140833,5.386064 V 9.642291 H 6.362813 L 3.974511,5.796261 v 3.84603 H 3.510073 V 5.386064 h 0.77124 L 6.676394,9.274469 V 5.386064 Z M 9.717622,5.843723 V 9.642291 H 9.231147 V 5.843724 H 7.856476 V 5.386065 h 3.222258 v 0.457659 z m 2.081839,2.028954 h 1.479763 V 8.29474 h -1.479763 z m 2.693745,-2.056075 v 1.437387 h 2.166252 v 0.403419 h -2.166252 v 1.567905 h 2.262869 V 9.642291 H 14.027072 V 5.386064 h 2.729003 v 0.430538 z m 6.658428,-0.430538 v 4.256227 h -0.77802 l -2.388301,-3.84603 v 3.84603 H 17.520874 V 5.386064 h 0.77124 l 2.39508,3.888405 V 5.386064 Z m 0.771579,4.256227 V 5.386064 h 1.964542 q 0.467829,0 0.771239,0.115262 0.305107,0.113568 0.472915,0.339007 0.169503,0.225439 0.237304,0.555971 0.0678,0.328836 0.0678,0.808529 v 0.403419 q 0,0.642417 -0.09153,1.069565 -0.09154,0.427149 -0.405113,0.696659 -0.313582,0.267815 -0.933964,0.267815 z m 0.464438,-0.416977 h 1.389927 q 0.339007,0 0.571226,-0.04577 0.232219,-0.04577 0.372907,-0.216964 0.24239,-0.320361 0.24239,-1.188218 V 7.572653 q 0,-0.679709 -0.04915,-0.998375 Q 24.859021,6.11662 24.606455,5.967457 24.353896,5.816599 23.874201,5.816599 h -1.486547 z"
       id="text1-2"
       style="font-size:7.05556px;font-family:EuroStyle;-inkscape-font-specification:'EuroStyle, Normal';letter-spacing:0.529167px;display:inline;fill:#ffaf19;fill-opacity:1;stroke-width:0.984026;stroke-linecap:round;stroke-linejoin:round"
       inkscape:label="Front-End-old"
       aria-label="FRONT-END" />
  </g>
  <g
     inkscape:groupmode="layer"
     id="layer3"
     inkscape:label="Divider">
    <rect
       x="-7.7986465"
       y="3.7041669"
       style="display:inline;fill:url(#SVGID_1_);stroke-width:0.264779"
       width="68.527084"
       height="0.67653954"
       id="rect3"
       inkscape:label="Divider"
       transform="translate(7.9375,-3.7041669)" />
  </g>
  <g
     inkscape:groupmode="layer"
     id="layer2"
     inkscape:label="Web Designer/Developer"
     style="display:none">
    <g
       id="text1"
       style="font-size:5.64788px;font-family:EuroStyle;-inkscape-font-specification:'EuroStyle, Normal';letter-spacing:0.423591px;fill:#ffaf19;stroke-width:0.211795;stroke-linecap:round;stroke-linejoin:round"
       aria-label="WEB DESIGNER/DEVELOPER">
      <path
         d="M 5.2181876,1.6954244 4.1343903,5.1577845 H 3.5469887 L 2.6369299,2.0456591 1.7103245,5.1577845 H 1.1298173 L 0.06670319,1.6954244 h 0.4012532 L 1.4166237,4.8585682 2.3542601,1.6954244 H 2.9251152 L 3.8517205,4.8585682 4.8224499,1.6954244 Z M 6.1781617,2.0456591 V 3.2149468 H 7.9403665 V 3.5431195 H 6.1781617 V 4.8185807 H 8.0189625 V 5.1577845 H 5.7989706 V 1.6954244 H 8.0189625 V 2.0456591 Z M 8.6411113,5.1577845 V 1.6954244 h 1.6601677 q 0.314384,0 0.507427,0.079975 0.193043,0.078596 0.285427,0.2661233 0.09376,0.1861484 0.09376,0.5129422 0,0.3350671 -0.08687,0.5129423 -0.08549,0.1778751 -0.365403,0.2716387 0.329552,0.093764 0.441241,0.2785332 0.113068,0.1833906 0.113068,0.5405198 0,0.3267938 -0.08273,0.5460352 -0.08135,0.2192415 -0.278533,0.336446 -0.1958,0.1172046 -0.530867,0.1172046 z M 10.38677,3.5541505 H 9.0244391 v 1.2644302 h 1.0617349 q 0.333689,0 0.492259,-0.03723 0.158571,-0.03723 0.231652,-0.1723596 0.07308,-0.1351299 0.07308,-0.4343462 0,-0.3088685 -0.09652,-0.4646816 Q 10.690122,3.5541505 10.38677,3.5541505 Z M 10.250261,2.0401436 H 9.0244391 v 1.1637722 h 1.0906919 q 0.263365,0 0.406769,-0.052397 0.144782,-0.052397 0.204073,-0.1861484 0.06067,-0.1337511 0.06067,-0.3833278 0,-0.3157628 -0.111689,-0.4288308 -0.11031,-0.1130679 -0.424694,-0.1130679 z"
         id="path3" />
      <path
         style="fill:#ffffff"
         d="M 13.848303,5.1577845 V 1.6954244 h 1.598119 q 0.38057,0 0.627389,0.093764 0.248197,0.092385 0.384706,0.2757754 0.137888,0.1833907 0.193043,0.4522717 0.05515,0.2675021 0.05515,0.6577243 v 0.3281727 q 0,0.5225944 -0.07446,0.8700714 -0.07446,0.347477 -0.329552,0.5667184 -0.255092,0.2178626 -0.759761,0.2178626 z m 0.377812,-0.3392038 h 1.13068 q 0.275775,0 0.464681,-0.03723 0.188906,-0.03723 0.303353,-0.1764962 Q 16.322008,4.344247 16.322008,3.638262 V 3.4741757 q 0,-0.5529297 -0.03999,-0.8121586 Q 16.236518,2.2897204 16.031062,2.1683792 15.82561,2.0456591 15.435388,2.0456591 h -1.209276 z m 3.451604,-2.7729216 v 1.1692877 h 1.762205 V 3.5431195 H 17.677719 V 4.8185807 H 19.51852 V 5.1577845 H 17.298528 V 1.6954244 h 2.219992 v 0.3502347 z m 4.958718,0.6039481 H 22.258625 Q 22.243457,2.3821051 22.188302,2.2483541 22.133147,2.114603 21.999396,2.0608268 21.865645,2.0056717 21.598143,2.0056717 h -0.198559 q -0.533625,0 -0.705985,0.1075524 -0.186148,0.1144468 -0.186148,0.4798492 0,0.2054527 0.03861,0.3281727 0.03999,0.1213412 0.151676,0.190285 0.113068,0.067565 0.324036,0.081354 0.03585,0.00276 0.508806,0.019304 0.472955,0.016547 0.689438,0.081354 0.217863,0.064807 0.350235,0.2647444 0.133751,0.1985583 0.133751,0.5887804 0,0.3019741 -0.04964,0.5060479 -0.04964,0.2026949 -0.201316,0.3350671 -0.151676,0.1309933 -0.448135,0.1585708 -0.282669,0.027578 -0.661861,0.027578 -0.314383,0 -0.525352,-0.027578 -0.210968,-0.028956 -0.375054,-0.1213411 -0.162708,-0.092385 -0.252335,-0.2826698 -0.08963,-0.190285 -0.08963,-0.5005323 0,-0.028956 0.0028,-0.081354 0.0028,-0.052397 0.0028,-0.081354 h 0.373676 q 0,0.3281727 0.05378,0.4826069 0.05515,0.1544342 0.209589,0.2151048 0.154434,0.059292 0.481228,0.059292 h 0.322657 q 0.313005,0 0.470197,-0.039987 0.157192,-0.041366 0.227515,-0.1778751 0.07032,-0.1378877 0.07032,-0.4329674 0,-0.2413035 -0.04137,-0.3612658 -0.04007,-0.1213415 -0.154514,-0.17236 Q 22.004911,3.6010324 21.77326,3.5927591 21.446466,3.5789703 21.133461,3.5624238 20.820456,3.5458773 20.599836,3.470039 20.379215,3.3942008 20.248222,3.1915059 20.117229,2.9874321 20.117229,2.6109987 q 0,-0.3957377 0.140645,-0.5984326 0.140646,-0.2026949 0.39298,-0.2675021 0.252335,-0.066186 0.653588,-0.066186 h 0.08963 q 0.321278,0 0.530868,0.02482 0.210968,0.023441 0.372296,0.1103102 0.161329,0.086869 0.249577,0.2757754 0.08963,0.1875273 0.08963,0.5032901 z M 23.726026,1.6954244 V 5.1577845 H 23.337183 V 1.6954244 Z m 1.977585,1.7401427 h 1.479535 q 0.01103,0.1296145 0.01103,0.3778123 v 0.2481979 q 0,0.4826069 -0.137888,0.7666556 -0.136509,0.2826697 -0.573613,0.3295516 -0.386085,0.027577 -0.7115,0.027577 -0.57775,0 -0.878345,-0.1034158 Q 24.592235,4.97853 24.464,4.7041334 24.337143,4.428358 24.337143,3.8919749 q 0,-0.1613286 0.0028,-0.4757126 0.0028,-0.3143839 0.0028,-0.4729548 0,-0.4605449 0.110311,-0.7363203 0.11031,-0.2757754 0.370917,-0.4012532 0.260608,-0.1268566 0.715638,-0.1268566 0.554308,0 0.836978,0.011031 0.426073,0.01241 0.616358,0.2357879 0.190285,0.2219992 0.190285,0.6563455 v 0.1240989 h -0.377812 q 0,-0.3529925 -0.09652,-0.5088056 -0.09514,-0.157192 -0.417799,-0.168223 -0.242683,-0.011031 -0.722532,-0.011031 -0.376433,0 -0.543278,0.068944 -0.165465,0.067565 -0.22062,0.2550923 -0.05378,0.1861484 -0.06067,0.6191157 l -0.01103,0.4564083 0.01103,0.4867436 q 0,0.2661233 0.0262,0.4384829 0.02758,0.1709807 0.136509,0.2992163 0.11031,0.1282355 0.339204,0.1654652 0.186148,0.028956 0.559824,0.028956 h 0.202695 q 0.344719,0 0.508805,-0.055155 0.165466,-0.055155 0.226136,-0.212347 0.06205,-0.157192 0.06205,-0.4895013 V 3.7802864 H 25.703611 Z M 30.769882,1.6954244 V 5.1577845 H 30.136977 L 28.194139,2.0291126 V 5.1577845 H 27.816327 V 1.6954244 h 0.627389 l 1.948353,3.1631438 V 1.6954244 Z m 0.977898,0.3502347 v 1.1692877 h 1.762205 V 3.5431195 H 31.74778 v 1.2754612 h 1.840801 V 5.1577845 H 31.368589 V 1.6954244 h 2.219992 v 0.3502347 z m 2.46295,3.1121254 V 1.6954244 h 1.632591 q 0.544656,0 0.780444,0.2288936 0.235788,0.2275147 0.235788,0.7763077 0,0.2895642 -0.03034,0.4522716 -0.03034,0.1613287 -0.15995,0.2840487 -0.128235,0.1227201 -0.408147,0.1737385 0.552929,0.038609 0.552929,0.6604821 V 5.1577845 H 36.412797 V 4.3607936 q 0,-0.3336883 -0.153055,-0.4688182 -0.153056,-0.1351299 -0.496396,-0.1351299 h -1.174803 v 1.400939 z m 0.377813,-1.7222174 h 1.123785 q 0.273017,0 0.431588,-0.051018 0.158571,-0.051018 0.23303,-0.190285 0.07584,-0.1406455 0.07584,-0.3971166 0,-0.2923219 -0.03723,-0.4453773 -0.03723,-0.1530553 -0.166844,-0.2316513 -0.129615,-0.079975 -0.40539,-0.079975 H 34.588543 Z M 40.41733,1.6954244 37.745067,5.6665901 h -0.281291 l 2.659853,-3.9711657 z m 0.638699,3.4623601 V 1.6954244 h 1.598118 q 0.38057,0 0.627389,0.093764 0.248198,0.092385 0.384707,0.2757754 0.137888,0.1833907 0.193043,0.4522717 0.05515,0.2675021 0.05515,0.6577243 v 0.3281727 q 0,0.5225944 -0.07446,0.8700714 -0.07446,0.347477 -0.329551,0.5667184 -0.255093,0.2178626 -0.759761,0.2178626 z m 0.377812,-0.3392038 h 1.130679 q 0.275776,0 0.464682,-0.03723 0.188906,-0.03723 0.303353,-0.1764962 Q 43.529734,4.344247 43.529734,3.638262 V 3.4741757 q 0,-0.5529297 -0.03999,-0.8121586 -0.0455,-0.3722967 -0.250956,-0.4936379 -0.205453,-0.1227201 -0.595675,-0.1227201 h -1.209275 z m 3.451602,-2.7729216 v 1.1692877 h 1.762205 v 0.3281727 h -1.762205 v 1.2754612 h 1.840801 V 5.1577845 H 44.506252 V 1.6954244 h 2.219992 v 0.3502347 z m 5.04421,-0.3502347 h 0.4178 L 49.127147,5.1577845 H 48.568701 L 47.337364,1.6954244 h 0.4178 l 1.094828,3.1521127 z m 1.406729,0.3502347 v 1.1692877 h 1.762205 v 0.3281727 h -1.762205 v 1.2754612 h 1.840801 V 5.1577845 H 50.957191 V 1.6954244 h 2.219992 v 0.3502347 z m 2.869721,-0.3502347 v 3.1010943 h 1.751174 V 5.1577845 H 53.788303 V 1.6954244 Z m 2.337472,1.7911612 V 3.2825118 q 0,-0.4357251 0.02482,-0.7032273 0.0262,-0.268881 0.129615,-0.4784703 0.104795,-0.2095893 0.337825,-0.3267938 0.23303,-0.1185834 0.63842,-0.1185834 h 0.162707 q 0.399875,0 0.649451,0.03723 0.249577,0.035851 0.420558,0.1502976 0.172359,0.1130679 0.260608,0.3488559 0.08825,0.235788 0.08825,0.6329045 0,0.8135374 -0.0069,1.2368527 -0.0083,0.3240361 -0.07032,0.5363831 -0.06067,0.2123471 -0.194422,0.3460981 -0.132372,0.1323722 -0.354371,0.1930428 -0.220621,0.060671 -0.548793,0.060671 -0.04826,0 -0.142025,-0.00689 -0.09376,-0.00552 -0.157192,-0.00552 -0.315763,0 -0.530867,-0.039987 -0.213726,-0.039988 -0.362645,-0.146161 -0.148919,-0.1075524 -0.23303,-0.3088684 -0.08273,-0.2026949 -0.09928,-0.526731 -0.01241,-0.2316514 -0.01241,-0.6770286 z m 0.401253,-0.017925 v 0.5543085 q 0.0083,0.347477 0.0717,0.5225944 0.06481,0.1737385 0.235788,0.2440612 0.170981,0.068944 0.517079,0.068944 0.336446,0 0.523974,-0.020683 0.187527,-0.022062 0.311626,-0.1047946 0.124099,-0.082733 0.184769,-0.2606078 0.06205,-0.1778751 0.07032,-0.4895013 0.01103,-0.3778123 0.01103,-1.1403313 0,-0.4122842 -0.09376,-0.5901593 -0.09376,-0.179254 -0.286806,-0.2206203 -0.191664,-0.042745 -0.624631,-0.042745 h -0.13513 q -0.322657,0 -0.481228,0.057913 -0.157192,0.057913 -0.224757,0.2344091 -0.06757,0.1764963 -0.07446,0.5556874 z m 2.90281,1.6891243 V 1.6954244 h 1.616043 q 0.226136,0 0.39298,0.033093 0.168223,0.033093 0.289565,0.1420244 0.169601,0.1530553 0.226135,0.3819489 0.05653,0.2275147 0.05653,0.5212155 0,0.2550922 -0.0455,0.4536505 -0.04412,0.1971794 -0.180632,0.3267938 -0.09514,0.096521 -0.208211,0.1475399 -0.113068,0.04964 -0.234409,0.068944 -0.121341,0.017925 -0.324036,0.022062 -0.201316,0.00414 -0.204074,0.00414 H 60.232343 V 5.157788 Z m 0.384706,-1.6891243 h 0.919711 q 0.351614,0 0.526731,-0.039988 0.175118,-0.039987 0.261987,-0.1889061 0.08687,-0.1502976 0.08687,-0.4715759 0,-0.2716388 -0.03861,-0.4233153 Q 61.951803,2.19182 61.827704,2.1159818 61.703605,2.0401438 61.452649,2.0401438 h -1.220306 z m 3.151012,-1.4230011 v 1.1692877 h 1.762205 v 0.3281727 h -1.762205 v 1.2754612 h 1.840801 V 5.1577845 H 63.004165 V 1.6954244 h 2.219992 v 0.3502347 z m 2.462953,3.1121254 V 1.6954244 h 1.63259 q 0.544656,0 0.780444,0.2288936 0.235788,0.2275147 0.235788,0.7763077 0,0.2895642 -0.03033,0.4522716 -0.03034,0.1613287 -0.15995,0.2840487 -0.128235,0.1227201 -0.408147,0.1737385 0.552929,0.038609 0.552929,0.6604821 V 5.1577845 H 68.048375 V 4.3607936 q 0,-0.3336883 -0.153055,-0.4688182 -0.153056,-0.1351299 -0.496396,-0.1351299 h -1.174803 v 1.400939 z m 0.377812,-1.7222174 h 1.123785 q 0.273017,0 0.431588,-0.051018 0.158571,-0.051018 0.23303,-0.190285 0.07584,-0.1406455 0.07584,-0.3971166 0,-0.2923219 -0.03723,-0.4453773 Q 68.013904,2.1987153 67.88429,2.1201193 67.754675,2.0401443 67.4789,2.0401443 h -1.254778 z"
         id="path4" />
    </g>
  </g>
  <g
     inkscape:groupmode="layer"
     id="g3"
     inkscape:label="UI/UX Designer/Developer"
     style="display:inline">
    <path
       style="font-size:5.64788px;font-family:EuroStyle;-inkscape-font-specification:'EuroStyle, Normal';letter-spacing:0.423591px;display:inline;fill:#ffffff;stroke-width:0.270381;stroke-linecap:round;stroke-linejoin:round;stroke-dasharray:none"
       d="M 0.5318433,11.37214 V 7.8917501 h 2.5860375 c 0.4105526,0 0.7489611,0.031418 1.0152255,0.094253 0.267754,0.061911 0.4752622,0.1543149 0.6225246,0.2772115 0.148742,0.1228972 0.2528764,0.2744395 0.3123766,0.4546271 0.0595,0.1792632 0.089258,0.3996463 0.089258,0.6611492 v 0.3298815 c 0,0.3502106 -0.04017,0.6417446 -0.1204949,0.8746026 -0.080325,0.232857 -0.2580875,0.422747 -0.5332727,0.569669 -0.2751902,0.145998 -0.6850006,0.218998 -1.2294277,0.218998 z m 0.6113653,-0.340969 h 1.82964 c 0.2975023,0 0.5481469,-0.01248 0.7519352,-0.03742 0.2037901,-0.02496 0.3674164,-0.08409 0.4908804,-0.177416 0.2127142,-0.174643 0.3190722,-0.498518 0.3190722,-0.9716258 V 9.679764 c 0,-0.3705392 -0.021563,-0.6426687 -0.064706,-0.8163878 C 4.4209472,8.6138858 4.2855815,8.4484831 4.063933,8.3671677 3.8422946,8.2849282 3.5209922,8.2438085 3.1000257,8.2438085 H 1.1432051 Z M 6.7285105,8.2438085 V 9.4191853 H 9.5800722 V 9.7490669 H 6.7285105 v 1.2821041 h 2.978743 V 11.37214 H 6.1149143 V 7.8917501 H 9.7072535 V 8.2438085 Z M 14.890935,7.8917501 H 15.56701 L 13.592339,11.37214 H 12.688675 L 10.696154,7.8917501 h 0.676073 l 1.771626,3.1685269 z m 2.276337,0.3520584 v 1.1753768 h 2.851559 v 0.3298816 h -2.851559 v 1.2821041 h 2.978742 v 0.340969 h -3.59234 V 7.8917501 h 3.59234 v 0.3520584 z m 4.643716,-0.3520584 v 3.1172429 h 2.83371 V 11.37214 H 21.134913 V 7.8917501 Z M 25.59343,9.6922386 V 9.4871021 c 0,-0.2919961 0.01344,-0.5276259 0.04017,-0.7068892 0.02826,-0.1801876 0.09818,-0.3405083 0.209742,-0.4809619 0.113055,-0.1404539 0.295272,-0.2499524 0.546659,-0.3284956 0.251389,-0.079468 0.595747,-0.119201 1.033078,-0.119201 h 0.263288 c 0.431378,0 0.781687,0.012475 1.050925,0.037424 0.26924,0.024025 0.496087,0.074386 0.680538,0.1510801 0.185939,0.075771 0.326508,0.192662 0.421709,0.3506726 0.0952,0.1580106 0.142815,0.3700774 0.142815,0.6362003 0,0.5451826 -0.0037,0.9596148 -0.01108,1.2432946 -0.0089,0.217149 -0.04688,0.396874 -0.113794,0.539176 -0.06545,0.142301 -0.17032,0.258269 -0.314608,0.3479 -0.142797,0.08871 -0.333945,0.153391 -0.573435,0.194049 -0.238003,0.04066 -0.534017,0.06098 -0.888043,0.06098 -0.05208,0 -0.128674,-0.0023 -0.229822,-0.0069 -0.101149,-0.0037 -0.185943,-0.0055 -0.254363,-0.0055 -0.340641,0 -0.626987,-0.01339 -0.859038,-0.04019 -0.230572,-0.02687 -0.426184,-0.07583 -0.586834,-0.146984 -0.160699,-0.07207 -0.28643,-0.175567 -0.377168,-0.310476 -0.08925,-0.135834 -0.142797,-0.312325 -0.160649,-0.529473 -0.01344,-0.155239 -0.02008,-0.3820906 -0.02008,-0.6805567 z m 0.6493,-0.018018 v 0.5571944 c 0.0089,0.232858 0.04763,0.407963 0.116028,0.525316 0.06992,0.116428 0.1971,0.198206 0.381546,0.245332 0.184451,0.04621 0.46336,0.0693 0.836726,0.0693 0.362952,0 0.64558,-0.0069 0.847882,-0.02079 0.202302,-0.01478 0.370389,-0.0499 0.504265,-0.10534 0.13388,-0.05545 0.233541,-0.142763 0.298991,-0.261964 0.06694,-0.119202 0.104877,-0.283218 0.113794,-0.492051 0.01192,-0.2531865 0.01785,-0.6352756 0.01785,-1.1462688 0,-0.2762875 -0.05058,-0.4740318 -0.151731,-0.5932327 C 29.106934,8.3315923 28.952228,8.2576692 28.743981,8.2299482 28.537215,8.2013024 28.200295,8.18698 27.733216,8.18698 h -0.218668 c -0.348077,0 -0.60765,0.019405 -0.778712,0.058215 -0.169578,0.03881 -0.29081,0.1173532 -0.363697,0.2356297 -0.0729,0.1182769 -0.113055,0.3044708 -0.120495,0.5585813 z m 4.697259,1.6979204 V 7.8917504 h 2.615043 c 0.243952,0 0.455923,0.011088 0.635911,0.033265 0.181478,0.022177 0.337666,0.069764 0.468568,0.142764 0.182963,0.1025685 0.304938,0.2305475 0.365927,0.3839379 0.06098,0.1524663 0.09148,0.3271095 0.09148,0.5239296 0,0.1709471 -0.02453,0.3229513 -0.07362,0.456013 -0.04761,0.1321374 -0.145031,0.241636 -0.292293,0.3284955 -0.102643,0.064683 -0.214951,0.1141193 -0.336924,0.1483086 -0.121972,0.033269 -0.248413,0.056366 -0.379315,0.069302 -0.130906,0.012014 -0.305682,0.019403 -0.524346,0.022176 -0.217178,0.00279 -0.327255,0.00419 -0.330229,0.00419 h -1.617668 v 1.368038 z m 0.622522,-1.6979199 h 1.488255 c 0.379316,0 0.66343,-0.013399 0.852343,-0.040196 0.188914,-0.026798 0.330227,-0.090093 0.423942,-0.1898897 0.09373,-0.10072 0.14058,-0.2587309 0.14058,-0.4740318 0,-0.1820355 -0.02083,-0.3238754 -0.06247,-0.4255196 -0.04016,-0.1025688 -0.127181,-0.1792637 -0.261058,-0.2300859 -0.13388,-0.050822 -0.33618,-0.076233 -0.606906,-0.076233 H 31.562524 Z M 36.661406,8.2438093 V 9.419186 h 2.85156 v 0.3298816 h -2.85156 v 1.2821044 h 2.97874 V 11.37214 H 36.047807 V 7.8917501 h 3.592339 v 0.3520584 z m 3.985493,3.1283317 V 7.8917504 h 2.641819 c 0.587567,0 1.008532,0.076695 1.262895,0.2300856 0.254366,0.1524663 0.381548,0.412583 0.381548,0.7803502 0,0.194048 -0.01629,0.3455904 -0.04909,0.4546268 -0.03273,0.1081126 -0.119018,0.2032885 -0.258827,0.2855281 -0.13833,0.082239 -0.358491,0.1404537 -0.660455,0.1746431 0.596493,0.025874 0.894739,0.2471818 0.894739,0.6639208 v 0.891235 h -0.649301 v -0.801141 c 0,-0.223617 -0.08255,-0.380704 -0.24767,-0.471259 C 43.797441,10.00918 43.529692,9.9639057 43.159302,9.9639057 H 41.258264 V 11.37214 Z m 0.611367,-1.7311858 h 1.818482 c 0.294527,0 0.527324,-0.017094 0.698385,-0.051284 0.171066,-0.034189 0.29676,-0.097948 0.377083,-0.1912757 0.08182,-0.094252 0.122729,-0.2273135 0.122729,-0.3991847 0,-0.195896 -0.02008,-0.3451283 -0.06026,-0.4476966 -0.04017,-0.102568 -0.130165,-0.1801869 -0.26998,-0.2328571 -0.139824,-0.053593 -0.358492,-0.080391 -0.655992,-0.080391 h -2.030455 z"
       id="path2"
       inkscape:label="I DEVELOPER"
       sodipodi:nodetypes="ccscccssscsccsscssccscccccccccccccccccccccccccccccccccccccccccccsscccssccssccscscsccccscccccscsccsccsscsccccscccscccccsccccsscscsscccccccccccccccccscscccsccsssccccsscsscsc" />
    <path
       d="M 22.6855,5.4778778 V 1.8288096 h 1.922082 c 0.305144,0 0.556667,0.03294 0.754569,0.098821 0.199006,0.064911 0.353237,0.1617938 0.462692,0.2906467 0.110565,0.1288533 0.187952,0.2877402 0.232174,0.4766605 0.04422,0.1879514 0.06634,0.4190154 0.06634,0.6931921 v 0.3458693 c 0,0.3671836 -0.02986,0.672847 -0.08956,0.9169901 -0.0597,0.2441432 -0.191825,0.4432361 -0.396358,0.5972787 -0.204535,0.153074 -0.509126,0.2296112 -0.913775,0.229611 z m 0.454399,-0.3574955 h 1.359887 c 0.221118,0 0.407412,-0.01308 0.558879,-0.039239 0.151466,-0.026159 0.273082,-0.088163 0.364846,-0.1860138 0.1581,-0.1831071 0.23715,-0.5226791 0.23715,-1.0187161 V 3.7034801 c 0,-0.3884976 -0.01603,-0.6738157 -0.04809,-0.8559543 C 25.576084,2.5859439 25.475473,2.4125248 25.310735,2.3272685 25.146002,2.2410433 24.907194,2.1979307 24.594309,2.1979307 h -1.454415 z m 4.151296,-2.9224516 v 1.2323417 h 2.11943 v 0.3458694 h -2.11943 v 1.3442405 h 2.213958 V 5.4778778 H 26.835135 V 1.8288096 h 2.670018 v 0.3691211 z m 5.963923,0.6365161 H 32.800717 C 32.78861,2.6464954 32.760363,2.5055318 32.71614,2.4115561 32.671916,2.3175805 32.596187,2.2517005 32.48894,2.2139163 32.381695,2.1751636 32.220833,2.1557873 32.006348,2.1557873 h -0.238812 c -0.427865,0 -0.710898,0.037783 -0.849097,0.1133522 -0.149255,0.080413 -0.223882,0.2489873 -0.223882,0.5057252 0,0.1443545 0.01548,0.2596442 0.04643,0.3458693 0.03207,0.085256 0.09287,0.1521052 0.182422,0.2005462 0.09066,0.047473 0.220567,0.076053 0.389724,0.08574 0.02874,0.00194 0.232725,0.00872 0.611948,0.020345 0.37922,0.011626 0.655619,0.040206 0.829196,0.08574 0.174685,0.045534 0.315097,0.138541 0.421235,0.2790207 0.107245,0.1395104 0.160864,0.3463539 0.160864,0.6205306 0,0.212172 -0.0199,0.3899508 -0.0597,0.5333365 -0.03981,0.1424168 -0.120513,0.2601287 -0.242125,0.3531355 -0.121612,0.092038 -0.301275,0.1477455 -0.538978,0.1671218 -0.226646,0.019377 -0.491991,0.029065 -0.796032,0.029065 -0.252075,0 -0.462691,-0.00969 -0.631848,-0.029065 C 30.898538,5.4459052 30.748175,5.4032772 30.61661,5.3383662 30.486149,5.2734546 30.384987,5.1741503 30.313124,5.0404533 30.241253,4.9067559 30.205317,4.7309147 30.205317,4.5129299 c 0,-0.020345 0.0012,-0.048925 0.0035,-0.08574 0.0024,-0.036815 0.0035,-0.065395 0.0035,-0.08574 h 0.449427 c 0,0.2305798 0.02155,0.4001236 0.06468,0.5086317 0.04422,0.1085075 0.128252,0.184076 0.252075,0.2267041 0.123833,0.04166 0.316753,0.06249 0.578779,0.06249 h 0.388065 c 0.250971,0 0.439475,-0.014049 0.565512,-0.042145 0.126038,-0.029065 0.217251,-0.091554 0.273637,-0.1874668 0.05638,-0.096883 0.08457,-0.2489874 0.08457,-0.4563153 0,-0.169544 -0.01659,-0.2964596 -0.04977,-0.3807471 -0.03215,-0.085257 -0.09413,-0.1458085 -0.185884,-0.181655 -0.09177,-0.035846 -0.230516,-0.056677 -0.416257,-0.06249 -0.262026,-0.00969 -0.518525,-0.020345 -0.769497,-0.031971 -0.250969,-0.011626 -0.464902,-0.044082 -0.641797,-0.097367 -0.176895,-0.053285 -0.31786,-0.1511362 -0.42289,-0.293553 -0.105036,-0.1433856 -0.157549,-0.3473227 -0.157549,-0.6118111 0,-0.278052 0.05639,-0.4882864 0.169156,-0.6307031 0.112687,-0.1424162 0.270196,-0.2363915 0.47252,-0.281926 0.202325,-0.046503 0.464352,-0.069755 0.786081,-0.069755 h 0.107807 c 0.257603,0 0.470431,0.00872 0.638483,0.026159 0.169157,0.01647 0.318411,0.055223 0.447764,0.1162587 0.129356,0.061036 0.229412,0.1579181 0.300172,0.2906465 0.07187,0.1317598 0.107807,0.3085698 0.107807,0.5304302 z M 34.565582,1.8288096 V 5.4778778 H 34.097914 V 1.8288096 Z m 2.378471,1.83398 h 1.779458 c 0.0089,0.091069 0.01327,0.2237981 0.01327,0.3981859 v 0.261582 c 0,0.3390877 -0.05528,0.6084202 -0.165839,0.8079975 -0.109454,0.1986086 -0.339417,0.3143828 -0.689893,0.3473228 -0.309566,0.019377 -0.594811,0.029064 -0.85573,0.029064 -0.463246,0 -0.815379,-0.036331 -1.056399,-0.108992 C 35.727898,5.3252885 35.555976,5.1925599 35.453157,4.999764 35.351441,4.8059996 35.300584,4.5206815 35.300584,4.1438098 c 0,-0.1133522 0.0012,-0.280474 0.0035,-0.5013654 0.0024,-0.2208915 0.0035,-0.3870444 0.0035,-0.4984591 0,-0.3235865 0.04422,-0.582262 0.132673,-0.7760264 0.08845,-0.1937644 0.23715,-0.3347279 0.446107,-0.4228906 0.208958,-0.089131 0.495861,-0.1336975 0.860708,-0.1336975 0.44445,0 0.779999,0.00387 1.006647,0.011626 0.341629,0.00872 0.58873,0.091554 0.741302,0.2485028 0.152573,0.1559803 0.228858,0.38656 0.228858,0.6917389 V 2.8940289 H 38.26948 c 0,-0.2480183 -0.03869,-0.4267659 -0.116083,-0.5362429 -0.07629,-0.1104458 -0.243786,-0.1695439 -0.502492,-0.1772945 -0.194585,-0.00776 -0.484252,-0.011626 -0.868999,-0.011626 -0.301828,0 -0.519631,0.024221 -0.65341,0.072662 -0.132671,0.047473 -0.221119,0.1370884 -0.265343,0.268848 -0.04313,0.130791 -0.06744,0.3482915 -0.07297,0.6525017 l -0.01327,0.4810201 0.01327,0.5129912 c 0,0.1869827 0.01049,0.3410255 0.03151,0.4621282 0.02211,0.1201338 0.07685,0.2252511 0.16418,0.3153516 0.08845,0.0901 0.224437,0.1482296 0.407967,0.1743879 0.149255,0.020345 0.373691,0.030517 0.673307,0.030517 h 0.243786 c 0.276399,0 0.480381,-0.019376 0.611948,-0.058129 0.132671,-0.038753 0.223329,-0.113352 0.271975,-0.2237979 0.04975,-0.1104458 0.07463,-0.2824117 0.07463,-0.5158977 V 4.026098 h -1.325329 z m 6.093277,-1.83398 v 3.6490682 h -0.761203 l -2.33668,-3.2973859 v 3.2973859 h -0.4544 V 1.8288096 h 0.75457 L 42.58293,5.1625262 V 1.8288096 Z m 1.176132,0.3691211 v 1.2323417 h 2.11943 v 0.3458694 h -2.11943 v 1.3442405 h 2.213959 V 5.4778778 H 43.757404 V 1.8288096 h 2.670017 v 0.3691211 z m 2.962226,3.2799471 V 1.8288096 h 1.963542 c 0.436711,0 0.749594,0.080413 0.93865,0.2412367 0.189059,0.1598556 0.283587,0.432579 0.283587,0.81817 0,0.2034527 -0.0121,0.3623396 -0.0365,0.4766605 -0.02433,0.1133522 -0.08846,0.213141 -0.192373,0.2993662 -0.102814,0.086225 -0.266448,0.1472609 -0.490886,0.1831073 0.443344,0.027128 0.665015,0.2591608 0.665015,0.6960986 v 0.9344289 h -0.48258 V 4.637909 c 0,-0.234455 -0.06136,-0.3991546 -0.18408,-0.4940991 C 49.517341,4.0488653 49.318334,4.001393 49.04304,4.001393 H 47.630086 V 5.4778778 Z M 47.63009,3.6627896 h 1.351593 c 0.218908,0 0.391933,-0.017923 0.519076,-0.05377 0.127145,-0.035847 0.220568,-0.1026951 0.28027,-0.200546 0.06081,-0.09882 0.09122,-0.2383303 0.09122,-0.4185312 0,-0.2053903 -0.01493,-0.3618551 -0.04478,-0.4693943 -0.02985,-0.1075378 -0.09674,-0.1889191 -0.20067,-0.244142 -0.103924,-0.056191 -0.266448,-0.084287 -0.487567,-0.084287 H 47.63009 Z"
       style="font-size:5.64788px;font-family:EuroStyle;-inkscape-font-specification:'EuroStyle, Normal';letter-spacing:0.423591px;display:inline;fill:url(#linearGradient6);stroke-width:0.238683;stroke-linecap:round;stroke-linejoin:round;stroke-dasharray:none"
       id="path1-8"
       sodipodi:nodetypes="ccscccssscsccsscssccscccccccccccccccccscsscscccsccscccscccscccccssccscscsscsccsscsccccccccccssccsscscsscsccsccccsccccccccssccscccccccccccccccccccccccccccccscscccsccsssccccsscsccscc"
       inkscape:label="Designer" />
    <path
       style="font-weight:bold;font-size:5.78556px;font-family:EuroStyle;-inkscape-font-specification:'EuroStyle Bold';letter-spacing:0.433917px;display:inline;fill:url(#linearGradient4);stroke-width:0.285143;stroke-linecap:round;stroke-linejoin:round"
       d="m 3.674501,1.7680582 h 0.559243 v 3.0533064 c 0,0.3116446 -0.042306,0.5601492 -0.1269204,0.7455142 -0.083292,0.1842064 -0.2287221,0.3232299 -0.4362895,0.4170708 -0.2062457,0.092683 -0.4944607,0.146554 -0.8646453,0.161615 -0.1203095,0.00464 -0.3047411,0.00694 -0.5532937,0.00694 -0.4733073,0 -0.8434917,-0.026066 -1.1105534,-0.078201 C 0.87630261,6.0221799 0.66873484,5.9011146 0.51933896,5.7111157 0.36994306,5.5199581 0.29524511,5.2233745 0.29524511,4.8213646 V 1.7680582 h 0.56915868 v 3.0533064 c 0,0.2525595 0.0310691,0.4425583 0.0932074,0.5699967 0.062138,0.1274392 0.16856611,0.2154868 0.31928411,0.264145 0.1520399,0.047499 0.3741507,0.071249 0.666332,0.071249 h 0.545361 c 0.2287214,0 0.4171189,-0.011007 0.5651926,-0.033017 C 3.2031763,5.6705673 3.3228257,5.6282803 3.4127275,5.566879 3.5039505,5.504319 3.5700559,5.4127944 3.6110407,5.2923073 3.6533487,5.1718196 3.6745017,5.0148392 3.6745017,4.8213647 Z m 1.9974099,0 V 6.1316623 H 5.1126677 V 1.7680582 Z m 9.4008361,0 h 0.559243 v 3.0533064 c 0,0.3116446 -0.04231,0.5601492 -0.126919,0.7455142 -0.08329,0.1842064 -0.228724,0.3232299 -0.436289,0.4170708 -0.206246,0.092683 -0.494462,0.146554 -0.864645,0.161615 -0.120312,0.00464 -0.304742,0.00694 -0.553294,0.00694 -0.473307,0 -0.843492,-0.026066 -1.110554,-0.078201 C 12.274548,6.0221799 12.066981,5.9011146 11.917585,5.7111157 11.768189,5.5199581 11.693491,5.2233745 11.693491,4.8213646 V 1.7680582 h 0.569158 v 3.0533064 c 0,0.2525595 0.03107,0.4425583 0.09321,0.5699967 0.06214,0.1274392 0.168566,0.2154868 0.319284,0.264145 0.152041,0.047499 0.374151,0.071249 0.666332,0.071249 h 0.545362 c 0.228721,0 0.417118,-0.011007 0.565192,-0.033017 0.149398,-0.023171 0.269045,-0.065458 0.358947,-0.1268593 0.09123,-0.062559 0.157327,-0.1540846 0.198312,-0.2745717 0.04231,-0.1204877 0.06347,-0.2774679 0.06347,-0.4709426 z m 5.725695,0 -1.574606,2.1079457 1.705495,2.2556584 H 20.27093 L 18.743919,4.1314598 17.208975,6.1316623 h -0.682197 l 1.770936,-2.2556584 -1.6341,-2.1079457 h 0.68418 l 1.396125,1.8646542 1.398106,-1.8646542 z"
       id="text3"
       inkscape:label="UI/UX"
       aria-label="UI/UX"
       sodipodi:nodetypes="ccscccsccsccsscsscccsccccccccscccsccsccsscsscccscccccccccccccc" />
    <rect
       style="display:none;fill:#ffffff;fill-opacity:1;stroke-width:1.79563;stroke-linecap:round;stroke-linejoin:round;stroke-dasharray:none"
       id="rect8"
       width="0.38033855"
       height="57.833519"
       x="6.9631495"
       y="-58.2132"
       transform="rotate(90)" />
    <path
       d="M 7.2052242,1.2776281 5.131854,5.4486271 4.8586547,5.4473631 6.9199721,1.279029 Z"
       style="font-weight:bold;font-size:5.78556px;font-family:EuroStyle;-inkscape-font-specification:'EuroStyle Bold';letter-spacing:0.433917px;display:none;fill:url(#linearGradient8);stroke-width:0.207577;stroke-linecap:round;stroke-linejoin:round"
       id="path1-5"
       sodipodi:nodetypes="ccccc" />
    <rect
       style="display:inline;fill:url(#linearGradient9);stroke-width:0.693004;stroke-linecap:round;stroke-linejoin:round;stroke-dasharray:none"
       id="rect8-1"
       width="0.55543876"
       height="5.8986516"
       x="8.8912907"
       y="-0.54395497"
       transform="matrix(0.9838366,0.17906855,-0.23063885,0.97303942,0,0)" />
  </g>
  <g
     inkscape:groupmode="layer"
     id="g7"
     inkscape:label="Creative/Developer"
     style="display:none">
    <g
       id="g6"
       style="font-size:5.64788px;font-family:EuroStyle;-inkscape-font-specification:'EuroStyle, Normal';letter-spacing:0.423591px;fill:#ffaf19;stroke-width:0.211795;stroke-linecap:round;stroke-linejoin:round"
       aria-label="WEB DESIGNER/DEVELOPER"
       transform="matrix(1.2331609,0,0,1.2331609,-16.499557,-0.32148366)">
      <path
         style="fill:#ffffff"
         d="m 40.41733,1.6954244 -2.672263,3.9711657 h -0.281291 l 2.659853,-3.9711657 z m 0.638699,3.4623601 V 1.6954244 h 1.598118 c 0.253713,0 0.462843,0.031255 0.627389,0.093764 0.165465,0.06159 0.293701,0.1535151 0.384707,0.2757754 0.09192,0.1222605 0.156273,0.2730177 0.193043,0.4522717 0.03677,0.1783347 0.05515,0.3975762 0.05515,0.6577243 v 0.3281727 c 0,0.3483963 -0.02482,0.6384201 -0.07446,0.8700714 -0.04964,0.2316513 -0.15949,0.4205575 -0.329551,0.5667184 -0.170062,0.1452417 -0.423316,0.2178626 -0.759761,0.2178626 z m 0.377812,-0.3392038 h 1.130679 c 0.183851,0 0.338745,-0.01241 0.464682,-0.03723 0.125937,-0.02482 0.227055,-0.083652 0.303353,-0.1764962 0.131453,-0.1737383 0.197179,-0.4959358 0.197179,-0.9665925 V 3.4741757 c 0,-0.3686198 -0.01333,-0.6393393 -0.03999,-0.8121586 C 43.459411,2.4138193 43.375759,2.2492733 43.238788,2.1683792 43.101819,2.0865658 42.903261,2.0456591 42.643113,2.0456591 h -1.209275 z m 3.451602,-2.7729216 v 1.1692877 h 1.762205 v 0.3281727 h -1.762205 v 1.2754612 h 1.840801 V 5.1577845 H 44.506252 V 1.6954244 h 2.219992 v 0.3502347 z m 5.04421,-0.3502347 h 0.4178 L 49.127147,5.1577845 H 48.568701 L 47.337364,1.6954244 h 0.4178 l 1.094828,3.1521127 z m 1.406729,0.3502347 v 1.1692877 h 1.762205 v 0.3281727 h -1.762205 v 1.2754612 h 1.840801 V 5.1577845 H 50.957191 V 1.6954244 h 2.219992 v 0.3502347 z m 2.869721,-0.3502347 v 3.1010943 h 1.751174 V 5.1577845 H 53.788303 V 1.6954244 Z m 2.337472,1.7911612 V 3.2825118 c 0,-0.2904834 0.0083,-0.5248925 0.02482,-0.7032273 0.01747,-0.179254 0.06067,-0.3387441 0.129615,-0.4784703 0.06986,-0.1397262 0.182472,-0.2486575 0.337825,-0.3267938 0.155353,-0.079056 0.36816,-0.1185834 0.63842,-0.1185834 h 0.162707 c 0.266583,0 0.483067,0.01241 0.649451,0.03723 0.166385,0.023901 0.306571,0.074 0.420558,0.1502976 0.114906,0.075379 0.201775,0.1916639 0.260608,0.3488559 0.05883,0.157192 0.08825,0.3681602 0.08825,0.6329045 0,0.5423583 -0.0023,0.9546425 -0.0069,1.2368527 -0.0055,0.2160241 -0.02897,0.3948184 -0.07032,0.5363831 -0.04045,0.1415647 -0.105254,0.2569308 -0.194422,0.3460981 -0.08825,0.088248 -0.206372,0.1525957 -0.354371,0.1930428 -0.147081,0.040447 -0.330012,0.060671 -0.548793,0.060671 -0.03217,0 -0.07952,-0.0023 -0.142025,-0.00689 -0.06251,-0.00368 -0.114904,-0.00552 -0.157192,-0.00552 -0.210509,0 -0.387464,-0.013329 -0.530867,-0.039987 -0.142484,-0.026659 -0.263366,-0.075379 -0.362645,-0.146161 -0.09928,-0.071702 -0.176956,-0.1746577 -0.23303,-0.3088684 -0.05515,-0.1351299 -0.08825,-0.3107069 -0.09928,-0.526731 -0.0083,-0.1544343 -0.01241,-0.3801105 -0.01241,-0.6770286 z m 0.401253,-0.017925 v 0.5543085 c 0.0055,0.2316513 0.02943,0.4058495 0.0717,0.5225944 0.04321,0.1158257 0.121803,0.1971794 0.235788,0.2440612 0.113987,0.045963 0.286347,0.068944 0.517079,0.068944 0.224297,0 0.398955,-0.00689 0.523974,-0.020683 0.125018,-0.014708 0.228893,-0.04964 0.311626,-0.1047946 0.08273,-0.055155 0.144322,-0.1420246 0.184769,-0.2606078 0.04137,-0.1185834 0.06481,-0.2817505 0.07032,-0.4895013 0.0074,-0.2518749 0.01103,-0.6319853 0.01103,-1.1403313 0,-0.2748561 -0.03125,-0.4715759 -0.09376,-0.5901593 -0.06251,-0.1195027 -0.158109,-0.1930428 -0.286806,-0.2206203 -0.127776,-0.028497 -0.335986,-0.042745 -0.624631,-0.042745 h -0.13513 c -0.215105,0 -0.375514,0.019304 -0.481228,0.057913 -0.104795,0.038609 -0.179714,0.116745 -0.224757,0.2344091 -0.04505,0.1176642 -0.06987,0.3028933 -0.07446,0.5556874 z m 2.90281,1.6891243 V 1.6954244 h 1.616043 c 0.150757,0 0.281751,0.011031 0.39298,0.033093 0.112149,0.022062 0.20867,0.069403 0.289565,0.1420244 0.113067,0.1020369 0.188446,0.2293532 0.226135,0.3819489 0.03769,0.1516765 0.05653,0.325415 0.05653,0.5212155 0,0.1700615 -0.01517,0.3212783 -0.0455,0.4536505 -0.02941,0.1314529 -0.08962,0.2403842 -0.180632,0.3267938 -0.06343,0.064347 -0.13283,0.1135273 -0.208211,0.1475399 -0.07538,0.033093 -0.153515,0.056075 -0.234409,0.068944 -0.08089,0.01195 -0.188906,0.019304 -0.324036,0.022062 -0.134211,0.00276 -0.202235,0.00414 -0.204074,0.00414 H 60.232343 V 5.157788 Z m 0.384706,-1.6891243 h 0.919711 c 0.234409,0 0.409986,-0.013329 0.526731,-0.039988 0.116745,-0.026658 0.204074,-0.089627 0.261987,-0.1889061 0.05791,-0.1001984 0.08687,-0.2573904 0.08687,-0.4715759 0,-0.1810925 -0.01287,-0.3221976 -0.03861,-0.4233153 -0.02482,-0.1020369 -0.0786,-0.1783347 -0.161329,-0.2288935 -0.08273,-0.050559 -0.207751,-0.075838 -0.375055,-0.075838 h -1.220306 z m 3.151012,-1.4230011 v 1.1692877 h 1.762205 v 0.3281727 h -1.762205 v 1.2754612 h 1.840801 V 5.1577845 H 63.004165 V 1.6954244 h 2.219992 v 0.3502347 z m 2.462953,3.1121254 V 1.6954244 h 1.63259 c 0.363104,0 0.623252,0.076298 0.780444,0.2288936 0.157192,0.1516765 0.235788,0.4104457 0.235788,0.7763077 0,0.1930428 -0.01011,0.3438 -0.03033,0.4522716 -0.02023,0.1075525 -0.07354,0.2022354 -0.15995,0.2840487 -0.08549,0.081813 -0.221539,0.1397262 -0.408147,0.1737385 0.368619,0.025739 0.552929,0.2459 0.552929,0.6604821 V 5.1577845 H 68.048375 V 4.3607936 c 0,-0.2224589 -0.05102,-0.3787316 -0.153055,-0.4688182 -0.102037,-0.090087 -0.267503,-0.1351299 -0.496396,-0.1351299 h -1.174803 v 1.400939 z m 0.377812,-1.7222174 h 1.123785 c 0.182011,0 0.325874,-0.017006 0.431588,-0.051018 0.105714,-0.034012 0.183391,-0.09744 0.23303,-0.190285 0.05056,-0.093764 0.07584,-0.2261359 0.07584,-0.3971166 0,-0.1948813 -0.01241,-0.3433404 -0.03723,-0.4453773 -0.02482,-0.1020369 -0.08044,-0.179254 -0.166844,-0.2316513 -0.08641,-0.053317 -0.22154,-0.079975 -0.40539,-0.079975 h -1.254778 z"
         id="path6"
         sodipodi:nodetypes="cccccccscccssscsccsscssccsccccccccccccccccccccccccccccccccccccccccccccscccssccssccscscsccccscccccscsccsccsscsccccscccscccccsccccsscscsscccccccccccccccccscscccsccsssccccsscsscscc"
         inkscape:label="DEVELOPER" />
    </g>
    <path
       d="m 3.1628574,4.5725972 h 0.4788685 q 0,0.067179 0.010335,0.2015382 0.010335,0.1343588 0.010335,0.2015382 0,0.9749627 -0.9594597,1.0645352 -0.3479549,0.020671 -0.6907421,0.020671 H 1.4058575 Q 0.94593708,6.0264284 0.69099976,5.8335029 0.43778513,5.6388549 0.33787729,5.3374089 0.23796946,5.0342403 0.22246652,4.6104933 0.20696358,4.1867462 0.19835084,3.8818551 V 3.1962806 q 0,-0.4323597 0.0930176,-0.7338058 Q 0.38610864,2.1593062 0.62898806,1.9749935 0.87358998,1.7889582 1.3059497,1.744172 1.5746673,1.707998 2.1465535,1.707998 q 0.4564755,0 0.7183029,0.051676 0.26355,0.051676 0.4151343,0.1912029 0.1515843,0.1395265 0.2222088,0.4030765 0.070625,0.2618274 0.098185,0.7234705 H 3.1197936 q 0,-0.370348 -0.049954,-0.5615509 Q 3.0216086,2.322948 2.8562437,2.2282078 2.6926015,2.1317448 2.3515368,2.1317448 q -0.4065215,0 -0.9112283,0.034451 Q 1.1302498,2.1920338 0.97177528,2.3091673 0.81502336,2.4245781 0.76334686,2.6278388 0.71339296,2.829377 0.71339296,3.1756094 v 0.9956332 q 0,0.8836676 0.17053232,1.1920038 0.15330692,0.2756078 0.85955182,0.2756078 0.051677,0 0.1877578,0.00689 0.1360814,0.00689 0.2153186,0.00689 0.4409725,0 0.7286382,-0.1205784 0.2876657,-0.122301 0.301446,-0.4719784 0,-0.084405 -0.00689,-0.248047 -0.00689,-0.1636422 -0.00689,-0.2394332 z m 1.276753,1.4676116 V 1.7148885 h 2.0394979 q 0.6804068,0 0.9749626,0.2859432 0.2945559,0.2842206 0.2945559,0.969795 0,0.3617353 -0.037896,0.5649961 Q 7.6728348,3.737161 7.5109151,3.8904678 7.3507181,4.0437747 7.0010407,4.107509 7.6917828,4.15574 7.6917828,4.9326099 V 6.0402088 H 7.190521 V 5.0445756 q 0,-0.4168569 -0.191203,-0.5856666 Q 6.8081151,4.2900992 6.3792004,4.2900992 H 4.9115888 V 6.0402088 Z M 4.9115888,3.8887453 h 1.4038773 q 0.3410647,0 0.5391578,-0.063734 0.1980931,-0.063734 0.2911108,-0.2377118 0.09474,-0.1756999 0.09474,-0.496094 0,-0.3651804 -0.046509,-0.5563833 Q 7.1474572,2.343619 6.9855376,2.2454337 6.823618,2.1455258 6.4791083,2.1455258 H 4.9115888 Z M 8.9616462,2.152416 V 3.6131375 H 11.163064 V 4.0231041 H 8.9616462 v 1.5933577 h 2.2996028 v 0.423747 H 8.4879452 V 1.7148885 H 11.261249 V 2.152416 Z M 15.04431,5.1152001 H 12.870454 L 12.546615,6.0402088 H 12.024682 L 13.60426,1.7148885 h 0.692464 l 1.600248,4.3253203 H 15.38882 Z M 14.916842,4.7276266 13.957382,2.0680111 13.004813,4.7276266 Z m 3.578079,-2.5476498 v 3.860232 H 18.00055 V 2.1799768 H 16.603563 V 1.7148885 h 3.274565 V 2.1799768 Z M 21.132487,1.7148885 V 6.0402088 H 20.646729 V 1.7148885 Z m 3.988046,0 h 0.521932 L 24.11801,6.0402088 H 23.420377 L 21.882141,1.7148885 h 0.521933 l 1.367703,3.9377468 z m 1.757345,0.4375275 v 1.4607215 h 2.201417 v 0.4099666 h -2.201417 v 1.5933577 h 2.299603 v 0.423747 H 26.404177 V 1.7148885 h 2.773304 V 2.152416 Z"
       id="text2"
       style="font-size:7.05556px;font-family:EuroStyle;-inkscape-font-specification:'EuroStyle, Normal';letter-spacing:0.529167px;display:inline;fill:#ffffff;stroke-width:0.264583;stroke-linecap:round;stroke-linejoin:round"
       inkscape:label="CREATIVE"
       aria-label="CREATIVE" />
  </g>
</svg>
