<?xml version="1.0" encoding="utf-8"?>
<!-- Generator: Adobe Illustrator 16.0.0, SVG Export Plug-In . SVG Version: 6.00 Build 0)  -->
<!DOCTYPE svg PUBLIC "-//W3C//DTD SVG 1.1//EN" "http://www.w3.org/Graphics/SVG/1.1/DTD/svg11.dtd">
<svg version="1.1" id="Layer_1" xmlns="http://www.w3.org/2000/svg" xmlns:xlink="http://www.w3.org/1999/xlink" x="0px" y="0px"
	 width="100.754px" height="98.475px" viewBox="0 0 100.754 98.475" enable-background="new 0 0 100.754 98.475"
	 xml:space="preserve">
<g id="Layer_1_1_" display="none">
	
		<image display="inline" overflow="visible" enable-background="new    " width="355" height="89" xlink:href="F60DA0AA.png"  transform="matrix(0.9999 0 0 0.9999 5.8198 202.5354)">
	</image>
</g>
<g>
	<path fill="#FEEBD7" stroke="#D57528" stroke-width="3" d="M92.471,49.238c0,22.913-18.576,41.489-41.488,41.489
		c-22.915,0-41.489-18.576-41.489-41.489c0-22.915,18.575-41.491,41.489-41.491C73.895,7.747,92.471,26.323,92.471,49.238z"/>
	<g>
		
			<linearGradient id="SVGID_1_" gradientUnits="userSpaceOnUse" x1="19.3989" y1="738.2209" x2="85.5475" y2="731.0698" gradientTransform="matrix(1 0 0 1 0 -692.5254)">
			<stop  offset="0" style="stop-color:#F08C21"/>
			<stop  offset="1" style="stop-color:#A84A25"/>
		</linearGradient>
		<path fill="url(#SVGID_1_)" d="M69,50.439c-0.064,0-0.13-0.002-0.193-0.004c-0.063-0.004-0.127-0.01-0.192-0.016
			c-0.063-0.007-0.127-0.015-0.189-0.021c-0.063-0.011-0.127-0.021-0.188-0.033c-0.421-0.087-0.908-0.257-1.465-0.513
			c-0.553-0.256-1.172-0.595-1.855-1.019c-0.681-0.422-1.424-0.929-2.23-1.513c-0.799-0.579-1.656-1.243-2.573-1.977
			c-1.155-0.933-2.048-1.836-2.687-2.705c-0.629-0.863-1.008-1.693-1.137-2.494c-0.129-0.794-0.012-1.559,0.343-2.297
			c0.354-0.733,0.944-1.44,1.769-2.118c0.412-0.335,0.811-0.63,1.2-0.885c0.388-0.249,0.765-0.458,1.131-0.625
			c0.366-0.163,0.723-0.288,1.069-0.371c0.346-0.082,0.686-0.123,1.012-0.123c0.049,0,0.096,0,0.145,0.001
			c0.047,0.003,0.093,0.005,0.141,0.009c0.045,0.005,0.094,0.008,0.14,0.015c0.046,0.003,0.093,0.012,0.138,0.018
			c0.363,0.054,0.777,0.171,1.238,0.354c0.461,0.179,0.976,0.425,1.539,0.733c0.567,0.307,1.186,0.684,1.857,1.125
			c0.675,0.444,1.406,0.954,2.193,1.534c0.85,0.624,1.611,1.215,2.286,1.769c0.675,0.556,1.263,1.071,1.755,1.549
			c0.495,0.481,0.897,0.918,1.202,1.316c0.308,0.4,0.519,0.755,0.634,1.071c0.117,0.317,0.156,0.653,0.119,1.01
			c-0.036,0.358-0.15,0.736-0.342,1.135c-0.192,0.398-0.463,0.818-0.813,1.259c-0.349,0.445-0.779,0.909-1.289,1.396
			c-0.418,0.4-0.832,0.751-1.24,1.051c-0.409,0.302-0.813,0.556-1.209,0.759c-0.396,0.205-0.789,0.356-1.173,0.457
			C69.747,50.389,69.37,50.439,69,50.439 M63.377,28.039c-0.588,0-1.179,0.064-1.778,0.192c-0.601,0.128-1.21,0.318-1.825,0.574
			c-0.621,0.258-1.249,0.581-1.891,0.97c-0.643,0.392-1.297,0.851-1.964,1.377c-0.876,0.69-1.603,1.376-2.181,2.056
			c-0.582,0.687-1.012,1.366-1.288,2.043c-0.277,0.68-0.399,1.355-0.362,2.023c0.039,0.674,0.237,1.341,0.598,2.001l-0.158,0.055
			l-12.109-9.762l-5.439,3.954l8.882,7.544c0.444-0.239,0.884-0.448,1.323-0.626c0.437-0.178,0.87-0.331,1.303-0.45
			c0.432-0.12,0.859-0.211,1.286-0.276c0.428-0.061,0.852-0.096,1.274-0.1h0.249c0.609,0.01,1.213,0.076,1.815,0.204
			c0.604,0.125,1.207,0.313,1.812,0.557c0.604,0.248,1.209,0.556,1.815,0.924c0.611,0.371,1.223,0.802,1.837,1.296L69.778,53.25
			c0.26,0.077,0.518,0.144,0.773,0.202c0.258,0.059,0.515,0.107,0.769,0.146c0.257,0.041,0.511,0.069,0.762,0.089
			c0.253,0.02,0.504,0.028,0.753,0.028c0.686,0,1.36-0.073,2.023-0.218c0.659-0.146,1.307-0.366,1.941-0.656
			c0.631-0.289,1.246-0.649,1.85-1.081c0.6-0.431,1.182-0.928,1.75-1.491c0.779-0.783,1.432-1.544,1.953-2.283
			c0.52-0.732,0.912-1.439,1.178-2.125c0.265-0.682,0.409-1.341,0.43-1.981c0.022-0.634-0.077-1.248-0.293-1.844
			c-0.217-0.593-0.572-1.225-1.066-1.902c-0.492-0.669-1.115-1.379-1.875-2.127c-0.751-0.743-1.633-1.522-2.643-2.339
			c-0.998-0.809-2.124-1.651-3.369-2.527c-1.129-0.795-2.189-1.492-3.188-2.098c-0.992-0.599-1.922-1.105-2.795-1.523
			c-0.863-0.416-1.676-0.741-2.434-0.981c-0.754-0.238-1.455-0.39-2.105-0.457c-0.069-0.008-0.137-0.014-0.205-0.019
			c-0.068-0.006-0.135-0.01-0.205-0.013c-0.067-0.005-0.136-0.005-0.203-0.008C63.514,28.039,63.446,28.039,63.377,28.039"/>
		
			<linearGradient id="SVGID_2_" gradientUnits="userSpaceOnUse" x1="21.2554" y1="755.4006" x2="87.4042" y2="748.2495" gradientTransform="matrix(1 0 0 1 0 -692.5254)">
			<stop  offset="0" style="stop-color:#F08C21"/>
			<stop  offset="1" style="stop-color:#A84A25"/>
		</linearGradient>
		<path fill="url(#SVGID_2_)" d="M51.456,49.238l0.768,0.643l15.607,13.264l5.416-5.395L56.13,43.938
			c-1.281-1.037-2.554-1.795-3.823-2.289c-1.26-0.49-2.524-0.721-3.797-0.693c-1.271,0.028-2.561,0.316-3.873,0.866
			c-1.317,0.554-2.667,1.375-4.054,2.472c-0.964,0.762-1.766,1.531-2.408,2.31c-0.646,0.784-1.13,1.577-1.444,2.381
			c-0.318,0.811-0.466,1.627-0.443,2.456c0.023,0.834,0.222,1.682,0.6,2.535l-0.154,0.084L24.246,42.359L18,46.906l33.101,32.936
			l6.372-6.355l-14.56-13.632c-1.007-0.943-1.75-1.874-2.23-2.792c-0.477-0.908-0.697-1.803-0.664-2.687
			c0.033-0.876,0.313-1.74,0.837-2.589c0.521-0.843,1.281-1.675,2.277-2.494c0.723-0.592,1.433-1.035,2.135-1.331
			c0.701-0.296,1.393-0.443,2.079-0.451c0.689-0.002,1.371,0.138,2.054,0.42C50.084,48.22,50.769,48.652,51.456,49.238"/>
	</g>
	
		<radialGradient id="SVGID_3_" cx="51.3804" cy="733.3538" r="47.1529" gradientTransform="matrix(1 0 0 1 0 -692.5254)" gradientUnits="userSpaceOnUse">
		<stop  offset="0.3132" style="stop-color:#FFFFFF"/>
		<stop  offset="0.597" style="stop-color:#FBFAFA"/>
		<stop  offset="0.6992" style="stop-color:#EFEEED"/>
		<stop  offset="0.7721" style="stop-color:#E0DEDE"/>
		<stop  offset="0.8311" style="stop-color:#CCCACA"/>
		<stop  offset="0.8815" style="stop-color:#B6B3B3"/>
		<stop  offset="0.9262" style="stop-color:#9C9A9A"/>
		<stop  offset="0.9656" style="stop-color:#818080"/>
		<stop  offset="1" style="stop-color:#676868"/>
	</radialGradient>
	<path opacity="0.53" fill="url(#SVGID_3_)" enable-background="new    " d="M52.215,60.795c-18.319,0-33.886-11.786-39.531-28.191
		c-2.093,4.982-3.252,10.449-3.252,16.189c0,23.083,18.715,41.8,41.8,41.8c23.086,0,41.8-18.717,41.8-41.8
		c0-4.769-0.799-9.345-2.267-13.612C84.439,50.23,69.561,60.795,52.215,60.795z"/>
	<path fill="none" stroke="#D57528" stroke-width="3" d="M92.471,49.238c0,22.913-18.576,41.489-41.488,41.489
		c-22.915,0-41.489-18.576-41.489-41.489c0-22.915,18.575-41.491,41.489-41.491C73.895,7.747,92.471,26.323,92.471,49.238z"/>
</g>
</svg>
