<?xml version="1.0" encoding="UTF-8" standalone="no"?>
<!-- Created with Inkscape (http://www.inkscape.org/) -->

<svg
   width="70mm"
   height="7mm"
   viewBox="0 0 70 7"
   version="1.1"
   id="svg1"
   inkscape:export-filename="bitmap.svg"
   inkscape:export-xdpi="96"
   inkscape:export-ydpi="96"
   inkscape:version="1.3.2 (091e20e, 2023-11-25, custom)"
   sodipodi:docname="Heath Bishop.svg"
   xmlns:inkscape="http://www.inkscape.org/namespaces/inkscape"
   xmlns:sodipodi="http://sodipodi.sourceforge.net/DTD/sodipodi-0.dtd"
   xmlns="http://www.w3.org/2000/svg"
   xmlns:svg="http://www.w3.org/2000/svg">
  <sodipodi:namedview
     id="namedview1"
     pagecolor="#ffffff"
     bordercolor="#000000"
     borderopacity="0.25"
     inkscape:showpageshadow="2"
     inkscape:pageopacity="0.0"
     inkscape:pagecheckerboard="true"
     inkscape:deskcolor="#d1d1d1"
     inkscape:document-units="mm"
     inkscape:zoom="2.9006173"
     inkscape:cx="137.55693"
     inkscape:cy="109.97659"
     inkscape:window-width="1358"
     inkscape:window-height="1032"
     inkscape:window-x="2443"
     inkscape:window-y="0"
     inkscape:window-maximized="0"
     inkscape:current-layer="layer1" />
  <defs
     id="defs1" />
  <g
     inkscape:label="Layer 1"
     inkscape:groupmode="layer"
     id="layer1">
    <g
       id="text39-1"
       style="font-size:38.889px;letter-spacing:1.75px;display:inline;fill:#ffffff;stroke-width:1.30626"
       inkscape:label="Heath Bishop"
       transform="matrix(0.29200925,0,0,0.23973329,149.76972,63.994544)"
       aria-label="HEATH BISHOP">
      <path
         style="font-family:EuroStyle;-inkscape-font-specification:EuroStyle;fill:#ffffff"
         d="m -490.19416,-264.11782 v 23.8404 h -2.72488 v -11.04197 h -13.91877 v 11.04197 h -2.64893 v -23.8404 h 2.64893 v 10.50079 h 13.91877 v -10.50079 z m 5.75663,2.41157 v 8.05124 h 12.13383 v 2.25967 h -12.13383 v 8.7823 h 12.67501 v 2.33562 h -15.28596 v -23.8404 h 15.28596 v 2.41157 z"
         id="path1-7" />
      <path
         style="letter-spacing:-2.96052px;fill:#ffffff"
         d="m -452.07763,-245.3759 h -11.98191 l -1.78494,5.09848 h -2.8768 l 8.70635,-23.8404 h 3.81674 l 8.82028,23.8404 h -2.80084 z m -0.70258,-2.13624 -5.28837,-14.65933 -5.2504,14.65933 z"
         id="path2-9" />
      <path
         style="letter-spacing:1.50026px;fill:#ffffff"
         d="m -438.93567,-261.55434 v 21.27692 h -2.72489 v -21.27692 h -7.69995 v -2.56348 h 18.04883 v 2.56348 z m 29.57516,-2.56348 v 23.8404 h -2.72489 v -11.04197 h -13.91877 v 11.04197 h -2.64893 v -23.8404 h 2.64893 v 10.50079 h 13.91877 v -10.50079 z"
         id="path3-5" />
      <path
         style="letter-spacing:3.11055px;fill:#ffffff"
         d="m -392.8078,-240.27742 v -23.8404 h 11.43124 q 2.16472,0 3.49393,0.55067 1.32921,0.54118 1.96534,1.83242 0.64562,1.28174 0.64562,3.53191 0,2.30714 -0.59815,3.53191 -0.58865,1.22478 -2.51601,1.8704 2.26915,0.64561 3.0382,1.91786 0.77854,1.26276 0.77854,3.7218 0,2.25017 -0.56966,3.75978 -0.56017,1.5096 -1.91787,2.31663 -1.3482,0.80702 -3.65534,0.80702 z m 12.01989,-11.04197 h -9.38045 v 8.70635 h 7.31067 q 2.29764,0 3.3895,-0.25635 1.09185,-0.25635 1.59505,-1.1868 0.50321,-0.93044 0.50321,-2.99073 0,-2.12674 -0.66461,-3.1996 -0.66461,-1.07287 -2.75337,-1.07287 z m -0.93995,-10.42483 h -8.4405 v 8.01326 h 7.51005 q 1.81343,0 2.80085,-0.36079 0.99691,-0.36079 1.40517,-1.28174 0.41775,-0.92096 0.41775,-2.63944 0,-2.17421 -0.76905,-2.95275 -0.75955,-0.77854 -2.92427,-0.77854 z m 14.1905,-2.3736 v 23.8404 h -2.67742 v -23.8404 z"
         id="path4-1" />
      <path
         style="letter-spacing:2.49044px;fill:#ffffff"
         d="m -345.95073,-257.54771 h -2.60146 q -0.10444,-1.84191 -0.48422,-2.76286 -0.37977,-0.92096 -1.30073,-1.29124 -0.92095,-0.37977 -2.76287,-0.37977 h -1.36719 q -3.67432,0 -4.86112,0.74056 -1.28174,0.78803 -1.28174,3.30404 0,1.41467 0.26584,2.25967 0.27534,0.8355 1.04438,1.31022 0.77854,0.46523 2.23118,0.56017 0.24686,0.019 3.50343,0.13292 3.25657,0.11394 4.74719,0.56017 1.50012,0.44624 2.41158,1.82292 0.92095,1.3672 0.92095,4.05411 0,2.07927 -0.3418,3.48444 -0.34179,1.39567 -1.38618,2.30713 -1.04438,0.90197 -3.08567,1.09185 -1.94635,0.18989 -4.55731,0.18989 -2.16472,0 -3.61736,-0.18989 -1.45264,-0.19938 -2.58247,-0.8355 -1.12034,-0.63612 -1.73747,-1.94635 -0.61714,-1.31022 -0.61714,-3.44646 0,-0.19938 0.019,-0.56017 0.019,-0.36079 0.019,-0.56017 h 2.57298 q 0,2.25966 0.37028,3.32304 0.37978,1.06337 1.44315,1.48112 1.06337,0.40826 3.31354,0.40826 h 2.22168 q 2.15523,0 3.23759,-0.27534 1.08236,-0.28483 1.56657,-1.22477 0.48421,-0.94944 0.48421,-2.98124 0,-1.66152 -0.28483,-2.48753 -0.27533,-0.83551 -1.06337,-1.1868 -0.78803,-0.35129 -2.38309,-0.40826 -2.25017,-0.0949 -4.40539,-0.20887 -2.15523,-0.11394 -3.67433,-0.63613 -1.5191,-0.52219 -2.42107,-1.91786 -0.90196,-1.40517 -0.90196,-3.99714 0,-2.72489 0.96842,-4.12056 0.96843,-1.39568 2.7059,-1.84191 1.73747,-0.45573 4.50034,-0.45573 h 0.61714 q 2.21219,0 3.65533,0.1709 1.45264,0.1614 2.56349,0.75955 1.11084,0.59814 1.71848,1.89887 0.61714,1.29124 0.61714,3.46545 z m 23.53,-6.57011 v 23.8404 h -2.72489 v -11.04197 h -13.91877 v 11.04197 h -2.64893 v -23.8404 h 2.64893 v 10.50079 h 13.91877 v -10.50079 z m 3.8861,12.33321 v -1.40517 q 0,-3.00023 0.1709,-4.84214 0.18039,-1.8514 0.89247,-3.29455 0.72157,-1.44315 2.32613,-2.25017 1.60455,-0.81652 4.3959,-0.81652 h 1.12033 q 2.75337,0 4.47186,0.25635 1.71848,0.24686 2.89579,1.03489 1.18679,0.77854 1.79443,2.40208 0.60764,1.62354 0.60764,4.35792 0,5.60169 -0.0475,8.51646 -0.057,2.23118 -0.48421,3.69332 -0.41775,1.46213 -1.33871,2.38309 -0.91146,0.91146 -2.44006,1.32921 -1.5191,0.41776 -3.77876,0.41776 -0.3323,0 -0.97792,-0.0475 -0.64562,-0.038 -1.08236,-0.038 -2.17422,0 -3.65534,-0.27534 -1.47163,-0.27534 -2.49702,-1.0064 -1.0254,-0.74057 -1.60455,-2.12675 -0.56967,-1.39567 -0.6836,-3.62685 -0.0854,-1.59506 -0.0854,-4.66174 z m 2.76287,-0.12343 v 3.81674 q 0.057,2.39259 0.4937,3.59837 0.44624,1.1963 1.62354,1.68051 1.17731,0.47472 3.5604,0.47472 2.31663,0 3.60786,-0.14242 1.29124,-0.15191 2.14574,-0.72157 0.85449,-0.56966 1.27224,-1.79444 0.42725,-1.22477 0.48422,-3.37051 0.076,-2.60146 0.076,-7.85185 0,-2.83882 -0.64562,-4.0636 -0.64561,-1.23427 -1.97483,-1.5191 -1.31972,-0.29433 -4.30096,-0.29433 h -0.93044 q -2.22169,0 -3.31355,0.39877 -1.08235,0.39876 -1.54758,1.61404 -0.46522,1.21528 -0.5127,3.82624 z m 19.56135,11.63062 v -23.8404 h 11.12742 q 1.55708,0 2.7059,0.22787 1.15832,0.22786 1.99382,0.97792 1.16781,1.05387 1.55708,2.62994 0.38927,1.56657 0.38927,3.58888 0,1.75646 -0.31331,3.12365 -0.30382,1.3577 -1.24377,2.25017 -0.65511,0.66461 -1.43365,1.0159 -0.77854,0.3418 -1.61405,0.47472 -0.8355,0.12343 -2.23118,0.15191 -1.38618,0.0285 -1.40517,0.0285 h -6.88342 v 9.37096 z m 2.64894,-11.63062 h 6.33275 q 2.42107,0 3.62685,-0.27534 1.20579,-0.27534 1.80394,-1.30073 0.59814,-1.03489 0.59814,-3.24708 0,-1.87039 -0.26584,-2.91477 -0.25635,-1.05388 -1.11084,-1.57607 -0.8545,-0.52219 -2.58247,-0.52219 h -8.40253 z"
         id="path6-8" />
    </g>
  </g>
</svg>
