<?xml version="1.0" encoding="UTF-8" standalone="no"?>
<!-- Created with Inkscape (http://www.inkscape.org/) -->

<svg
   width="342.922"
   height="98.625"
   viewBox="0 0 90.731446 26.094531"
   version="1.1"
   id="svg1"
   inkscape:version="1.3 (0e150ed6c4, 2023-07-21)"
   sodipodi:docname="HeathBishopLogo.svg"
   xmlns:inkscape="http://www.inkscape.org/namespaces/inkscape"
   xmlns:sodipodi="http://sodipodi.sourceforge.net/DTD/sodipodi-0.dtd"
   xmlns="http://www.w3.org/2000/svg"
   xmlns:svg="http://www.w3.org/2000/svg">
  <sodipodi:namedview
     id="namedview1"
     pagecolor="#ffffff"
     bordercolor="#000000"
     borderopacity="0.25"
     inkscape:showpageshadow="2"
     inkscape:pageopacity="0.0"
     inkscape:pagecheckerboard="true"
     inkscape:deskcolor="#d1d1d1"
     inkscape:document-units="px"
     inkscape:zoom="7.2919001"
     inkscape:cx="170.66882"
     inkscape:cy="49.712694"
     inkscape:window-width="3200"
     inkscape:window-height="1694"
     inkscape:window-x="2869"
     inkscape:window-y="-11"
     inkscape:window-maximized="1"
     inkscape:current-layer="g41"
     showguides="true">
    <sodipodi:guide
       position="55.222666,4.2138525"
       orientation="1,0"
       id="guide2"
       inkscape:locked="false" />
  </sodipodi:namedview>
  <defs
     id="defs1">
    <linearGradient
       id="SVGID_1_"
       gradientUnits="userSpaceOnUse"
       x1="79.493202"
       y1="4859.4087"
       x2="338.11041"
       y2="4859.4087"
       gradientTransform="matrix(1.001481,0,0,0.1304,-0.11772519,-590.2121)">
      <stop
         offset="0"
         style="stop-color:#D46229"
         id="stop1" />
      <stop
         offset="0.4121"
         style="stop-color:#F08C21"
         id="stop2" />
      <stop
         offset="1"
         style="stop-color:#A84A25"
         id="stop3" />
    </linearGradient>
    <linearGradient
       id="SVGID_2_"
       gradientUnits="userSpaceOnUse"
       x1="12.6738"
       y1="38.855"
       x2="64.896004"
       y2="44.500599"
       gradientTransform="matrix(1,0,0,-1,0,72.0322)">
      <stop
         offset="0"
         style="stop-color:#F08C21"
         id="stop4" />
      <stop
         offset="1"
         style="stop-color:#A84A25"
         id="stop5" />
    </linearGradient>
    <linearGradient
       id="SVGID_3_"
       gradientUnits="userSpaceOnUse"
       x1="14.1406"
       y1="25.290501"
       x2="66.363503"
       y2="30.936199"
       gradientTransform="matrix(1,0,0,-1,0,72.0322)">
      <stop
         offset="0"
         style="stop-color:#F08C21"
         id="stop6" />
      <stop
         offset="1"
         style="stop-color:#A84A25"
         id="stop7" />
    </linearGradient>
    <radialGradient
       id="SVGID_4_"
       cx="37.922401"
       cy="42.695801"
       r="37.226898"
       gradientTransform="matrix(1,0,0,-1,0,72.0322)"
       gradientUnits="userSpaceOnUse">
      <stop
         offset="0.3132"
         style="stop-color:#FFFFFF"
         id="stop8" />
      <stop
         offset="0.597"
         style="stop-color:#FBFAFA"
         id="stop9" />
      <stop
         offset="0.6992"
         style="stop-color:#EFEEED"
         id="stop10" />
      <stop
         offset="0.7721"
         style="stop-color:#E0DEDE"
         id="stop11" />
      <stop
         offset="0.8311"
         style="stop-color:#CCCACA"
         id="stop12" />
      <stop
         offset="0.8815"
         style="stop-color:#B6B3B3"
         id="stop13" />
      <stop
         offset="0.9262"
         style="stop-color:#9C9A9A"
         id="stop14" />
      <stop
         offset="0.9656"
         style="stop-color:#818080"
         id="stop15" />
      <stop
         offset="1"
         style="stop-color:#676868"
         id="stop16" />
    </radialGradient>
  </defs>
  <g
     inkscape:label="Layer 1"
     inkscape:groupmode="layer"
     id="layer1">
    <g
       id="Layer_1_1_"
       inkscape:label="Graphics"
       style="display:inline"
       inkscape:export-filename="HeathBishopLogoFinal.svg"
       inkscape:export-xdpi="96"
       inkscape:export-ydpi="96"
       transform="matrix(0.26458333,0,0,0.26458333,1.3229997e-7,3.6501918)">
      <linearGradient
         id="linearGradient19"
         gradientUnits="userSpaceOnUse"
         x1="79.493202"
         y1="4859.4087"
         x2="338.11041"
         y2="4859.4087"
         gradientTransform="matrix(1,0,0,0.1304,0,-590.2121)">
        <stop
           offset="0"
           style="stop-color:#D46229"
           id="stop17" />
        <stop
           offset="0.4121"
           style="stop-color:#F08C21"
           id="stop18" />
        <stop
           offset="1"
           style="stop-color:#A84A25"
           id="stop19" />
      </linearGradient>
      <rect
         x="79.492996"
         y="42.175999"
         style="fill:url(#SVGID_1_);stroke-width:1.00074"
         width="259"
         height="2.5569999"
         id="rect3"
         inkscape:label="Divider"
         sodipodi:insensitive="true" />
      <g
         id="g16"
         inkscape:label="Logo"
         sodipodi:insensitive="true">
        <circle
           style="fill:#feebd7;stroke:#d57528;stroke-width:3"
           cx="37.609001"
           cy="35.977001"
           r="32.754002"
           id="circle3" />
        <g
           id="g7">
          <linearGradient
             id="linearGradient21"
             gradientUnits="userSpaceOnUse"
             x1="12.6738"
             y1="38.855"
             x2="64.896004"
             y2="44.500599"
             gradientTransform="matrix(1,0,0,-1,0,72.0322)">
            <stop
               offset="0"
               style="stop-color:#F08C21"
               id="stop20" />
            <stop
               offset="1"
               style="stop-color:#A84A25"
               id="stop21" />
          </linearGradient>
          <path
             style="fill:url(#SVGID_2_)"
             d="m 51.834,36.924 c -0.051,0 -0.102,-0.002 -0.152,-0.004 -0.05,-0.002 -0.102,-0.006 -0.152,-0.01 -0.051,-0.007 -0.101,-0.012 -0.149,-0.02 -0.051,-0.008 -0.101,-0.018 -0.15,-0.025 -0.332,-0.068 -0.716,-0.201 -1.155,-0.404 -0.437,-0.203 -0.925,-0.47 -1.465,-0.805 -0.538,-0.334 -1.125,-0.732 -1.76,-1.194 -0.632,-0.458 -1.309,-0.981 -2.032,-1.562 -0.913,-0.737 -1.618,-1.449 -2.121,-2.135 -0.497,-0.681 -0.795,-1.337 -0.897,-1.969 -0.102,-0.627 -0.01,-1.23 0.271,-1.813 0.28,-0.578 0.746,-1.136 1.396,-1.673 0.324,-0.265 0.64,-0.498 0.947,-0.698 0.306,-0.196 0.604,-0.362 0.893,-0.494 0.289,-0.129 0.57,-0.227 0.844,-0.293 0.273,-0.064 0.54,-0.097 0.798,-0.097 0.039,0 0.076,0 0.114,10e-4 0.037,0.002 0.074,0.003 0.112,0.007 0.036,0.003 0.073,0.006 0.109,0.011 0.038,0.003 0.074,0.009 0.11,0.013 0.287,0.042 0.613,0.136 0.978,0.279 0.365,0.142 0.77,0.336 1.215,0.579 0.447,0.243 0.935,0.54 1.466,0.888 0.533,0.35 1.11,0.753 1.73,1.211 0.672,0.493 1.272,0.96 1.806,1.397 0.533,0.438 0.996,0.845 1.385,1.223 0.391,0.379 0.709,0.725 0.949,1.039 0.244,0.316 0.41,0.596 0.5,0.845 0.092,0.25 0.124,0.515 0.095,0.798 -0.028,0.283 -0.119,0.581 -0.271,0.896 -0.151,0.314 -0.365,0.647 -0.64,0.995 -0.276,0.351 -0.616,0.718 -1.019,1.101 -0.33,0.315 -0.657,0.593 -0.979,0.83 -0.324,0.24 -0.643,0.438 -0.955,0.599 -0.313,0.161 -0.623,0.282 -0.926,0.361 -0.307,0.084 -0.603,0.123 -0.895,0.123 m -4.44,-17.683 c -0.463,0 -0.93,0.05 -1.403,0.151 -0.475,0.101 -0.956,0.251 -1.442,0.454 -0.49,0.204 -0.986,0.459 -1.492,0.766 -0.508,0.309 -1.024,0.671 -1.551,1.087 -0.691,0.545 -1.265,1.087 -1.722,1.623 -0.46,0.542 -0.798,1.08 -1.017,1.613 -0.219,0.537 -0.314,1.07 -0.285,1.598 0.029,0.532 0.187,1.059 0.471,1.581 l -0.125,0.042 -9.56,-7.708 -4.294,3.123 7.012,5.956 c 0.352,-0.188 0.698,-0.353 1.045,-0.495 0.345,-0.141 0.687,-0.261 1.029,-0.354 0.34,-0.094 0.678,-0.167 1.016,-0.218 0.337,-0.048 0.672,-0.075 1.006,-0.08 h 0.196 c 0.48,0.007 0.957,0.06 1.433,0.16 0.478,0.099 0.953,0.248 1.43,0.44 0.478,0.195 0.955,0.438 1.434,0.729 0.482,0.292 0.965,0.633 1.45,1.023 l 10.422,8.411 c 0.206,0.063 0.409,0.115 0.611,0.16 0.204,0.045 0.406,0.084 0.607,0.115 0.203,0.031 0.403,0.055 0.601,0.067 0.2,0.017 0.398,0.022 0.595,0.022 0.541,0 1.074,-0.057 1.597,-0.172 0.52,-0.114 1.032,-0.289 1.533,-0.52 0.498,-0.227 0.985,-0.512 1.461,-0.852 0.473,-0.34 0.933,-0.732 1.381,-1.178 0.616,-0.619 1.13,-1.221 1.543,-1.803 0.41,-0.577 0.719,-1.136 0.929,-1.678 0.208,-0.538 0.323,-1.059 0.339,-1.564 0.018,-0.5 -0.061,-0.986 -0.231,-1.456 -0.171,-0.468 -0.452,-0.967 -0.842,-1.501 -0.387,-0.529 -0.88,-1.089 -1.479,-1.679 -0.593,-0.587 -1.29,-1.201 -2.086,-1.847 -0.788,-0.638 -1.677,-1.304 -2.66,-1.995 -0.892,-0.627 -1.729,-1.178 -2.517,-1.656 -0.783,-0.473 -1.518,-0.873 -2.206,-1.202 -0.684,-0.328 -1.324,-0.585 -1.921,-0.775 -0.595,-0.188 -1.149,-0.308 -1.663,-0.36 -0.054,-0.006 -0.107,-0.011 -0.161,-0.015 -0.054,-0.004 -0.107,-0.007 -0.161,-0.01 -0.054,-0.003 -0.107,-0.004 -0.162,-0.006 -0.054,0.003 -0.107,0.003 -0.161,0.003"
             id="path5" />
          <linearGradient
             id="linearGradient23"
             gradientUnits="userSpaceOnUse"
             x1="14.1406"
             y1="25.290501"
             x2="66.363503"
             y2="30.936199"
             gradientTransform="matrix(1,0,0,-1,0,72.0322)">
            <stop
               offset="0"
               style="stop-color:#F08C21"
               id="stop22" />
            <stop
               offset="1"
               style="stop-color:#A84A25"
               id="stop23" />
          </linearGradient>
          <path
             style="fill:url(#SVGID_3_)"
             d="m 37.982,35.977 0.606,0.507 12.322,10.472 4.275,-4.258 -13.512,-10.906 c -1.012,-0.817 -2.016,-1.417 -3.018,-1.807 -0.996,-0.386 -1.993,-0.569 -2.998,-0.546 -1.003,0.022 -2.021,0.25 -3.057,0.683 -1.04,0.438 -2.106,1.087 -3.201,1.951 -0.76,0.602 -1.395,1.209 -1.9,1.824 -0.511,0.619 -0.893,1.245 -1.14,1.879 -0.251,0.641 -0.368,1.284 -0.35,1.938 0.018,0.66 0.175,1.328 0.473,2.002 l -0.122,0.066 -9.859,-9.237 -4.931,3.59 26.132,26 5.03,-5.016 -11.494,-10.762 c -0.794,-0.744 -1.381,-1.479 -1.761,-2.203 -0.376,-0.717 -0.55,-1.424 -0.524,-2.12 0.026,-0.691 0.248,-1.373 0.661,-2.043 0.411,-0.666 1.011,-1.322 1.798,-1.97 0.57,-0.467 1.132,-0.817 1.686,-1.051 0.553,-0.233 1.099,-0.349 1.641,-0.354 0.543,-0.002 1.082,0.107 1.621,0.333 0.54,0.224 1.08,0.565 1.622,1.028"
             id="path7" />
        </g>
        <radialGradient
           id="radialGradient32"
           cx="37.922401"
           cy="42.695801"
           r="37.226898"
           gradientTransform="matrix(1,0,0,-1,0,72.0322)"
           gradientUnits="userSpaceOnUse">
          <stop
             offset="0.3132"
             style="stop-color:#FFFFFF"
             id="stop24" />
          <stop
             offset="0.597"
             style="stop-color:#FBFAFA"
             id="stop25" />
          <stop
             offset="0.6992"
             style="stop-color:#EFEEED"
             id="stop26" />
          <stop
             offset="0.7721"
             style="stop-color:#E0DEDE"
             id="stop27" />
          <stop
             offset="0.8311"
             style="stop-color:#CCCACA"
             id="stop28" />
          <stop
             offset="0.8815"
             style="stop-color:#B6B3B3"
             id="stop29" />
          <stop
             offset="0.9262"
             style="stop-color:#9C9A9A"
             id="stop30" />
          <stop
             offset="0.9656"
             style="stop-color:#818080"
             id="stop31" />
          <stop
             offset="1"
             style="stop-color:#676868"
             id="stop32" />
        </radialGradient>
        <path
           style="opacity:0.53;fill:url(#SVGID_4_);enable-background:new"
           d="m 38.582,45.102 c -14.462,0 -26.751,-9.305 -31.208,-22.255 -1.652,3.933 -2.567,8.249 -2.567,12.78 0,18.223 14.775,33 33,33 18.226,0 33,-14.777 33,-33 0,-3.764 -0.63,-7.377 -1.79,-10.746 C 64.021,36.76 52.276,45.102 38.582,45.102 Z"
           id="path16" />
        <circle
           style="fill:none;stroke:#d57528;stroke-width:3"
           cx="37.609001"
           cy="35.977001"
           r="32.754002"
           id="circle16" />
      </g>
    </g>
    <g
       inkscape:groupmode="layer"
       id="g41"
       inkscape:label="New Text White"
       transform="matrix(0.26458333,0,0,0.26458333,170.29774,71.246206)">
      <g
         id="text39"
         style="font-size:38.889px;letter-spacing:1.75px;stroke-width:1.30626"
         inkscape:label="Heath Bishop"
         transform="scale(1.103657,0.90607858)"
         aria-label="HEATH BISHOP">
        <path
           style="font-family:EuroStyle;-inkscape-font-specification:EuroStyle;fill:#ffffff"
           d="m -490.19416,-264.11782 v 23.8404 h -2.72488 v -11.04197 h -13.91877 v 11.04197 h -2.64893 v -23.8404 h 2.64893 v 10.50079 h 13.91877 v -10.50079 z m 5.75663,2.41157 v 8.05124 h 12.13383 v 2.25967 h -12.13383 v 8.7823 h 12.67501 v 2.33562 h -15.28596 v -23.8404 h 15.28596 v 2.41157 z"
           id="path1" />
        <path
           style="letter-spacing:-2.96052px;fill:#ffffff"
           d="m -452.07763,-245.3759 h -11.98191 l -1.78494,5.09848 h -2.8768 l 8.70635,-23.8404 h 3.81674 l 8.82028,23.8404 h -2.80084 z m -0.70258,-2.13624 -5.28837,-14.65933 -5.2504,14.65933 z"
           id="path2" />
        <path
           style="letter-spacing:1.50026px;fill:#ffffff"
           d="m -438.93567,-261.55434 v 21.27692 h -2.72489 v -21.27692 h -7.69995 v -2.56348 h 18.04883 v 2.56348 z m 29.57516,-2.56348 v 23.8404 h -2.72489 v -11.04197 h -13.91877 v 11.04197 h -2.64893 v -23.8404 h 2.64893 v 10.50079 h 13.91877 v -10.50079 z"
           id="path3" />
        <path
           style="letter-spacing:3.11055px;fill:#ffffff"
           d="m -392.8078,-240.27742 v -23.8404 h 11.43124 q 2.16472,0 3.49393,0.55067 1.32921,0.54118 1.96534,1.83242 0.64562,1.28174 0.64562,3.53191 0,2.30714 -0.59815,3.53191 -0.58865,1.22478 -2.51601,1.8704 2.26915,0.64561 3.0382,1.91786 0.77854,1.26276 0.77854,3.7218 0,2.25017 -0.56966,3.75978 -0.56017,1.5096 -1.91787,2.31663 -1.3482,0.80702 -3.65534,0.80702 z m 12.01989,-11.04197 h -9.38045 v 8.70635 h 7.31067 q 2.29764,0 3.3895,-0.25635 1.09185,-0.25635 1.59505,-1.1868 0.50321,-0.93044 0.50321,-2.99073 0,-2.12674 -0.66461,-3.1996 -0.66461,-1.07287 -2.75337,-1.07287 z m -0.93995,-10.42483 h -8.4405 v 8.01326 h 7.51005 q 1.81343,0 2.80085,-0.36079 0.99691,-0.36079 1.40517,-1.28174 0.41775,-0.92096 0.41775,-2.63944 0,-2.17421 -0.76905,-2.95275 -0.75955,-0.77854 -2.92427,-0.77854 z m 14.1905,-2.3736 v 23.8404 h -2.67742 v -23.8404 z"
           id="path4" />
        <path
           style="letter-spacing:2.49044px;fill:#ffffff"
           d="m -345.95073,-257.54771 h -2.60146 q -0.10444,-1.84191 -0.48422,-2.76286 -0.37977,-0.92096 -1.30073,-1.29124 -0.92095,-0.37977 -2.76287,-0.37977 h -1.36719 q -3.67432,0 -4.86112,0.74056 -1.28174,0.78803 -1.28174,3.30404 0,1.41467 0.26584,2.25967 0.27534,0.8355 1.04438,1.31022 0.77854,0.46523 2.23118,0.56017 0.24686,0.019 3.50343,0.13292 3.25657,0.11394 4.74719,0.56017 1.50012,0.44624 2.41158,1.82292 0.92095,1.3672 0.92095,4.05411 0,2.07927 -0.3418,3.48444 -0.34179,1.39567 -1.38618,2.30713 -1.04438,0.90197 -3.08567,1.09185 -1.94635,0.18989 -4.55731,0.18989 -2.16472,0 -3.61736,-0.18989 -1.45264,-0.19938 -2.58247,-0.8355 -1.12034,-0.63612 -1.73747,-1.94635 -0.61714,-1.31022 -0.61714,-3.44646 0,-0.19938 0.019,-0.56017 0.019,-0.36079 0.019,-0.56017 h 2.57298 q 0,2.25966 0.37028,3.32304 0.37978,1.06337 1.44315,1.48112 1.06337,0.40826 3.31354,0.40826 h 2.22168 q 2.15523,0 3.23759,-0.27534 1.08236,-0.28483 1.56657,-1.22477 0.48421,-0.94944 0.48421,-2.98124 0,-1.66152 -0.28483,-2.48753 -0.27533,-0.83551 -1.06337,-1.1868 -0.78803,-0.35129 -2.38309,-0.40826 -2.25017,-0.0949 -4.40539,-0.20887 -2.15523,-0.11394 -3.67433,-0.63613 -1.5191,-0.52219 -2.42107,-1.91786 -0.90196,-1.40517 -0.90196,-3.99714 0,-2.72489 0.96842,-4.12056 0.96843,-1.39568 2.7059,-1.84191 1.73747,-0.45573 4.50034,-0.45573 h 0.61714 q 2.21219,0 3.65533,0.1709 1.45264,0.1614 2.56349,0.75955 1.11084,0.59814 1.71848,1.89887 0.61714,1.29124 0.61714,3.46545 z m 23.53,-6.57011 v 23.8404 h -2.72489 v -11.04197 h -13.91877 v 11.04197 h -2.64893 v -23.8404 h 2.64893 v 10.50079 h 13.91877 v -10.50079 z m 3.8861,12.33321 v -1.40517 q 0,-3.00023 0.1709,-4.84214 0.18039,-1.8514 0.89247,-3.29455 0.72157,-1.44315 2.32613,-2.25017 1.60455,-0.81652 4.3959,-0.81652 h 1.12033 q 2.75337,0 4.47186,0.25635 1.71848,0.24686 2.89579,1.03489 1.18679,0.77854 1.79443,2.40208 0.60764,1.62354 0.60764,4.35792 0,5.60169 -0.0475,8.51646 -0.057,2.23118 -0.48421,3.69332 -0.41775,1.46213 -1.33871,2.38309 -0.91146,0.91146 -2.44006,1.32921 -1.5191,0.41776 -3.77876,0.41776 -0.3323,0 -0.97792,-0.0475 -0.64562,-0.038 -1.08236,-0.038 -2.17422,0 -3.65534,-0.27534 -1.47163,-0.27534 -2.49702,-1.0064 -1.0254,-0.74057 -1.60455,-2.12675 -0.56967,-1.39567 -0.6836,-3.62685 -0.0854,-1.59506 -0.0854,-4.66174 z m 2.76287,-0.12343 v 3.81674 q 0.057,2.39259 0.4937,3.59837 0.44624,1.1963 1.62354,1.68051 1.17731,0.47472 3.5604,0.47472 2.31663,0 3.60786,-0.14242 1.29124,-0.15191 2.14574,-0.72157 0.85449,-0.56966 1.27224,-1.79444 0.42725,-1.22477 0.48422,-3.37051 0.076,-2.60146 0.076,-7.85185 0,-2.83882 -0.64562,-4.0636 -0.64561,-1.23427 -1.97483,-1.5191 -1.31972,-0.29433 -4.30096,-0.29433 h -0.93044 q -2.22169,0 -3.31355,0.39877 -1.08235,0.39876 -1.54758,1.61404 -0.46522,1.21528 -0.5127,3.82624 z m 19.56135,11.63062 v -23.8404 h 11.12742 q 1.55708,0 2.7059,0.22787 1.15832,0.22786 1.99382,0.97792 1.16781,1.05387 1.55708,2.62994 0.38927,1.56657 0.38927,3.58888 0,1.75646 -0.31331,3.12365 -0.30382,1.3577 -1.24377,2.25017 -0.65511,0.66461 -1.43365,1.0159 -0.77854,0.3418 -1.61405,0.47472 -0.8355,0.12343 -2.23118,0.15191 -1.38618,0.0285 -1.40517,0.0285 h -6.88342 v 9.37096 z m 2.64894,-11.63062 h 6.33275 q 2.42107,0 3.62685,-0.27534 1.20579,-0.27534 1.80394,-1.30073 0.59814,-1.03489 0.59814,-3.24708 0,-1.87039 -0.26584,-2.91477 -0.25635,-1.05388 -1.11084,-1.57607 -0.8545,-0.52219 -2.58247,-0.52219 h -8.40253 z"
           id="path6" />
      </g>
      <g
         id="text41"
         style="font-size:29.8001px;letter-spacing:1.34101px;fill:#d56329;stroke-width:1.00097"
         inkscape:label="React Developer"
         transform="scale(1.1147205,0.89708587)"
         aria-label="REACT DEVELOPER">
        <path
           style="fill:#d57428"
           d="m -504.47056,-211.16179 v -18.26857 h 8.6141 q 2.87378,0 4.11788,1.20772 1.2441,1.20045 1.2441,4.09606 0,1.52784 -0.16006,2.38634 -0.16006,0.85122 -0.84395,1.49873 -0.67661,0.64751 -2.15352,0.91671 2.91744,0.20371 2.91744,3.48492 v 4.67809 h -2.11715 v -4.20519 q 0,-1.76065 -0.80757,-2.47364 -0.80757,-0.71299 -2.61915,-0.71299 h -6.19865 v 7.39182 z m 1.99347,-9.08699 h 5.92946 q 1.44053,0 2.27721,-0.26919 0.83667,-0.26919 1.22954,-1.00401 0.40015,-0.74209 0.40015,-2.09532 0,-1.54239 -0.19644,-2.34996 -0.19643,-0.80757 -0.88032,-1.22227 -0.68389,-0.42197 -2.13897,-0.42197 h -6.62063 z m 16.21196,-7.33362 v 6.16955 h 9.29798 v 1.73155 h -9.29798 v 6.72976 h 9.71268 v 1.78975 h -11.71342 v -18.26857 h 11.71342 v 1.84796 z m 24.79694,12.51371 h -9.18157 l -1.36778,3.9069 h -2.20445 l 6.67156,-18.26857 h 2.92471 l 6.75886,18.26857 h -2.14624 z m -0.53838,-1.63697 -4.0524,-11.23324 -4.02331,11.23324 z m 18.78018,-0.65478 h 2.02257 q 0,0.28374 0.0437,0.85122 0.0437,0.56748 0.0437,0.85122 0,4.11789 -4.0524,4.49621 -1.46964,0.0873 -2.91745,0.0873 h -2.56094 q -1.94254,-0.14551 -3.0193,-0.96036 -1.06948,-0.82212 -1.49146,-2.09532 -0.42197,-1.28047 -0.48745,-3.07022 -0.0655,-1.78976 -0.10186,-3.0775 v -2.89562 q 0,-1.82613 0.39287,-3.09933 0.40015,-1.28047 1.42599,-2.05894 1.03311,-0.78574 2.85923,-0.9749 1.13497,-0.15279 3.55041,-0.15279 1.92798,0 3.03385,0.21826 1.11313,0.21827 1.75337,0.80758 0.64024,0.5893 0.93853,1.70244 0.29829,1.10587 0.4147,3.05568 h -2.02984 q 0,-1.56422 -0.21099,-2.37179 -0.20371,-0.81484 -0.90215,-1.21499 -0.69117,-0.40743 -2.1317,-0.40743 -1.717,0 -3.84869,0.14551 -1.30958,0.10913 -1.97892,0.60386 -0.66206,0.48745 -0.88032,1.34595 -0.21099,0.85123 -0.21099,2.31359 v 4.20519 q 0,3.73228 0.72027,5.03458 0.64751,1.16407 3.63043,1.16407 0.21826,0 0.79302,0.0291 0.57476,0.0291 0.90943,0.0291 1.8625,0 3.0775,-0.50928 1.21499,-0.51655 1.2732,-1.99346 0,-0.3565 -0.0291,-1.04766 -0.0291,-0.69116 -0.0291,-1.01128 z m 12.27596,-10.10555 v 16.3042 h -2.08804 v -16.3042 h -5.90037 v -1.96437 h 13.83057 v 1.96437 z"
           id="path8" />
        <path
           style="fill:#ffffff"
           d="m -413.33926,-211.16179 v -18.26857 h 8.43221 q 2.00801,0 3.31031,0.49473 1.30958,0.48745 2.02984,1.45508 0.72754,0.96764 1.01856,2.38634 0.29102,1.41143 0.29102,3.47037 v 1.73155 q 0,2.75739 -0.39288,4.59079 -0.39287,1.8334 -1.73882,2.9902 -1.34595,1.14951 -4.00875,1.14951 z m 1.99347,-1.78975 h 5.96584 q 1.45508,0 2.45181,-0.19644 0.99673,-0.19643 1.60059,-0.93125 1.04039,-1.37505 1.04039,-5.10007 v -0.86577 q 0,-2.91744 -0.21099,-4.28522 -0.24009,-1.96436 -1.32413,-2.6046 -1.08403,-0.64751 -3.14298,-0.64751 h -6.38053 z m 17.31782,-14.63086 v 6.16955 h 9.29798 v 1.73155 h -9.29798 v 6.72976 h 9.71268 v 1.78975 h -11.71342 v -18.26857 h 11.71342 v 1.84796 z m 25.72093,-1.84796 h 2.20445 l -6.43874,18.26857 h -2.94655 l -6.49694,-18.26857 h 2.20445 l 5.77668,16.6316 z m 6.52838,1.84796 v 6.16955 h 9.29798 v 1.73155 h -9.29798 v 6.72976 h 9.71268 v 1.78975 h -11.71342 v -18.26857 h 11.71342 v 1.84796 z m 14.2476,-1.84796 v 16.36241 h 9.23977 v 1.90616 h -11.44423 v -18.26857 z m 11.43928,9.45077 v -1.07676 q 0,-2.29903 0.13096,-3.71047 0.13823,-1.4187 0.68389,-2.52456 0.55293,-1.10587 1.78247,-1.72428 1.22955,-0.62568 3.36852,-0.62568 h 0.8585 q 2.10987,0 3.42672,0.19643 1.31685,0.18916 2.219,0.79302 0.90943,0.59659 1.37505,1.84068 0.46563,1.2441 0.46563,3.33942 0,4.29249 -0.0364,6.52605 -0.0436,1.70972 -0.37104,2.83013 -0.32012,1.12042 -1.02584,1.82613 -0.69844,0.69844 -1.86978,1.01856 -1.16406,0.32012 -2.89561,0.32012 -0.25464,0 -0.74937,-0.0364 -0.49473,-0.0291 -0.8294,-0.0291 -1.66607,0 -2.80103,-0.21099 -1.12769,-0.21098 -1.91344,-0.77119 -0.78574,-0.56748 -1.22954,-1.62969 -0.43653,-1.06949 -0.52383,-2.77921 -0.0655,-1.22227 -0.0655,-3.57223 z m 2.11714,-0.0946 v 2.92471 q 0.0437,1.83341 0.37833,2.75739 0.34194,0.9167 1.24409,1.28775 0.90215,0.36377 2.72828,0.36377 1.7752,0 2.76466,-0.10914 0.98946,-0.1164 1.64424,-0.55293 0.65479,-0.43652 0.97491,-1.37505 0.32739,-0.93853 0.37105,-2.58277 0.0582,-1.99347 0.0582,-6.01677 0,-2.17535 -0.49473,-3.11388 -0.49473,-0.9458 -1.51328,-1.16407 -1.01129,-0.22553 -3.29577,-0.22553 h -0.71299 q -1.70245,0 -2.53912,0.30556 -0.8294,0.30557 -1.18589,1.23683 -0.3565,0.93125 -0.39287,2.93199 z m 14.4222,8.91238 v -18.26857 h 8.52679 q 1.19317,0 2.07349,0.17461 0.88761,0.17461 1.52784,0.74937 0.89488,0.80757 1.19317,2.01529 0.29829,1.20044 0.29829,2.75011 0,1.34595 -0.24009,2.39361 -0.23281,1.04038 -0.95308,1.72427 -0.502,0.50928 -1.09858,0.77847 -0.59659,0.26192 -1.23682,0.36377 -0.64024,0.0946 -1.70973,0.11641 -1.06221,0.0218 -1.07676,0.0218 h -5.27467 v 7.18083 z m 2.02985,-8.91238 h 4.8527 q 1.85523,0 2.77921,-0.21099 0.92397,-0.21099 1.38233,-0.99673 0.45835,-0.79302 0.45835,-2.48819 0,-1.43326 -0.20372,-2.23356 -0.19643,-0.80757 -0.85122,-1.20771 -0.65479,-0.40015 -1.97891,-0.40015 h -6.43874 z m 15.73178,-7.50823 v 6.16955 h 9.29798 v 1.73155 h -9.29798 v 6.72976 h 9.71268 v 1.78975 h -11.71342 v -18.26857 h 11.71342 v 1.84796 z m 12.10135,16.42061 v -18.26857 h 8.61409 q 2.87379,0 4.11789,1.20772 1.24409,1.20045 1.24409,4.09606 0,1.52784 -0.16006,2.38634 -0.16005,0.85122 -0.84394,1.49873 -0.67662,0.64751 -2.15353,0.91671 2.91745,0.20371 2.91745,3.48492 v 4.67809 h -2.11715 v -4.20519 q 0,-1.76065 -0.80757,-2.47364 -0.80757,-0.71299 -2.61915,-0.71299 h -6.19865 v 7.39182 z m 1.99347,-9.08699 h 5.92946 q 1.44053,0 2.2772,-0.26919 0.83668,-0.26919 1.22955,-1.00401 0.40015,-0.74209 0.40015,-2.09532 0,-1.54239 -0.19644,-2.34996 -0.19644,-0.80757 -0.88032,-1.22227 -0.68389,-0.42197 -2.13898,-0.42197 h -6.62062 z"
           id="path9" />
      </g>
    </g>
  </g>
</svg>
