<?xml version="1.0" encoding="UTF-8" standalone="no"?>
<!-- Generator: Adobe Illustrator 16.0.0, SVG Export Plug-In . SVG Version: 6.00 Build 0)  -->

<svg
   version="1.1"
   id="Layer_1"
   x="0px"
   y="0px"
   width="85.976997"
   height="85.980003"
   viewBox="0 0 85.976999 85.980005"
   enable-background="new 0 0 100.754 98.475"
   xml:space="preserve"
   sodipodi:docname="HBIcon.svg"
   inkscape:version="1.4.2 (f4327f4, 2025-05-13)"
   inkscape:export-filename="HBIcon.png"
   inkscape:export-xdpi="96"
   inkscape:export-ydpi="96"
   xmlns:inkscape="http://www.inkscape.org/namespaces/inkscape"
   xmlns:sodipodi="http://sodipodi.sourceforge.net/DTD/sodipodi-0.dtd"
   xmlns="http://www.w3.org/2000/svg"
   xmlns:svg="http://www.w3.org/2000/svg"><defs
   id="defs14" /><sodipodi:namedview
   id="namedview14"
   pagecolor="#ffffff"
   bordercolor="#000000"
   borderopacity="0.25"
   inkscape:showpageshadow="2"
   inkscape:pageopacity="0.0"
   inkscape:pagecheckerboard="0"
   inkscape:deskcolor="#d1d1d1"
   inkscape:zoom="16.532115"
   inkscape:cx="42.946713"
   inkscape:cy="39.317413"
   inkscape:window-width="3840"
   inkscape:window-height="2054"
   inkscape:window-x="3829"
   inkscape:window-y="-11"
   inkscape:window-maximized="1"
   inkscape:current-layer="g14" />

<g
   id="g14"
   transform="translate(-7.994,-6.247)"
   style="display:inline">
	<path
   fill="#feebd7"
   stroke="#d57528"
   stroke-width="3"
   d="m 92.471,49.238 c 0,22.913 -18.576,41.489 -41.488,41.489 -22.915,0 -41.489,-18.576 -41.489,-41.489 0,-22.915 18.575,-41.491 41.489,-41.491 22.912,0 41.488,18.576 41.488,41.491 z"
   id="path1"
   style="display:inline"
   inkscape:label="background circle" />
	<g
   id="g4"
   style="display:inline"
   inkscape:label="hb">
		
			<linearGradient
   id="SVGID_1_"
   gradientUnits="userSpaceOnUse"
   x1="19.398899"
   y1="738.22089"
   x2="85.547501"
   y2="731.06982"
   gradientTransform="translate(0,-692.5254)">
			<stop
   offset="0"
   style="stop-color:#F08C21"
   id="stop1" />
			<stop
   offset="1"
   style="stop-color:#A84A25"
   id="stop2" />
		</linearGradient>
		<path
   fill="url(#SVGID_1_)"
   d="m 69,50.439 c -0.064,0 -0.13,-0.002 -0.193,-0.004 C 68.744,50.431 68.68,50.425 68.615,50.419 68.552,50.412 68.488,50.404 68.426,50.398 68.363,50.387 68.299,50.377 68.238,50.365 67.817,50.278 67.33,50.108 66.773,49.852 66.22,49.596 65.601,49.257 64.918,48.833 64.237,48.411 63.494,47.904 62.688,47.32 61.889,46.741 61.032,46.077 60.115,45.343 58.96,44.41 58.067,43.507 57.428,42.638 56.799,41.775 56.42,40.945 56.291,40.144 c -0.129,-0.794 -0.012,-1.559 0.343,-2.297 0.354,-0.733 0.944,-1.44 1.769,-2.118 0.412,-0.335 0.811,-0.63 1.2,-0.885 0.388,-0.249 0.765,-0.458 1.131,-0.625 0.366,-0.163 0.723,-0.288 1.069,-0.371 0.346,-0.082 0.686,-0.123 1.012,-0.123 0.049,0 0.096,0 0.145,10e-4 0.047,0.003 0.093,0.005 0.141,0.009 0.045,0.005 0.094,0.008 0.14,0.015 0.046,0.003 0.093,0.012 0.138,0.018 0.363,0.054 0.777,0.171 1.238,0.354 0.461,0.179 0.976,0.425 1.539,0.733 0.567,0.307 1.186,0.684 1.857,1.125 0.675,0.444 1.406,0.954 2.193,1.534 0.85,0.624 1.611,1.215 2.286,1.769 0.675,0.556 1.263,1.071 1.755,1.549 0.495,0.481 0.897,0.918 1.202,1.316 0.308,0.4 0.519,0.755 0.634,1.071 0.117,0.317 0.156,0.653 0.119,1.01 -0.036,0.358 -0.15,0.736 -0.342,1.135 -0.192,0.398 -0.463,0.818 -0.813,1.259 -0.349,0.445 -0.779,0.909 -1.289,1.396 -0.418,0.4 -0.832,0.751 -1.24,1.051 -0.409,0.302 -0.813,0.556 -1.209,0.759 -0.396,0.205 -0.789,0.356 -1.173,0.457 -0.389,0.103 -0.766,0.153 -1.136,0.153 m -5.623,-22.4 c -0.588,0 -1.179,0.064 -1.778,0.192 -0.601,0.128 -1.21,0.318 -1.825,0.574 -0.621,0.258 -1.249,0.581 -1.891,0.97 -0.643,0.392 -1.297,0.851 -1.964,1.377 -0.876,0.69 -1.603,1.376 -2.181,2.056 -0.582,0.687 -1.012,1.366 -1.288,2.043 -0.277,0.68 -0.399,1.355 -0.362,2.023 0.039,0.674 0.237,1.341 0.598,2.001 l -0.158,0.055 -12.109,-9.762 -5.439,3.954 8.882,7.544 c 0.444,-0.239 0.884,-0.448 1.323,-0.626 0.437,-0.178 0.87,-0.331 1.303,-0.45 0.432,-0.12 0.859,-0.211 1.286,-0.276 0.428,-0.061 0.852,-0.096 1.274,-0.1 h 0.249 c 0.609,0.01 1.213,0.076 1.815,0.204 0.604,0.125 1.207,0.313 1.812,0.557 0.604,0.248 1.209,0.556 1.815,0.924 0.611,0.371 1.223,0.802 1.837,1.296 L 69.778,53.25 c 0.26,0.077 0.518,0.144 0.773,0.202 0.258,0.059 0.515,0.107 0.769,0.146 0.257,0.041 0.511,0.069 0.762,0.089 0.253,0.02 0.504,0.028 0.753,0.028 0.686,0 1.36,-0.073 2.023,-0.218 0.659,-0.146 1.307,-0.366 1.941,-0.656 0.631,-0.289 1.246,-0.649 1.85,-1.081 0.6,-0.431 1.182,-0.928 1.75,-1.491 0.779,-0.783 1.432,-1.544 1.953,-2.283 0.52,-0.732 0.912,-1.439 1.178,-2.125 0.265,-0.682 0.409,-1.341 0.43,-1.981 0.022,-0.634 -0.077,-1.248 -0.293,-1.844 -0.217,-0.593 -0.572,-1.225 -1.066,-1.902 -0.492,-0.669 -1.115,-1.379 -1.875,-2.127 -0.751,-0.743 -1.633,-1.522 -2.643,-2.339 -0.998,-0.809 -2.124,-1.651 -3.369,-2.527 -1.129,-0.795 -2.189,-1.492 -3.188,-2.098 -0.992,-0.599 -1.922,-1.105 -2.795,-1.523 -0.863,-0.416 -1.676,-0.741 -2.434,-0.981 -0.754,-0.238 -1.455,-0.39 -2.105,-0.457 -0.069,-0.008 -0.137,-0.014 -0.205,-0.019 -0.068,-0.006 -0.135,-0.01 -0.205,-0.013 -0.067,-0.005 -0.136,-0.005 -0.203,-0.008 -0.065,-0.003 -0.133,-0.003 -0.202,-0.003"
   id="path2"
   style="display:inline;fill:url(#SVGID_1_)"
   inkscape:label="b" />
		
			<linearGradient
   id="SVGID_2_"
   gradientUnits="userSpaceOnUse"
   x1="21.2554"
   y1="755.40057"
   x2="87.404198"
   y2="748.24951"
   gradientTransform="translate(0,-692.5254)">
			<stop
   offset="0"
   style="stop-color:#F08C21"
   id="stop3" />
			<stop
   offset="1"
   style="stop-color:#A84A25"
   id="stop4" />
		</linearGradient>
		<path
   fill="url(#SVGID_2_)"
   d="M 51.456,49.238 52.224,49.881 67.831,63.145 73.247,57.75 56.13,43.938 c -1.281,-1.037 -2.554,-1.795 -3.823,-2.289 -1.26,-0.49 -2.524,-0.721 -3.797,-0.693 -1.271,0.028 -2.561,0.316 -3.873,0.866 -1.317,0.554 -2.667,1.375 -4.054,2.472 -0.964,0.762 -1.766,1.531 -2.408,2.31 -0.646,0.784 -1.13,1.577 -1.444,2.381 -0.318,0.811 -0.466,1.627 -0.443,2.456 0.023,0.834 0.222,1.682 0.6,2.535 L 36.734,54.06 24.246,42.359 18,46.906 51.101,79.842 57.473,73.487 42.913,59.855 c -1.007,-0.943 -1.75,-1.874 -2.23,-2.792 -0.477,-0.908 -0.697,-1.803 -0.664,-2.687 0.033,-0.876 0.313,-1.74 0.837,-2.589 0.521,-0.843 1.281,-1.675 2.277,-2.494 0.723,-0.592 1.433,-1.035 2.135,-1.331 0.701,-0.296 1.393,-0.443 2.079,-0.451 0.689,-0.002 1.371,0.138 2.054,0.42 0.683,0.289 1.368,0.721 2.055,1.307"
   id="path4"
   style="fill:url(#SVGID_2_)"
   inkscape:label="h" />
	</g>
	
		<radialGradient
   id="SVGID_3_"
   cx="51.380402"
   cy="733.35382"
   r="47.152901"
   gradientTransform="translate(0,-692.5254)"
   gradientUnits="userSpaceOnUse">
		<stop
   offset="0.3132"
   style="stop-color:#FFFFFF"
   id="stop5" />
		<stop
   offset="0.597"
   style="stop-color:#FBFAFA"
   id="stop6" />
		<stop
   offset="0.6992"
   style="stop-color:#EFEEED"
   id="stop7" />
		<stop
   offset="0.7721"
   style="stop-color:#E0DEDE"
   id="stop8" />
		<stop
   offset="0.8311"
   style="stop-color:#CCCACA"
   id="stop9" />
		<stop
   offset="0.8815"
   style="stop-color:#B6B3B3"
   id="stop10" />
		<stop
   offset="0.9262"
   style="stop-color:#9C9A9A"
   id="stop11" />
		<stop
   offset="0.9656"
   style="stop-color:#818080"
   id="stop12" />
		<stop
   offset="1"
   style="stop-color:#676868"
   id="stop13" />
	</radialGradient>
	<path
   opacity="0.53"
   fill="url(#SVGID_3_)"
   enable-background="new    "
   d="m 52.215,60.795 c -18.319,0 -33.886,-11.786 -39.531,-28.191 -2.093,4.982 -3.252,10.449 -3.252,16.189 0,23.083 18.715,41.8 41.8,41.8 23.086,0 41.8,-18.717 41.8,-41.8 0,-4.769 -0.799,-9.345 -2.267,-13.612 -6.326,15.049 -21.204,25.614 -38.55,25.614 z"
   id="path13"
   style="display:inline;fill:url(#SVGID_3_)"
   inkscape:label="highlight" />
	<path
   fill="none"
   stroke="#d57528"
   stroke-width="3"
   d="m 92.471,49.238 c 0,22.913 -18.576,41.489 -41.488,41.489 -22.915,0 -41.489,-18.576 -41.489,-41.489 0,-22.915 18.575,-41.491 41.489,-41.491 22.912,0 41.488,18.576 41.488,41.491 z"
   id="path14"
   style="display:inline"
   inkscape:label="border to cover highlight edges" />
</g>
</svg>
