<?xml version="1.0" encoding="UTF-8" standalone="no"?>
<!-- Created with Inkscape (http://www.inkscape.org/) -->

<svg
   width="342.922"
   height="98.625"
   viewBox="0 0 90.731446 26.094531"
   version="1.1"
   id="svg1"
   inkscape:version="1.3.2 (091e20e, 2023-11-25, custom)"
   sodipodi:docname="NewHeathBishopLogo2.svg"
   xmlns:inkscape="http://www.inkscape.org/namespaces/inkscape"
   xmlns:sodipodi="http://sodipodi.sourceforge.net/DTD/sodipodi-0.dtd"
   xmlns="http://www.w3.org/2000/svg"
   xmlns:svg="http://www.w3.org/2000/svg">
  <sodipodi:namedview
     id="namedview1"
     pagecolor="#ffffff"
     bordercolor="#000000"
     borderopacity="0.25"
     inkscape:showpageshadow="2"
     inkscape:pageopacity="0.0"
     inkscape:pagecheckerboard="true"
     inkscape:deskcolor="#d1d1d1"
     inkscape:document-units="px"
     inkscape:zoom="5.1561521"
     inkscape:cx="127.80849"
     inkscape:cy="48.873655"
     inkscape:window-width="1920"
     inkscape:window-height="1010"
     inkscape:window-x="1913"
     inkscape:window-y="-6"
     inkscape:window-maximized="1"
     inkscape:current-layer="layer2"
     showguides="true">
    <sodipodi:guide
       position="55.222666,4.2138525"
       orientation="1,0"
       id="guide2"
       inkscape:locked="false" />
  </sodipodi:namedview>
  <defs
     id="defs1">
    <linearGradient
       id="SVGID_1_"
       gradientUnits="userSpaceOnUse"
       x1="79.493202"
       y1="4859.4087"
       x2="338.11041"
       y2="4859.4087"
       gradientTransform="matrix(1.001481,0,0,0.1304,-0.11772519,-590.2121)">
      <stop
         offset="0"
         style="stop-color:#b77800;stop-opacity:1;"
         id="stop1" />
      <stop
         offset="0.49896246"
         style="stop-color:#ffaf19;stop-opacity:1;"
         id="stop2" />
      <stop
         offset="1"
         style="stop-color:#c08200;stop-opacity:1;"
         id="stop3" />
    </linearGradient>
    <linearGradient
       id="SVGID_2_"
       gradientUnits="userSpaceOnUse"
       x1="12.6738"
       y1="38.855"
       x2="64.896004"
       y2="44.500599"
       gradientTransform="matrix(1,0,0,-1,0,72.0322)">
      <stop
         offset="0"
         style="stop-color:#F08C21"
         id="stop4" />
      <stop
         offset="1"
         style="stop-color:#A84A25"
         id="stop5" />
    </linearGradient>
    <linearGradient
       id="SVGID_3_"
       gradientUnits="userSpaceOnUse"
       x1="14.1406"
       y1="25.290501"
       x2="66.363503"
       y2="30.936199"
       gradientTransform="matrix(1,0,0,-1,0,72.0322)">
      <stop
         offset="0"
         style="stop-color:#F08C21"
         id="stop6" />
      <stop
         offset="1"
         style="stop-color:#A84A25"
         id="stop7" />
    </linearGradient>
    <radialGradient
       id="SVGID_4_"
       cx="37.922401"
       cy="42.695801"
       r="37.226898"
       gradientTransform="matrix(1,0,0,-1,0,72.0322)"
       gradientUnits="userSpaceOnUse">
      <stop
         offset="0.3132"
         style="stop-color:#FFFFFF"
         id="stop8" />
      <stop
         offset="0.597"
         style="stop-color:#FBFAFA"
         id="stop9" />
      <stop
         offset="0.6992"
         style="stop-color:#EFEEED"
         id="stop10" />
      <stop
         offset="0.7721"
         style="stop-color:#E0DEDE"
         id="stop11" />
      <stop
         offset="0.8311"
         style="stop-color:#CCCACA"
         id="stop12" />
      <stop
         offset="0.8815"
         style="stop-color:#B6B3B3"
         id="stop13" />
      <stop
         offset="0.9262"
         style="stop-color:#9C9A9A"
         id="stop14" />
      <stop
         offset="0.9656"
         style="stop-color:#818080"
         id="stop15" />
      <stop
         offset="1"
         style="stop-color:#676868"
         id="stop16" />
    </radialGradient>
  </defs>
  <g
     inkscape:label="Icon"
     inkscape:groupmode="layer"
     id="layer1"
     style="display:inline">
    <g
       id="Layer_1_1_"
       inkscape:label="Graphics"
       style="display:inline"
       inkscape:export-filename="HeathBishopLogoFinal.svg"
       inkscape:export-xdpi="96"
       inkscape:export-ydpi="96"
       transform="matrix(0.26458333,0,0,0.26458333,1.3229997e-7,3.6501918)">
      <linearGradient
         id="linearGradient19"
         gradientUnits="userSpaceOnUse"
         x1="79.493202"
         y1="4859.4087"
         x2="338.11041"
         y2="4859.4087"
         gradientTransform="matrix(1,0,0,0.1304,0,-590.2121)">
        <stop
           offset="0"
           style="stop-color:#D46229"
           id="stop17" />
        <stop
           offset="0.4121"
           style="stop-color:#F08C21"
           id="stop18" />
        <stop
           offset="1"
           style="stop-color:#A84A25"
           id="stop19" />
      </linearGradient>
      <g
         id="g16"
         inkscape:label="Logo">
        <circle
           style="display:inline;fill:#feebd7;stroke:#d57528;stroke-width:3"
           cx="37.609001"
           cy="35.977001"
           r="32.754002"
           id="circle3" />
        <g
           id="g7">
          <linearGradient
             id="linearGradient21"
             gradientUnits="userSpaceOnUse"
             x1="12.6738"
             y1="38.855"
             x2="64.896004"
             y2="44.500599"
             gradientTransform="matrix(1,0,0,-1,0,72.0322)">
            <stop
               offset="0"
               style="stop-color:#F08C21"
               id="stop20" />
            <stop
               offset="1"
               style="stop-color:#A84A25"
               id="stop21" />
          </linearGradient>
          <path
             style="fill:url(#SVGID_2_)"
             d="m 51.834,36.924 c -0.051,0 -0.102,-0.002 -0.152,-0.004 -0.05,-0.002 -0.102,-0.006 -0.152,-0.01 -0.051,-0.007 -0.101,-0.012 -0.149,-0.02 -0.051,-0.008 -0.101,-0.018 -0.15,-0.025 -0.332,-0.068 -0.716,-0.201 -1.155,-0.404 -0.437,-0.203 -0.925,-0.47 -1.465,-0.805 -0.538,-0.334 -1.125,-0.732 -1.76,-1.194 -0.632,-0.458 -1.309,-0.981 -2.032,-1.562 -0.913,-0.737 -1.618,-1.449 -2.121,-2.135 -0.497,-0.681 -0.795,-1.337 -0.897,-1.969 -0.102,-0.627 -0.01,-1.23 0.271,-1.813 0.28,-0.578 0.746,-1.136 1.396,-1.673 0.324,-0.265 0.64,-0.498 0.947,-0.698 0.306,-0.196 0.604,-0.362 0.893,-0.494 0.289,-0.129 0.57,-0.227 0.844,-0.293 0.273,-0.064 0.54,-0.097 0.798,-0.097 0.039,0 0.076,0 0.114,10e-4 0.037,0.002 0.074,0.003 0.112,0.007 0.036,0.003 0.073,0.006 0.109,0.011 0.038,0.003 0.074,0.009 0.11,0.013 0.287,0.042 0.613,0.136 0.978,0.279 0.365,0.142 0.77,0.336 1.215,0.579 0.447,0.243 0.935,0.54 1.466,0.888 0.533,0.35 1.11,0.753 1.73,1.211 0.672,0.493 1.272,0.96 1.806,1.397 0.533,0.438 0.996,0.845 1.385,1.223 0.391,0.379 0.709,0.725 0.949,1.039 0.244,0.316 0.41,0.596 0.5,0.845 0.092,0.25 0.124,0.515 0.095,0.798 -0.028,0.283 -0.119,0.581 -0.271,0.896 -0.151,0.314 -0.365,0.647 -0.64,0.995 -0.276,0.351 -0.616,0.718 -1.019,1.101 -0.33,0.315 -0.657,0.593 -0.979,0.83 -0.324,0.24 -0.643,0.438 -0.955,0.599 -0.313,0.161 -0.623,0.282 -0.926,0.361 -0.307,0.084 -0.603,0.123 -0.895,0.123 m -4.44,-17.683 c -0.463,0 -0.93,0.05 -1.403,0.151 -0.475,0.101 -0.956,0.251 -1.442,0.454 -0.49,0.204 -0.986,0.459 -1.492,0.766 -0.508,0.309 -1.024,0.671 -1.551,1.087 -0.691,0.545 -1.265,1.087 -1.722,1.623 -0.46,0.542 -0.798,1.08 -1.017,1.613 -0.219,0.537 -0.314,1.07 -0.285,1.598 0.029,0.532 0.187,1.059 0.471,1.581 l -0.125,0.042 -9.56,-7.708 -4.294,3.123 7.012,5.956 c 0.352,-0.188 0.698,-0.353 1.045,-0.495 0.345,-0.141 0.687,-0.261 1.029,-0.354 0.34,-0.094 0.678,-0.167 1.016,-0.218 0.337,-0.048 0.672,-0.075 1.006,-0.08 h 0.196 c 0.48,0.007 0.957,0.06 1.433,0.16 0.478,0.099 0.953,0.248 1.43,0.44 0.478,0.195 0.955,0.438 1.434,0.729 0.482,0.292 0.965,0.633 1.45,1.023 l 10.422,8.411 c 0.206,0.063 0.409,0.115 0.611,0.16 0.204,0.045 0.406,0.084 0.607,0.115 0.203,0.031 0.403,0.055 0.601,0.067 0.2,0.017 0.398,0.022 0.595,0.022 0.541,0 1.074,-0.057 1.597,-0.172 0.52,-0.114 1.032,-0.289 1.533,-0.52 0.498,-0.227 0.985,-0.512 1.461,-0.852 0.473,-0.34 0.933,-0.732 1.381,-1.178 0.616,-0.619 1.13,-1.221 1.543,-1.803 0.41,-0.577 0.719,-1.136 0.929,-1.678 0.208,-0.538 0.323,-1.059 0.339,-1.564 0.018,-0.5 -0.061,-0.986 -0.231,-1.456 -0.171,-0.468 -0.452,-0.967 -0.842,-1.501 -0.387,-0.529 -0.88,-1.089 -1.479,-1.679 -0.593,-0.587 -1.29,-1.201 -2.086,-1.847 -0.788,-0.638 -1.677,-1.304 -2.66,-1.995 -0.892,-0.627 -1.729,-1.178 -2.517,-1.656 -0.783,-0.473 -1.518,-0.873 -2.206,-1.202 -0.684,-0.328 -1.324,-0.585 -1.921,-0.775 -0.595,-0.188 -1.149,-0.308 -1.663,-0.36 -0.054,-0.006 -0.107,-0.011 -0.161,-0.015 -0.054,-0.004 -0.107,-0.007 -0.161,-0.01 -0.054,-0.003 -0.107,-0.004 -0.162,-0.006 -0.054,0.003 -0.107,0.003 -0.161,0.003"
             id="path5" />
          <linearGradient
             id="linearGradient23"
             gradientUnits="userSpaceOnUse"
             x1="14.1406"
             y1="25.290501"
             x2="66.363503"
             y2="30.936199"
             gradientTransform="matrix(1,0,0,-1,0,72.0322)">
            <stop
               offset="0"
               style="stop-color:#F08C21"
               id="stop22" />
            <stop
               offset="1"
               style="stop-color:#A84A25"
               id="stop23" />
          </linearGradient>
          <path
             style="fill:url(#SVGID_3_)"
             d="m 37.982,35.977 0.606,0.507 12.322,10.472 4.275,-4.258 -13.512,-10.906 c -1.012,-0.817 -2.016,-1.417 -3.018,-1.807 -0.996,-0.386 -1.993,-0.569 -2.998,-0.546 -1.003,0.022 -2.021,0.25 -3.057,0.683 -1.04,0.438 -2.106,1.087 -3.201,1.951 -0.76,0.602 -1.395,1.209 -1.9,1.824 -0.511,0.619 -0.893,1.245 -1.14,1.879 -0.251,0.641 -0.368,1.284 -0.35,1.938 0.018,0.66 0.175,1.328 0.473,2.002 l -0.122,0.066 -9.859,-9.237 -4.931,3.59 26.132,26 5.03,-5.016 -11.494,-10.762 c -0.794,-0.744 -1.381,-1.479 -1.761,-2.203 -0.376,-0.717 -0.55,-1.424 -0.524,-2.12 0.026,-0.691 0.248,-1.373 0.661,-2.043 0.411,-0.666 1.011,-1.322 1.798,-1.97 0.57,-0.467 1.132,-0.817 1.686,-1.051 0.553,-0.233 1.099,-0.349 1.641,-0.354 0.543,-0.002 1.082,0.107 1.621,0.333 0.54,0.224 1.08,0.565 1.622,1.028"
             id="path7" />
        </g>
        <radialGradient
           id="radialGradient32"
           cx="37.922401"
           cy="42.695801"
           r="37.226898"
           gradientTransform="matrix(1,0,0,-1,0,72.0322)"
           gradientUnits="userSpaceOnUse">
          <stop
             offset="0.3132"
             style="stop-color:#FFFFFF"
             id="stop24" />
          <stop
             offset="0.597"
             style="stop-color:#FBFAFA"
             id="stop25" />
          <stop
             offset="0.6992"
             style="stop-color:#EFEEED"
             id="stop26" />
          <stop
             offset="0.7721"
             style="stop-color:#E0DEDE"
             id="stop27" />
          <stop
             offset="0.8311"
             style="stop-color:#CCCACA"
             id="stop28" />
          <stop
             offset="0.8815"
             style="stop-color:#B6B3B3"
             id="stop29" />
          <stop
             offset="0.9262"
             style="stop-color:#9C9A9A"
             id="stop30" />
          <stop
             offset="0.9656"
             style="stop-color:#818080"
             id="stop31" />
          <stop
             offset="1"
             style="stop-color:#676868"
             id="stop32" />
        </radialGradient>
        <path
           style="display:inline;opacity:0.53;fill:url(#SVGID_4_);enable-background:new"
           d="m 38.582,45.102 c -14.462,0 -26.751,-9.305 -31.208,-22.255 -1.652,3.933 -2.567,8.249 -2.567,12.78 0,18.223 14.775,33 33,33 18.226,0 33,-14.777 33,-33 0,-3.764 -0.63,-7.377 -1.79,-10.746 C 64.021,36.76 52.276,45.102 38.582,45.102 Z"
           id="path16" />
      </g>
    </g>
    <g
       inkscape:groupmode="layer"
       id="g41"
       inkscape:label="New Text White"
       transform="matrix(0.26458333,0,0,0.26458333,170.29774,71.246206)"
       style="display:inline">
      <g
         id="text39"
         style="font-size:38.889px;letter-spacing:1.75px;display:none;stroke-width:1.30626"
         inkscape:label="Heath Bishop"
         transform="scale(1.103657,0.90607858)"
         aria-label="HEATH BISHOP">
        <path
           style="font-family:EuroStyle;-inkscape-font-specification:EuroStyle;fill:#ffffff"
           d="m -490.19416,-264.11782 v 23.8404 h -2.72488 v -11.04197 h -13.91877 v 11.04197 h -2.64893 v -23.8404 h 2.64893 v 10.50079 h 13.91877 v -10.50079 z m 5.75663,2.41157 v 8.05124 h 12.13383 v 2.25967 h -12.13383 v 8.7823 h 12.67501 v 2.33562 h -15.28596 v -23.8404 h 15.28596 v 2.41157 z"
           id="path1" />
        <path
           style="letter-spacing:-2.96052px;fill:#ffffff"
           d="m -452.07763,-245.3759 h -11.98191 l -1.78494,5.09848 h -2.8768 l 8.70635,-23.8404 h 3.81674 l 8.82028,23.8404 h -2.80084 z m -0.70258,-2.13624 -5.28837,-14.65933 -5.2504,14.65933 z"
           id="path2" />
        <path
           style="letter-spacing:1.50026px;fill:#ffffff"
           d="m -438.93567,-261.55434 v 21.27692 h -2.72489 v -21.27692 h -7.69995 v -2.56348 h 18.04883 v 2.56348 z m 29.57516,-2.56348 v 23.8404 h -2.72489 v -11.04197 h -13.91877 v 11.04197 h -2.64893 v -23.8404 h 2.64893 v 10.50079 h 13.91877 v -10.50079 z"
           id="path3" />
        <path
           style="letter-spacing:3.11055px;fill:#ffffff"
           d="m -392.8078,-240.27742 v -23.8404 h 11.43124 q 2.16472,0 3.49393,0.55067 1.32921,0.54118 1.96534,1.83242 0.64562,1.28174 0.64562,3.53191 0,2.30714 -0.59815,3.53191 -0.58865,1.22478 -2.51601,1.8704 2.26915,0.64561 3.0382,1.91786 0.77854,1.26276 0.77854,3.7218 0,2.25017 -0.56966,3.75978 -0.56017,1.5096 -1.91787,2.31663 -1.3482,0.80702 -3.65534,0.80702 z m 12.01989,-11.04197 h -9.38045 v 8.70635 h 7.31067 q 2.29764,0 3.3895,-0.25635 1.09185,-0.25635 1.59505,-1.1868 0.50321,-0.93044 0.50321,-2.99073 0,-2.12674 -0.66461,-3.1996 -0.66461,-1.07287 -2.75337,-1.07287 z m -0.93995,-10.42483 h -8.4405 v 8.01326 h 7.51005 q 1.81343,0 2.80085,-0.36079 0.99691,-0.36079 1.40517,-1.28174 0.41775,-0.92096 0.41775,-2.63944 0,-2.17421 -0.76905,-2.95275 -0.75955,-0.77854 -2.92427,-0.77854 z m 14.1905,-2.3736 v 23.8404 h -2.67742 v -23.8404 z"
           id="path4" />
        <path
           style="letter-spacing:2.49044px;fill:#ffffff"
           d="m -345.95073,-257.54771 h -2.60146 q -0.10444,-1.84191 -0.48422,-2.76286 -0.37977,-0.92096 -1.30073,-1.29124 -0.92095,-0.37977 -2.76287,-0.37977 h -1.36719 q -3.67432,0 -4.86112,0.74056 -1.28174,0.78803 -1.28174,3.30404 0,1.41467 0.26584,2.25967 0.27534,0.8355 1.04438,1.31022 0.77854,0.46523 2.23118,0.56017 0.24686,0.019 3.50343,0.13292 3.25657,0.11394 4.74719,0.56017 1.50012,0.44624 2.41158,1.82292 0.92095,1.3672 0.92095,4.05411 0,2.07927 -0.3418,3.48444 -0.34179,1.39567 -1.38618,2.30713 -1.04438,0.90197 -3.08567,1.09185 -1.94635,0.18989 -4.55731,0.18989 -2.16472,0 -3.61736,-0.18989 -1.45264,-0.19938 -2.58247,-0.8355 -1.12034,-0.63612 -1.73747,-1.94635 -0.61714,-1.31022 -0.61714,-3.44646 0,-0.19938 0.019,-0.56017 0.019,-0.36079 0.019,-0.56017 h 2.57298 q 0,2.25966 0.37028,3.32304 0.37978,1.06337 1.44315,1.48112 1.06337,0.40826 3.31354,0.40826 h 2.22168 q 2.15523,0 3.23759,-0.27534 1.08236,-0.28483 1.56657,-1.22477 0.48421,-0.94944 0.48421,-2.98124 0,-1.66152 -0.28483,-2.48753 -0.27533,-0.83551 -1.06337,-1.1868 -0.78803,-0.35129 -2.38309,-0.40826 -2.25017,-0.0949 -4.40539,-0.20887 -2.15523,-0.11394 -3.67433,-0.63613 -1.5191,-0.52219 -2.42107,-1.91786 -0.90196,-1.40517 -0.90196,-3.99714 0,-2.72489 0.96842,-4.12056 0.96843,-1.39568 2.7059,-1.84191 1.73747,-0.45573 4.50034,-0.45573 h 0.61714 q 2.21219,0 3.65533,0.1709 1.45264,0.1614 2.56349,0.75955 1.11084,0.59814 1.71848,1.89887 0.61714,1.29124 0.61714,3.46545 z m 23.53,-6.57011 v 23.8404 h -2.72489 v -11.04197 h -13.91877 v 11.04197 h -2.64893 v -23.8404 h 2.64893 v 10.50079 h 13.91877 v -10.50079 z m 3.8861,12.33321 v -1.40517 q 0,-3.00023 0.1709,-4.84214 0.18039,-1.8514 0.89247,-3.29455 0.72157,-1.44315 2.32613,-2.25017 1.60455,-0.81652 4.3959,-0.81652 h 1.12033 q 2.75337,0 4.47186,0.25635 1.71848,0.24686 2.89579,1.03489 1.18679,0.77854 1.79443,2.40208 0.60764,1.62354 0.60764,4.35792 0,5.60169 -0.0475,8.51646 -0.057,2.23118 -0.48421,3.69332 -0.41775,1.46213 -1.33871,2.38309 -0.91146,0.91146 -2.44006,1.32921 -1.5191,0.41776 -3.77876,0.41776 -0.3323,0 -0.97792,-0.0475 -0.64562,-0.038 -1.08236,-0.038 -2.17422,0 -3.65534,-0.27534 -1.47163,-0.27534 -2.49702,-1.0064 -1.0254,-0.74057 -1.60455,-2.12675 -0.56967,-1.39567 -0.6836,-3.62685 -0.0854,-1.59506 -0.0854,-4.66174 z m 2.76287,-0.12343 v 3.81674 q 0.057,2.39259 0.4937,3.59837 0.44624,1.1963 1.62354,1.68051 1.17731,0.47472 3.5604,0.47472 2.31663,0 3.60786,-0.14242 1.29124,-0.15191 2.14574,-0.72157 0.85449,-0.56966 1.27224,-1.79444 0.42725,-1.22477 0.48422,-3.37051 0.076,-2.60146 0.076,-7.85185 0,-2.83882 -0.64562,-4.0636 -0.64561,-1.23427 -1.97483,-1.5191 -1.31972,-0.29433 -4.30096,-0.29433 h -0.93044 q -2.22169,0 -3.31355,0.39877 -1.08235,0.39876 -1.54758,1.61404 -0.46522,1.21528 -0.5127,3.82624 z m 19.56135,11.63062 v -23.8404 h 11.12742 q 1.55708,0 2.7059,0.22787 1.15832,0.22786 1.99382,0.97792 1.16781,1.05387 1.55708,2.62994 0.38927,1.56657 0.38927,3.58888 0,1.75646 -0.31331,3.12365 -0.30382,1.3577 -1.24377,2.25017 -0.65511,0.66461 -1.43365,1.0159 -0.77854,0.3418 -1.61405,0.47472 -0.8355,0.12343 -2.23118,0.15191 -1.38618,0.0285 -1.40517,0.0285 h -6.88342 v 9.37096 z m 2.64894,-11.63062 h 6.33275 q 2.42107,0 3.62685,-0.27534 1.20579,-0.27534 1.80394,-1.30073 0.59814,-1.03489 0.59814,-3.24708 0,-1.87039 -0.26584,-2.91477 -0.25635,-1.05388 -1.11084,-1.57607 -0.8545,-0.52219 -2.58247,-0.52219 h -8.40253 z"
           id="path6" />
      </g>
      <g
         id="text41"
         style="font-size:29.8001px;letter-spacing:1.34101px;display:none;fill:#d56329;stroke-width:1.00097"
         inkscape:label="React Developer"
         transform="scale(1.1147205,0.89708587)"
         aria-label="REACT DEVELOPER">
        <path
           style="fill:#d57428"
           d="m -504.47056,-211.16179 v -18.26857 h 8.6141 q 2.87378,0 4.11788,1.20772 1.2441,1.20045 1.2441,4.09606 0,1.52784 -0.16006,2.38634 -0.16006,0.85122 -0.84395,1.49873 -0.67661,0.64751 -2.15352,0.91671 2.91744,0.20371 2.91744,3.48492 v 4.67809 h -2.11715 v -4.20519 q 0,-1.76065 -0.80757,-2.47364 -0.80757,-0.71299 -2.61915,-0.71299 h -6.19865 v 7.39182 z m 1.99347,-9.08699 h 5.92946 q 1.44053,0 2.27721,-0.26919 0.83667,-0.26919 1.22954,-1.00401 0.40015,-0.74209 0.40015,-2.09532 0,-1.54239 -0.19644,-2.34996 -0.19643,-0.80757 -0.88032,-1.22227 -0.68389,-0.42197 -2.13897,-0.42197 h -6.62063 z m 16.21196,-7.33362 v 6.16955 h 9.29798 v 1.73155 h -9.29798 v 6.72976 h 9.71268 v 1.78975 h -11.71342 v -18.26857 h 11.71342 v 1.84796 z m 24.79694,12.51371 h -9.18157 l -1.36778,3.9069 h -2.20445 l 6.67156,-18.26857 h 2.92471 l 6.75886,18.26857 h -2.14624 z m -0.53838,-1.63697 -4.0524,-11.23324 -4.02331,11.23324 z m 18.78018,-0.65478 h 2.02257 q 0,0.28374 0.0437,0.85122 0.0437,0.56748 0.0437,0.85122 0,4.11789 -4.0524,4.49621 -1.46964,0.0873 -2.91745,0.0873 h -2.56094 q -1.94254,-0.14551 -3.0193,-0.96036 -1.06948,-0.82212 -1.49146,-2.09532 -0.42197,-1.28047 -0.48745,-3.07022 -0.0655,-1.78976 -0.10186,-3.0775 v -2.89562 q 0,-1.82613 0.39287,-3.09933 0.40015,-1.28047 1.42599,-2.05894 1.03311,-0.78574 2.85923,-0.9749 1.13497,-0.15279 3.55041,-0.15279 1.92798,0 3.03385,0.21826 1.11313,0.21827 1.75337,0.80758 0.64024,0.5893 0.93853,1.70244 0.29829,1.10587 0.4147,3.05568 h -2.02984 q 0,-1.56422 -0.21099,-2.37179 -0.20371,-0.81484 -0.90215,-1.21499 -0.69117,-0.40743 -2.1317,-0.40743 -1.717,0 -3.84869,0.14551 -1.30958,0.10913 -1.97892,0.60386 -0.66206,0.48745 -0.88032,1.34595 -0.21099,0.85123 -0.21099,2.31359 v 4.20519 q 0,3.73228 0.72027,5.03458 0.64751,1.16407 3.63043,1.16407 0.21826,0 0.79302,0.0291 0.57476,0.0291 0.90943,0.0291 1.8625,0 3.0775,-0.50928 1.21499,-0.51655 1.2732,-1.99346 0,-0.3565 -0.0291,-1.04766 -0.0291,-0.69116 -0.0291,-1.01128 z m 12.27596,-10.10555 v 16.3042 h -2.08804 v -16.3042 h -5.90037 v -1.96437 h 13.83057 v 1.96437 z"
           id="path8" />
        <path
           style="fill:#ffffff"
           d="m -413.33926,-211.16179 v -18.26857 h 8.43221 q 2.00801,0 3.31031,0.49473 1.30958,0.48745 2.02984,1.45508 0.72754,0.96764 1.01856,2.38634 0.29102,1.41143 0.29102,3.47037 v 1.73155 q 0,2.75739 -0.39288,4.59079 -0.39287,1.8334 -1.73882,2.9902 -1.34595,1.14951 -4.00875,1.14951 z m 1.99347,-1.78975 h 5.96584 q 1.45508,0 2.45181,-0.19644 0.99673,-0.19643 1.60059,-0.93125 1.04039,-1.37505 1.04039,-5.10007 v -0.86577 q 0,-2.91744 -0.21099,-4.28522 -0.24009,-1.96436 -1.32413,-2.6046 -1.08403,-0.64751 -3.14298,-0.64751 h -6.38053 z m 17.31782,-14.63086 v 6.16955 h 9.29798 v 1.73155 h -9.29798 v 6.72976 h 9.71268 v 1.78975 h -11.71342 v -18.26857 h 11.71342 v 1.84796 z m 25.72093,-1.84796 h 2.20445 l -6.43874,18.26857 h -2.94655 l -6.49694,-18.26857 h 2.20445 l 5.77668,16.6316 z m 6.52838,1.84796 v 6.16955 h 9.29798 v 1.73155 h -9.29798 v 6.72976 h 9.71268 v 1.78975 h -11.71342 v -18.26857 h 11.71342 v 1.84796 z m 14.2476,-1.84796 v 16.36241 h 9.23977 v 1.90616 h -11.44423 v -18.26857 z m 11.43928,9.45077 v -1.07676 q 0,-2.29903 0.13096,-3.71047 0.13823,-1.4187 0.68389,-2.52456 0.55293,-1.10587 1.78247,-1.72428 1.22955,-0.62568 3.36852,-0.62568 h 0.8585 q 2.10987,0 3.42672,0.19643 1.31685,0.18916 2.219,0.79302 0.90943,0.59659 1.37505,1.84068 0.46563,1.2441 0.46563,3.33942 0,4.29249 -0.0364,6.52605 -0.0436,1.70972 -0.37104,2.83013 -0.32012,1.12042 -1.02584,1.82613 -0.69844,0.69844 -1.86978,1.01856 -1.16406,0.32012 -2.89561,0.32012 -0.25464,0 -0.74937,-0.0364 -0.49473,-0.0291 -0.8294,-0.0291 -1.66607,0 -2.80103,-0.21099 -1.12769,-0.21098 -1.91344,-0.77119 -0.78574,-0.56748 -1.22954,-1.62969 -0.43653,-1.06949 -0.52383,-2.77921 -0.0655,-1.22227 -0.0655,-3.57223 z m 2.11714,-0.0946 v 2.92471 q 0.0437,1.83341 0.37833,2.75739 0.34194,0.9167 1.24409,1.28775 0.90215,0.36377 2.72828,0.36377 1.7752,0 2.76466,-0.10914 0.98946,-0.1164 1.64424,-0.55293 0.65479,-0.43652 0.97491,-1.37505 0.32739,-0.93853 0.37105,-2.58277 0.0582,-1.99347 0.0582,-6.01677 0,-2.17535 -0.49473,-3.11388 -0.49473,-0.9458 -1.51328,-1.16407 -1.01129,-0.22553 -3.29577,-0.22553 h -0.71299 q -1.70245,0 -2.53912,0.30556 -0.8294,0.30557 -1.18589,1.23683 -0.3565,0.93125 -0.39287,2.93199 z m 14.4222,8.91238 v -18.26857 h 8.52679 q 1.19317,0 2.07349,0.17461 0.88761,0.17461 1.52784,0.74937 0.89488,0.80757 1.19317,2.01529 0.29829,1.20044 0.29829,2.75011 0,1.34595 -0.24009,2.39361 -0.23281,1.04038 -0.95308,1.72427 -0.502,0.50928 -1.09858,0.77847 -0.59659,0.26192 -1.23682,0.36377 -0.64024,0.0946 -1.70973,0.11641 -1.06221,0.0218 -1.07676,0.0218 h -5.27467 v 7.18083 z m 2.02985,-8.91238 h 4.8527 q 1.85523,0 2.77921,-0.21099 0.92397,-0.21099 1.38233,-0.99673 0.45835,-0.79302 0.45835,-2.48819 0,-1.43326 -0.20372,-2.23356 -0.19643,-0.80757 -0.85122,-1.20771 -0.65479,-0.40015 -1.97891,-0.40015 h -6.43874 z m 15.73178,-7.50823 v 6.16955 h 9.29798 v 1.73155 h -9.29798 v 6.72976 h 9.71268 v 1.78975 h -11.71342 v -18.26857 h 11.71342 v 1.84796 z m 12.10135,16.42061 v -18.26857 h 8.61409 q 2.87379,0 4.11789,1.20772 1.24409,1.20045 1.24409,4.09606 0,1.52784 -0.16006,2.38634 -0.16005,0.85122 -0.84394,1.49873 -0.67662,0.64751 -2.15353,0.91671 2.91745,0.20371 2.91745,3.48492 v 4.67809 h -2.11715 v -4.20519 q 0,-1.76065 -0.80757,-2.47364 -0.80757,-0.71299 -2.61915,-0.71299 h -6.19865 v 7.39182 z m 1.99347,-9.08699 h 5.92946 q 1.44053,0 2.2772,-0.26919 0.83668,-0.26919 1.22955,-1.00401 0.40015,-0.74209 0.40015,-2.09532 0,-1.54239 -0.19644,-2.34996 -0.19644,-0.80757 -0.88032,-1.22227 -0.68389,-0.42197 -2.13898,-0.42197 h -6.62062 z"
           id="path9" />
      </g>
    </g>
  </g>
  <rect
     x="79.492996"
     y="42.175999"
     style="display:inline;fill:url(#SVGID_1_);stroke-width:1.00074"
     width="259"
     height="2.5569999"
     id="rect3"
     inkscape:label="Divider"
     transform="matrix(0.26458333,0,0,0.26458333,1.3229997e-7,3.6501917)" />
  <g
     inkscape:groupmode="layer"
     id="layer2"
     inkscape:label="Bottom"
     style="display:inline">
    <path
       d="M 21.38718,16.884864 V 18.4198 h 2.14502 v 0.420869 h -2.14502 v 2.035382 h -0.505751 v -4.44035 h 2.7162 v 0.449163 z m 2.720834,3.991187 v -4.44035 h 2.093738 q 0.698502,0 1.000891,0.293547 0.302389,0.29178 0.302389,0.995587 0,0.371355 -0.0389,0.580021 -0.0389,0.206899 -0.20513,0.364283 -0.164458,0.157383 -0.523434,0.222813 0.709112,0.04951 0.709112,0.847044 v 1.137055 h -0.514593 v -1.022112 q 0,-0.427943 -0.196288,-0.601242 -0.196288,-0.173299 -0.636609,-0.173299 h -1.506642 v 1.796653 z m 0.484531,-2.208681 h 1.441213 q 0.350135,0 0.553496,-0.06543 0.203361,-0.06543 0.298853,-0.244034 0.09726,-0.180372 0.09726,-0.509287 0,-0.374892 -0.04774,-0.57118 -0.04775,-0.196288 -0.213972,-0.297085 -0.166225,-0.102565 -0.519897,-0.102565 h -1.609207 z m 3.39281,0.06543 v -0.261717 q 0,-0.558801 0.03183,-0.901863 0.0336,-0.34483 0.166225,-0.613621 0.134396,-0.26879 0.433248,-0.419101 0.298853,-0.152079 0.818751,-0.152079 h 0.208666 q 0.512824,0 0.832897,0.04775 0.320073,0.04598 0.53935,0.192751 0.221045,0.145006 0.33422,0.447395 0.113175,0.302389 0.113175,0.811677 0,1.043332 -0.0088,1.586218 -0.01061,0.415565 -0.09019,0.687892 -0.07781,0.272327 -0.249339,0.443858 -0.169762,0.169763 -0.454468,0.247571 -0.282938,0.07781 -0.703807,0.07781 -0.06189,0 -0.182141,-0.0088 -0.120249,-0.0071 -0.201593,-0.0071 -0.404955,0 -0.680819,-0.05128 -0.274095,-0.05128 -0.465078,-0.187446 -0.190983,-0.137932 -0.298853,-0.396113 -0.106101,-0.259949 -0.127322,-0.675513 -0.01592,-0.297084 -0.01592,-0.868265 z m 0.514593,-0.02299 v 0.71088 q 0.01061,0.445627 0.09195,0.670208 0.08311,0.222814 0.30239,0.313 0.219276,0.08842 0.663135,0.08842 0.431479,0 0.671976,-0.02652 0.240497,-0.02829 0.399649,-0.134396 0.159153,-0.106101 0.23696,-0.33422 0.07958,-0.228118 0.09019,-0.627767 0.01415,-0.484531 0.01415,-1.462433 0,-0.52874 -0.120249,-0.756858 -0.120248,-0.229887 -0.367819,-0.282938 -0.245801,-0.05482 -0.801066,-0.05482 h -0.1733 q -0.413796,0 -0.617157,0.07427 -0.201593,0.07427 -0.288243,0.300621 -0.08665,0.22635 -0.09549,0.712649 z m 7.276127,-2.27411 v 4.44035 H 34.964398 L 32.47278,16.863644 v 4.012407 h -0.484531 v -4.44035 h 0.804604 l 2.498692,4.056616 v -4.056616 z m 2.409603,0.477457 V 20.87605 H 37.678159 V 16.913158 H 36.24402 v -0.477457 h 3.361651 v 0.477457 z m 1.893242,2.116726 h 1.543778 v 0.440321 H 40.07892 Z m 2.531621,-2.14502 v 1.499569 h 2.259963 v 0.420869 h -2.259963 v 1.635733 h 2.36076 V 20.87605 H 42.124242 V 16.4357 h 2.847059 v 0.449163 z m 6.66781,-0.449163 v 4.44035 h -0.811676 l -2.491619,-4.012407 v 4.012407 h -0.48453 V 16.4357 h 0.804603 l 2.498692,4.056616 V 16.4357 Z m 0.526301,4.44035 V 16.4357 h 2.049528 q 0.488067,0 0.804604,0.120248 0.318304,0.11848 0.493372,0.353672 0.176836,0.235192 0.24757,0.580022 0.07073,0.343062 0.07073,0.843507 v 0.42087 q 0,0.670208 -0.09549,1.115834 -0.09549,0.445627 -0.422638,0.726796 -0.327146,0.279401 -0.974366,0.279401 z m 0.48453,-0.435016 h 1.450055 q 0.353672,0 0.595937,-0.04775 0.242265,-0.04775 0.389039,-0.22635 0.252875,-0.33422 0.252875,-1.23962 v -0.210435 q 0,-0.709112 -0.05128,-1.041563 -0.05836,-0.477457 -0.321841,-0.633073 -0.263486,-0.157384 -0.763932,-0.157384 h -1.550851 z"
       id="path14"
       style="font-size:7.2432px;font-family:EuroStyle;-inkscape-font-specification:'EuroStyle, Normal';letter-spacing:0.264583px;display:none;fill:#e98622;stroke-width:0.725853;stroke-linecap:round;stroke-linejoin:round"
       inkscape:label="Front E" />
    <path
       style="font-size:7.2432px;font-family:EuroStyle;-inkscape-font-specification:'EuroStyle, Normal';letter-spacing:0.264583px;display:inline;fill:#ffffff;stroke-width:0.714258;stroke-linecap:round;stroke-linejoin:round"
       d="m 56.671695,20.804301 v -4.369419 h 2.01679 q 0.480271,0 0.79175,0.118327 0.313221,0.116587 0.485491,0.348022 0.174011,0.231435 0.243616,0.570757 0.0696,0.337582 0.0696,0.830033 v 0.414147 q 0,0.659502 -0.09396,1.098009 -0.09397,0.438509 -0.415887,0.715186 -0.321921,0.274938 -0.958801,0.274938 z m 0.476791,-0.428067 h 1.426891 q 0.348022,0 0.586418,-0.04699 0.238395,-0.04699 0.382824,-0.222734 0.248837,-0.328881 0.248837,-1.219818 v -0.207074 q 0,-0.697785 -0.05046,-1.024925 -0.05743,-0.46983 -0.3167,-0.62296 -0.259277,-0.15487 -0.751728,-0.15487 H 57.14849 Z m 4.081639,-3.499364 v 1.475615 h 2.223863 v 0.414146 h -2.223863 v 1.609603 h 2.323049 v 0.428067 h -2.801579 v -4.369419 h 2.801579 v 0.441988 z m 6.091471,-0.441988 h 0.527253 l -1.539999,4.369419 h -0.704744 l -1.55392,-4.369419 h 0.527254 l 1.381648,3.977894 z m 1.501055,0.441988 v 1.475615 h 2.223863 v 0.414146 h -2.223863 v 1.609603 H 71.1457 v 0.428067 H 68.344121 V 16.434882 H 71.1457 v 0.441988 z m 3.347314,-0.441988 v 3.91351 h 2.209943 v 0.455909 h -2.737196 v -4.369419 z m 2.675632,2.260404 v -0.257537 q 0,-0.549874 0.03132,-0.887456 0.03306,-0.339322 0.16357,-0.603819 0.132249,-0.264496 0.426327,-0.412406 0.294079,-0.14965 0.805673,-0.14965 h 0.205332 q 0.504632,0 0.819592,0.04699 0.314961,0.04525 0.530735,0.189672 0.217514,0.14269 0.328881,0.440248 0.111367,0.297559 0.111367,0.798712 0,1.026665 -0.0087,1.560879 -0.01044,0.408927 -0.08875,0.676904 -0.07657,0.267977 -0.245356,0.436768 -0.16705,0.167051 -0.447208,0.243616 -0.278418,0.07657 -0.692564,0.07657 -0.0609,0 -0.179232,-0.0087 -0.118328,-0.007 -0.198372,-0.007 -0.398487,0 -0.669944,-0.05046 -0.269717,-0.05046 -0.457649,-0.184452 -0.187932,-0.135728 -0.294079,-0.389785 -0.104406,-0.255797 -0.125288,-0.664722 -0.01566,-0.292339 -0.01566,-0.854396 z m 0.506373,-0.02262 v 0.699524 q 0.01044,0.438509 0.09048,0.659502 0.08178,0.219255 0.297559,0.308 0.215774,0.08701 0.652542,0.08701 0.424587,0 0.661242,-0.0261 0.236656,-0.02784 0.393265,-0.13225 0.156611,-0.104406 0.233175,-0.328881 0.07831,-0.224474 0.08875,-0.617739 0.01392,-0.476791 0.01392,-1.439072 0,-0.520293 -0.118328,-0.744767 -0.118327,-0.226215 -0.361943,-0.278419 -0.241876,-0.05394 -0.78827,-0.05394 H 76.34383 q -0.407186,0 -0.607298,0.07308 -0.198373,0.07308 -0.283639,0.295818 -0.08527,0.222735 -0.09396,0.701265 z m 3.389079,2.131636 V 16.43488 h 2.039411 q 0.285378,0 0.495931,0.04176 0.212294,0.04176 0.365424,0.179231 0.214033,0.193153 0.285378,0.482012 0.07134,0.287118 0.07134,0.657762 0,0.32192 -0.05742,0.572496 -0.05569,0.248836 -0.227955,0.412407 -0.120067,0.121807 -0.262757,0.186191 -0.142688,0.06264 -0.295819,0.08701 -0.153129,0.02262 -0.408925,0.02784 -0.254057,0.0052 -0.257537,0.0052 h -1.261581 v 1.71749 z m 0.485491,-2.131636 h 1.160655 q 0.443728,0 0.664722,-0.05046 0.220995,-0.05046 0.330621,-0.238395 0.109627,-0.189672 0.109627,-0.595118 0,-0.342802 -0.04872,-0.534214 -0.04699,-0.193152 -0.203593,-0.288859 -0.15661,-0.09571 -0.47331,-0.09571 h -1.539999 z m 3.702294,-1.795795 v 1.475615 h 2.223862 v 0.414146 h -2.223862 v 1.609603 h 2.323049 v 0.428067 h -2.80158 V 16.43488 h 2.80158 v 0.441988 z m 2.833982,3.927431 V 16.43488 h 2.060291 q 0.687345,0 0.984904,0.288858 0.297559,0.287119 0.297559,0.979683 0,0.365423 -0.03828,0.570756 -0.03828,0.203594 -0.201852,0.358464 -0.161831,0.154869 -0.515074,0.219253 0.697785,0.04872 0.697785,0.833514 v 1.118891 h -0.506376 v -1.005784 q 0,-0.421107 -0.193152,-0.591638 -0.193153,-0.170531 -0.626441,-0.170531 h -1.482575 v 1.767953 z m 0.47679,-2.173399 h 1.418191 q 0.344542,0 0.544655,-0.06439 0.200113,-0.06438 0.294079,-0.240136 0.09571,-0.17749 0.09571,-0.501151 0,-0.368904 -0.04699,-0.562056 -0.04699,-0.193153 -0.210553,-0.29234 -0.163567,-0.100923 -0.51159,-0.100923 h -1.583501 z"
       id="path15"
       inkscape:label="Developer" />
    <path
       d="m 21.378447,16.921694 v 1.471288 h 2.056074 V 18.7964 h -2.056074 v 1.950983 h -0.484779 v -4.256227 h 2.60357 v 0.430538 z m 2.875114,3.825689 v -4.256227 h 2.006919 q 0.669538,0 0.959389,0.281376 0.28985,0.279679 0.28985,0.954303 0,0.355957 -0.0373,0.555971 -0.03729,0.198318 -0.196623,0.349176 -0.157638,0.150858 -0.50173,0.213574 0.679708,0.04746 0.679708,0.811921 v 1.089906 H 26.96052 v -0.979729 q 0,-0.410198 -0.188149,-0.576311 -0.188148,-0.166113 -0.610212,-0.166113 h -1.444168 v 1.722153 z M 24.718,18.630287 h 1.381452 q 0.335616,0 0.530546,-0.06271 0.194928,-0.06271 0.28646,-0.233915 0.09323,-0.172893 0.09323,-0.488169 0,-0.359347 -0.04577,-0.547495 -0.04577,-0.188149 -0.205099,-0.284766 -0.159333,-0.09831 -0.49834,-0.09831 h -1.54248 z m 3.519228,0.06271 v -0.250865 q 0,-0.53563 0.0305,-0.864467 0.03221,-0.330531 0.159333,-0.588175 0.128823,-0.257646 0.415284,-0.401723 0.28646,-0.145773 0.7848,-0.145773 h 0.200013 q 0.49156,0 0.798361,0.04577 0.3068,0.04407 0.516984,0.184759 0.21188,0.138993 0.320362,0.428843 0.108482,0.289851 0.108482,0.778021 0,1.000069 -0.0085,1.520444 -0.01017,0.398332 -0.08645,0.659368 -0.07458,0.261034 -0.238999,0.425453 -0.162723,0.162723 -0.435623,0.237304 -0.271206,0.07458 -0.674623,0.07458 -0.05933,0 -0.174589,-0.0085 -0.115261,-0.0068 -0.193234,-0.0068 -0.388162,0 -0.652587,-0.04915 -0.26273,-0.04915 -0.445793,-0.179674 -0.183063,-0.132212 -0.286461,-0.379687 -0.101702,-0.24917 -0.122042,-0.647503 -0.01525,-0.284765 -0.01525,-0.832261 z m 0.493254,-0.02203 v 0.681403 q 0.01018,0.427148 0.08814,0.642417 0.07967,0.213574 0.289851,0.300021 0.210184,0.08475 0.635637,0.08475 0.413587,0 0.644112,-0.02543 0.230525,-0.02712 0.383077,-0.128822 0.152554,-0.101702 0.227135,-0.320361 0.07627,-0.21866 0.08645,-0.601737 0.01356,-0.464439 0.01356,-1.401792 0,-0.506815 -0.115262,-0.725474 -0.115263,-0.220354 -0.352567,-0.271206 -0.23561,-0.05255 -0.76785,-0.05255 h -0.166113 q -0.396638,0 -0.591566,0.07119 -0.193234,0.07119 -0.276291,0.288156 -0.08306,0.216964 -0.09153,0.683098 z m 7.241519,-2.179812 v 4.256227 h -0.77802 l -2.388302,-3.84603 v 3.84603 h -0.464438 v -4.256227 h 0.77124 l 2.395081,3.888405 v -3.888405 z m 2.576789,0.457659 v 3.798568 h -0.486475 v -3.798567 h -1.374671 v -0.457659 h 3.222258 v 0.457659 z m 2.081839,2.028954 h 1.479763 v 0.422063 h -1.479763 z m 2.693745,-2.056075 v 1.437387 h 2.166252 v 0.403419 h -2.166252 v 1.567905 h 2.262869 v 0.416978 H 42.85824 v -4.256227 h 2.729003 v 0.430538 z m 6.658428,-0.430538 v 4.256227 h -0.77802 l -2.388301,-3.84603 v 3.84603 h -0.464439 v -4.256227 h 0.77124 l 2.39508,3.888405 v -3.888405 z m 0.771579,4.256227 v -4.256227 h 1.964542 q 0.467829,0 0.771239,0.115262 0.305107,0.113568 0.472915,0.339007 0.169503,0.225439 0.237304,0.555971 0.0678,0.328836 0.0678,0.808529 v 0.403419 q 0,0.642417 -0.09153,1.069565 -0.09154,0.427149 -0.405113,0.696659 -0.313582,0.267815 -0.933964,0.267815 z m 0.464438,-0.416977 h 1.389927 q 0.339007,0 0.571226,-0.04577 0.232219,-0.04577 0.372907,-0.216964 0.24239,-0.320361 0.24239,-1.188218 v -0.201709 q 0,-0.679709 -0.04915,-0.998375 -0.05593,-0.457658 -0.308496,-0.606821 -0.252559,-0.150858 -0.732254,-0.150858 h -1.486547 z"
       id="text1-2"
       style="font-size:7.05556px;font-family:EuroStyle;-inkscape-font-specification:'EuroStyle, Normal';letter-spacing:0.529167px;display:inline;fill:#ffaf19;fill-opacity:1;stroke-width:0.984026;stroke-linecap:round;stroke-linejoin:round"
       inkscape:label="Front-End-old"
       aria-label="FRONT-END" />
    <path
       d="m 21.246273,16.819664 v 1.495172 h 2.089452 v 0.409967 h -2.089452 v 1.982654 h -0.492649 v -4.325321 h 2.645835 v 0.437528 z m 2.921788,3.887793 v -4.325321 h 2.039498 q 0.680406,0 0.974962,0.285944 0.294556,0.28422 0.294556,0.969795 0,0.361735 -0.0379,0.564996 -0.0379,0.201538 -0.199816,0.354845 -0.160197,0.153306 -0.509874,0.217041 0.690742,0.04823 0.690742,0.825101 v 1.107599 h -0.501262 v -0.995634 q 0,-0.416856 -0.191203,-0.585666 -0.191203,-0.16881 -0.620117,-0.16881 h -1.467612 v 1.75011 z m 0.471978,-2.151464 h 1.403877 q 0.341065,0 0.539158,-0.06373 0.198093,-0.06374 0.291111,-0.237712 0.09474,-0.1757 0.09474,-0.496094 0,-0.36518 -0.04651,-0.556383 -0.04651,-0.191203 -0.208428,-0.289389 -0.16192,-0.09991 -0.506429,-0.09991 h -1.56752 z m 3.576356,0.06373 V 18.36479 q 0,-0.544325 0.03101,-0.8785 0.03273,-0.335897 0.16192,-0.597724 0.130914,-0.261828 0.422024,-0.408244 0.291111,-0.14814 0.79754,-0.14814 h 0.203261 q 0.499539,0 0.811321,0.04651 0.311781,0.04479 0.525377,0.187758 0.215319,0.141249 0.325562,0.435805 0.110243,0.294556 0.110243,0.79065 0,1.016304 -0.0086,1.545126 -0.01034,0.404799 -0.08785,0.670072 -0.07579,0.265272 -0.242879,0.43236 -0.165365,0.165364 -0.442695,0.241156 -0.275608,0.07579 -0.685575,0.07579 -0.06029,0 -0.177422,-0.0086 -0.117134,-0.0069 -0.196371,-0.0069 -0.394463,0 -0.663181,-0.04995 -0.266995,-0.04995 -0.45303,-0.182591 -0.186036,-0.134358 -0.291111,-0.38585 -0.103353,-0.253215 -0.124024,-0.658014 -0.0155,-0.289388 -0.0155,-0.845772 z m 0.501262,-0.02239 v 0.692465 q 0.01034,0.434082 0.08957,0.652846 0.08096,0.217041 0.294555,0.304891 0.213597,0.08613 0.645956,0.08613 0.420302,0 0.654569,-0.02584 0.234266,-0.02756 0.389296,-0.130913 0.155029,-0.103353 0.230821,-0.325562 0.07751,-0.222209 0.08785,-0.611505 0.01378,-0.471978 0.01378,-1.424548 0,-0.515042 -0.117134,-0.737251 -0.117133,-0.223931 -0.35829,-0.275608 -0.239434,-0.0534 -0.780314,-0.0534 h -0.16881 q -0.403077,0 -0.60117,0.07235 -0.19637,0.07235 -0.280775,0.292834 -0.0844,0.220486 -0.09302,0.694187 z m 7.359074,-2.215198 v 4.325321 h -0.79065 l -2.427072,-3.908464 v 3.908464 h -0.471978 v -4.325321 h 0.78376 l 2.433961,3.951527 v -3.951527 z m 2.618619,0.465089 v 3.860232 h -0.494372 v -3.860232 h -1.396987 v -0.465089 h 3.274565 v 0.465089 z m 2.115633,2.061891 h 1.503786 v 0.428914 h -1.503786 z m 2.737475,-2.089452 v 1.460721 h 2.201417 v 0.409967 h -2.201417 v 1.593358 h 2.299603 v 0.423747 h -2.773304 v -4.325321 h 2.773304 v 0.437528 z m 6.766517,-0.437528 v 4.325321 h -0.79065 l -2.427072,-3.908464 v 3.908464 h -0.471978 v -4.325321 h 0.78376 l 2.433961,3.951527 v -3.951527 z m 0.784103,4.325321 v -4.325321 h 1.996434 q 0.475424,0 0.78376,0.117134 0.310059,0.115411 0.480591,0.34451 0.172255,0.229099 0.241157,0.564996 0.0689,0.334174 0.0689,0.821655 v 0.409967 q 0,0.652846 -0.09302,1.086928 -0.09302,0.434083 -0.411689,0.707968 -0.318671,0.272163 -0.949124,0.272163 z m 0.471979,-0.423747 h 1.41249 q 0.34451,0 0.580499,-0.04651 0.235989,-0.04651 0.37896,-0.220487 0.246325,-0.325561 0.246325,-1.207506 v -0.204984 q 0,-0.690742 -0.04995,-1.014581 -0.05684,-0.465088 -0.313504,-0.616672 -0.25666,-0.153307 -0.744141,-0.153307 h -1.510675 z"
       id="text1-24"
       style="font-size:7.05556px;font-family:EuroStyle;-inkscape-font-specification:'EuroStyle, Normal';letter-spacing:0.529167px;display:none;fill:#ffaf19;stroke:#ffaf19;stroke-width:0.264583;stroke-linecap:round;stroke-linejoin:round"
       inkscape:label="Front-End"
       aria-label="FRONT-END" />
  </g>
  <g
     id="text39-1"
     style="font-size:38.889px;letter-spacing:1.75px;display:inline;fill:#ffffff;stroke-width:1.30626"
     inkscape:label="Heath Bishop"
     transform="matrix(0.29200925,0,0,0.23973329,170.12638,71.373275)"
     aria-label="HEATH BISHOP">
    <path
       style="font-family:EuroStyle;-inkscape-font-specification:EuroStyle;fill:#ffffff"
       d="m -490.19416,-264.11782 v 23.8404 h -2.72488 v -11.04197 h -13.91877 v 11.04197 h -2.64893 v -23.8404 h 2.64893 v 10.50079 h 13.91877 v -10.50079 z m 5.75663,2.41157 v 8.05124 h 12.13383 v 2.25967 h -12.13383 v 8.7823 h 12.67501 v 2.33562 h -15.28596 v -23.8404 h 15.28596 v 2.41157 z"
       id="path1-7" />
    <path
       style="letter-spacing:-2.96052px;fill:#ffffff"
       d="m -452.07763,-245.3759 h -11.98191 l -1.78494,5.09848 h -2.8768 l 8.70635,-23.8404 h 3.81674 l 8.82028,23.8404 h -2.80084 z m -0.70258,-2.13624 -5.28837,-14.65933 -5.2504,14.65933 z"
       id="path2-9" />
    <path
       style="letter-spacing:1.50026px;fill:#ffffff"
       d="m -438.93567,-261.55434 v 21.27692 h -2.72489 v -21.27692 h -7.69995 v -2.56348 h 18.04883 v 2.56348 z m 29.57516,-2.56348 v 23.8404 h -2.72489 v -11.04197 h -13.91877 v 11.04197 h -2.64893 v -23.8404 h 2.64893 v 10.50079 h 13.91877 v -10.50079 z"
       id="path3-5" />
    <path
       style="letter-spacing:3.11055px;fill:#ffffff"
       d="m -392.8078,-240.27742 v -23.8404 h 11.43124 q 2.16472,0 3.49393,0.55067 1.32921,0.54118 1.96534,1.83242 0.64562,1.28174 0.64562,3.53191 0,2.30714 -0.59815,3.53191 -0.58865,1.22478 -2.51601,1.8704 2.26915,0.64561 3.0382,1.91786 0.77854,1.26276 0.77854,3.7218 0,2.25017 -0.56966,3.75978 -0.56017,1.5096 -1.91787,2.31663 -1.3482,0.80702 -3.65534,0.80702 z m 12.01989,-11.04197 h -9.38045 v 8.70635 h 7.31067 q 2.29764,0 3.3895,-0.25635 1.09185,-0.25635 1.59505,-1.1868 0.50321,-0.93044 0.50321,-2.99073 0,-2.12674 -0.66461,-3.1996 -0.66461,-1.07287 -2.75337,-1.07287 z m -0.93995,-10.42483 h -8.4405 v 8.01326 h 7.51005 q 1.81343,0 2.80085,-0.36079 0.99691,-0.36079 1.40517,-1.28174 0.41775,-0.92096 0.41775,-2.63944 0,-2.17421 -0.76905,-2.95275 -0.75955,-0.77854 -2.92427,-0.77854 z m 14.1905,-2.3736 v 23.8404 h -2.67742 v -23.8404 z"
       id="path4-1" />
    <path
       style="letter-spacing:2.49044px;fill:#ffffff"
       d="m -345.95073,-257.54771 h -2.60146 q -0.10444,-1.84191 -0.48422,-2.76286 -0.37977,-0.92096 -1.30073,-1.29124 -0.92095,-0.37977 -2.76287,-0.37977 h -1.36719 q -3.67432,0 -4.86112,0.74056 -1.28174,0.78803 -1.28174,3.30404 0,1.41467 0.26584,2.25967 0.27534,0.8355 1.04438,1.31022 0.77854,0.46523 2.23118,0.56017 0.24686,0.019 3.50343,0.13292 3.25657,0.11394 4.74719,0.56017 1.50012,0.44624 2.41158,1.82292 0.92095,1.3672 0.92095,4.05411 0,2.07927 -0.3418,3.48444 -0.34179,1.39567 -1.38618,2.30713 -1.04438,0.90197 -3.08567,1.09185 -1.94635,0.18989 -4.55731,0.18989 -2.16472,0 -3.61736,-0.18989 -1.45264,-0.19938 -2.58247,-0.8355 -1.12034,-0.63612 -1.73747,-1.94635 -0.61714,-1.31022 -0.61714,-3.44646 0,-0.19938 0.019,-0.56017 0.019,-0.36079 0.019,-0.56017 h 2.57298 q 0,2.25966 0.37028,3.32304 0.37978,1.06337 1.44315,1.48112 1.06337,0.40826 3.31354,0.40826 h 2.22168 q 2.15523,0 3.23759,-0.27534 1.08236,-0.28483 1.56657,-1.22477 0.48421,-0.94944 0.48421,-2.98124 0,-1.66152 -0.28483,-2.48753 -0.27533,-0.83551 -1.06337,-1.1868 -0.78803,-0.35129 -2.38309,-0.40826 -2.25017,-0.0949 -4.40539,-0.20887 -2.15523,-0.11394 -3.67433,-0.63613 -1.5191,-0.52219 -2.42107,-1.91786 -0.90196,-1.40517 -0.90196,-3.99714 0,-2.72489 0.96842,-4.12056 0.96843,-1.39568 2.7059,-1.84191 1.73747,-0.45573 4.50034,-0.45573 h 0.61714 q 2.21219,0 3.65533,0.1709 1.45264,0.1614 2.56349,0.75955 1.11084,0.59814 1.71848,1.89887 0.61714,1.29124 0.61714,3.46545 z m 23.53,-6.57011 v 23.8404 h -2.72489 v -11.04197 h -13.91877 v 11.04197 h -2.64893 v -23.8404 h 2.64893 v 10.50079 h 13.91877 v -10.50079 z m 3.8861,12.33321 v -1.40517 q 0,-3.00023 0.1709,-4.84214 0.18039,-1.8514 0.89247,-3.29455 0.72157,-1.44315 2.32613,-2.25017 1.60455,-0.81652 4.3959,-0.81652 h 1.12033 q 2.75337,0 4.47186,0.25635 1.71848,0.24686 2.89579,1.03489 1.18679,0.77854 1.79443,2.40208 0.60764,1.62354 0.60764,4.35792 0,5.60169 -0.0475,8.51646 -0.057,2.23118 -0.48421,3.69332 -0.41775,1.46213 -1.33871,2.38309 -0.91146,0.91146 -2.44006,1.32921 -1.5191,0.41776 -3.77876,0.41776 -0.3323,0 -0.97792,-0.0475 -0.64562,-0.038 -1.08236,-0.038 -2.17422,0 -3.65534,-0.27534 -1.47163,-0.27534 -2.49702,-1.0064 -1.0254,-0.74057 -1.60455,-2.12675 -0.56967,-1.39567 -0.6836,-3.62685 -0.0854,-1.59506 -0.0854,-4.66174 z m 2.76287,-0.12343 v 3.81674 q 0.057,2.39259 0.4937,3.59837 0.44624,1.1963 1.62354,1.68051 1.17731,0.47472 3.5604,0.47472 2.31663,0 3.60786,-0.14242 1.29124,-0.15191 2.14574,-0.72157 0.85449,-0.56966 1.27224,-1.79444 0.42725,-1.22477 0.48422,-3.37051 0.076,-2.60146 0.076,-7.85185 0,-2.83882 -0.64562,-4.0636 -0.64561,-1.23427 -1.97483,-1.5191 -1.31972,-0.29433 -4.30096,-0.29433 h -0.93044 q -2.22169,0 -3.31355,0.39877 -1.08235,0.39876 -1.54758,1.61404 -0.46522,1.21528 -0.5127,3.82624 z m 19.56135,11.63062 v -23.8404 h 11.12742 q 1.55708,0 2.7059,0.22787 1.15832,0.22786 1.99382,0.97792 1.16781,1.05387 1.55708,2.62994 0.38927,1.56657 0.38927,3.58888 0,1.75646 -0.31331,3.12365 -0.30382,1.3577 -1.24377,2.25017 -0.65511,0.66461 -1.43365,1.0159 -0.77854,0.3418 -1.61405,0.47472 -0.8355,0.12343 -2.23118,0.15191 -1.38618,0.0285 -1.40517,0.0285 h -6.88342 v 9.37096 z m 2.64894,-11.63062 h 6.33275 q 2.42107,0 3.62685,-0.27534 1.20579,-0.27534 1.80394,-1.30073 0.59814,-1.03489 0.59814,-3.24708 0,-1.87039 -0.26584,-2.91477 -0.25635,-1.05388 -1.11084,-1.57607 -0.8545,-0.52219 -2.58247,-0.52219 h -8.40253 z"
       id="path6-8" />
  </g>
  <text
     xml:space="preserve"
     style="font-style:normal;font-variant:normal;font-weight:normal;font-stretch:normal;font-size:7.05556px;font-family:EuroStyle;-inkscape-font-specification:'EuroStyle, Normal';font-variant-ligatures:normal;font-variant-caps:normal;font-variant-numeric:normal;font-variant-east-asian:normal;letter-spacing:0.529167px;display:none;fill:#e98622;fill-opacity:1;stroke:#e98622;stroke-width:0.264583;stroke-linecap:round;stroke-linejoin:round;stroke-dasharray:none;stroke-opacity:1"
     x="20.757702"
     y="20.79105"
     id="text1"
     inkscape:label="Front-End"><tspan
       sodipodi:role="line"
       id="tspan1"
       style="font-style:normal;font-variant:normal;font-weight:normal;font-stretch:normal;font-size:7.05556px;font-family:EuroStyle;-inkscape-font-specification:'EuroStyle, Normal';font-variant-ligatures:normal;font-variant-caps:normal;font-variant-numeric:normal;font-variant-east-asian:normal;letter-spacing:0.529167px;fill:#e98622;fill-opacity:1;stroke:#e98622;stroke-width:0.264583;stroke-dasharray:none;stroke-opacity:1"
       x="20.757702"
       y="20.79105">FRONT-END</tspan></text>
</svg>
