<?xml version="1.0" encoding="UTF-8" standalone="no"?>
<!-- Created with Inkscape (http://www.inkscape.org/) -->

<svg
   width="68.527084mm"
   height="6.3380241mm"
   viewBox="0 0 68.527084 6.3380241"
   version="1.1"
   id="svg1"
   xmlns:inkscape="http://www.inkscape.org/namespaces/inkscape"
   xmlns:sodipodi="http://sodipodi.sourceforge.net/DTD/sodipodi-0.dtd"
   xmlns="http://www.w3.org/2000/svg"
   xmlns:svg="http://www.w3.org/2000/svg">
  <sodipodi:namedview
     id="namedview1"
     pagecolor="#ffffff"
     bordercolor="#000000"
     borderopacity="0.25"
     inkscape:showpageshadow="2"
     inkscape:pageopacity="0.0"
     inkscape:pagecheckerboard="0"
     inkscape:deskcolor="#d1d1d1"
     inkscape:document-units="mm">
    <inkscape:page
       x="0"
       y="0"
       width="68.527084"
       height="6.3380241"
       id="page2"
       margin="0"
       bleed="0" />
  </sodipodi:namedview>
  <defs
     id="defs1">
    <linearGradient
       id="SVGID_1_"
       gradientUnits="userSpaceOnUse"
       x1="79.493202"
       y1="4859.4087"
       x2="338.11041"
       y2="4859.4087"
       gradientTransform="matrix(0.26497518,0,0,0.03450167,-14.978253,-86.092264)">
      <stop
         offset="0"
         style="stop-color:#b77800;stop-opacity:1;"
         id="stop1" />
      <stop
         offset="0.49896246"
         style="stop-color:#ffaf19;stop-opacity:1;"
         id="stop2" />
      <stop
         offset="1"
         style="stop-color:#c08200;stop-opacity:1;"
         id="stop3" />
    </linearGradient>
  </defs>
  <g
     inkscape:label="Front-end Developer"
     inkscape:groupmode="layer"
     id="layer1"
     transform="translate(-6.0854163,-81.227081)">
    <rect
       x="6.0854163"
       y="81.227081"
       style="display:inline;fill:url(#SVGID_1_);stroke-width:0.264779"
       width="68.527084"
       height="0.67653954"
       id="rect3"
       inkscape:label="Divider" />
    <path
       d="m 7.0930794,83.158735 v 1.491504 h 1.9813008 v 0.40896 H 7.0930794 v 1.977789 H 6.6259301 v -4.314707 h 2.5088855 v 0.436454 z m 2.7478604,3.878253 v -4.314707 h 1.9339322 q 0.645189,0 0.924498,0.285242 0.27931,0.283523 0.27931,0.967415 0,0.360848 -0.03594,0.56361 -0.03593,0.201044 -0.189473,0.353974 -0.151905,0.152931 -0.483483,0.216509 0.654989,0.04811 0.654989,0.823076 v 1.104881 h -0.475316 v -0.99319 q 0,-0.415834 -0.181306,-0.584229 -0.181306,-0.168396 -0.58802,-0.168396 h -1.391648 v 1.745815 z M 10.288488,84.890804 H 11.6197 q 0.323411,0 0.511251,-0.06358 0.18784,-0.06358 0.276043,-0.237129 0.08984,-0.175269 0.08984,-0.494877 0,-0.364284 -0.0441,-0.555018 -0.0441,-0.190733 -0.19764,-0.288677 -0.153539,-0.09966 -0.480217,-0.09966 h -1.486384 z m 3.368548,0.06358 V 84.70007 q 0,-0.542989 0.0294,-0.876344 0.03103,-0.335073 0.153538,-0.596258 0.124137,-0.261185 0.40018,-0.407242 0.276043,-0.147776 0.756259,-0.147776 h 0.19274 q 0.473683,0 0.769326,0.0464 0.295644,0.04468 0.498184,0.187297 0.204174,0.140903 0.30871,0.434736 0.104537,0.293833 0.104537,0.78871 0,1.01381 -0.0082,1.541334 -0.0098,0.403806 -0.0833,0.668428 -0.07187,0.264621 -0.230309,0.431299 -0.156805,0.164959 -0.419781,0.240565 -0.261341,0.07561 -0.650088,0.07561 -0.05717,0 -0.168239,-0.0086 -0.111071,-0.0069 -0.186207,-0.0069 -0.374046,0 -0.628855,-0.04983 -0.253152,-0.04983 -0.429558,-0.182141 -0.176406,-0.134029 -0.276043,-0.384904 -0.098,-0.252593 -0.117604,-0.656399 -0.0147,-0.288678 -0.0147,-0.843696 z m 0.475316,-0.02234 v 0.690765 q 0.0098,0.433018 0.08494,0.651245 0.07677,0.216508 0.27931,0.304143 0.20254,0.08592 0.612521,0.08592 0.398547,0 0.620687,-0.02577 0.222141,-0.02749 0.369146,-0.130593 0.147005,-0.103099 0.218874,-0.324763 0.0735,-0.221663 0.0833,-0.610004 0.01306,-0.47082 0.01306,-1.421052 0,-0.513779 -0.111071,-0.735442 -0.111066,-0.223382 -0.339741,-0.274932 -0.227041,-0.05327 -0.739925,-0.05327 h -0.160072 q -0.382213,0 -0.570052,0.07217 -0.186207,0.07217 -0.266243,0.292115 -0.08004,0.219945 -0.0882,0.692484 z m 6.955471,-2.209763 v 4.314707 h -0.749726 l -2.301445,-3.898873 v 3.898873 h -0.447548 v -4.314707 h 0.743192 l 2.307978,3.941831 v -3.941831 z m 2.460384,0.463947 v 3.85076 h -0.468783 v -3.85076 h -1.324678 v -0.463947 h 3.105072 v 0.463947 z m 1.983435,2.056832 h 1.425948 v 0.427862 h -1.425948 z m 2.573087,-2.084325 v 1.457137 H 30.1922 v 0.408961 h -2.087471 v 1.589448 h 2.180574 v 0.422707 h -2.629756 v -4.314707 h 2.629756 v 0.436454 z m 6.393584,-0.436454 v 4.314707 h -0.749725 l -2.301446,-3.898873 v 3.898873 h -0.447548 v -4.314707 h 0.743192 l 2.307978,3.941831 v -3.941831 z m 0.720826,4.314707 v -4.314707 h 1.893097 q 0.450816,0 0.743192,0.116846 0.294011,0.115128 0.455716,0.343665 0.163339,0.228536 0.228674,0.563609 0.06533,0.333355 0.06533,0.81964 v 0.408961 q 0,0.651244 -0.08821,1.084261 -0.08821,0.433017 -0.39038,0.70623 -0.302177,0.271495 -0.899997,0.271495 z m 0.447548,-0.422707 h 1.339379 q 0.326678,0 0.550452,-0.0464 0.223775,-0.0464 0.359346,-0.219945 0.233575,-0.324763 0.233575,-1.204544 v -0.20448 q 0,-0.689047 -0.04737,-1.012092 -0.0539,-0.463947 -0.297271,-0.615159 -0.243376,-0.152931 -0.705625,-0.152931 h -1.432482 z m 5.923667,0.422707 v -4.314707 h 1.893097 q 0.450816,0 0.743192,0.116846 0.29401,0.115128 0.455715,0.343665 0.16334,0.228536 0.228675,0.563609 0.06533,0.333355 0.06533,0.81964 v 0.408961 q 0,0.651244 -0.08821,1.084261 -0.08821,0.433017 -0.39038,0.70623 -0.302177,0.271495 -0.899997,0.271495 z m 0.447549,-0.422707 h 1.339378 q 0.326678,0 0.550452,-0.0464 0.223774,-0.0464 0.359346,-0.219945 0.233574,-0.324763 0.233574,-1.204544 v -0.20448 q 0,-0.689047 -0.04736,-1.012092 -0.05391,-0.463947 -0.297281,-0.615159 -0.243374,-0.152931 -0.705624,-0.152931 h -1.432481 z m 4.066008,-3.455546 v 1.457137 h 2.087471 v 0.408961 h -2.087471 v 1.589448 h 2.180574 v 0.422707 h -2.629756 v -4.314707 h 2.629756 v 0.436454 z m 5.952568,-0.436454 h 0.494916 l -1.445549,4.314707 h -0.661523 l -1.458616,-4.314707 h 0.494917 l 1.296911,3.928085 z m 1.643691,0.436454 v 1.457137 h 2.087471 v 0.408961 H 53.70017 v 1.589448 h 2.180574 v 0.422707 h -2.629756 v -4.314707 h 2.629756 v 0.436454 z m 3.376713,-0.436454 v 3.864507 h 2.074404 v 0.4502 h -2.569321 v -4.314707 z m 2.746227,2.232101 V 84.70007 q 0,-0.54299 0.0294,-0.876344 0.03103,-0.335073 0.153539,-0.596258 0.124138,-0.261185 0.400181,-0.407242 0.276043,-0.147776 0.756259,-0.147776 h 0.192739 q 0.473683,0 0.769327,0.0464 0.295643,0.04468 0.498184,0.187297 0.204173,0.140903 0.30871,0.434736 0.104537,0.293833 0.104537,0.78871 0,1.01381 -0.0082,1.541334 -0.0098,0.403806 -0.0833,0.668428 -0.07187,0.264621 -0.230308,0.431299 -0.156805,0.164959 -0.41978,0.240565 -0.261342,0.07561 -0.650089,0.07561 -0.05717,0 -0.168239,-0.0086 -0.111071,-0.0069 -0.186206,-0.0069 -0.374046,0 -0.628856,-0.04983 -0.253158,-0.04983 -0.429564,-0.182141 -0.176406,-0.134029 -0.276043,-0.384904 -0.098,-0.252593 -0.117604,-0.656399 -0.0147,-0.288678 -0.0147,-0.843696 z m 0.475316,-0.02234 v 0.690765 q 0.0098,0.433017 0.08494,0.651244 0.07677,0.216509 0.279309,0.304143 0.20254,0.08592 0.612521,0.08592 0.398546,0 0.620687,-0.02577 0.222142,-0.02749 0.369146,-0.130593 0.147006,-0.103099 0.218875,-0.324763 0.0735,-0.221663 0.0833,-0.610004 0.01306,-0.47082 0.01306,-1.421053 0,-0.513778 -0.11107,-0.735441 -0.111071,-0.223382 -0.339745,-0.274932 -0.227041,-0.05327 -0.739925,-0.05327 h -0.160072 q -0.382213,0 -0.570053,0.07217 -0.186206,0.07217 -0.266243,0.292115 -0.08003,0.219945 -0.08821,0.692484 z m 3.415916,2.104944 v -4.314707 h 1.914332 q 0.267875,0 0.465515,0.04124 0.199274,0.04124 0.343012,0.176987 0.200907,0.190734 0.267876,0.475976 0.06697,0.283523 0.06697,0.649526 0,0.317889 -0.05391,0.565328 -0.05227,0.24572 -0.213974,0.407242 -0.112704,0.120282 -0.246642,0.18386 -0.133938,0.06186 -0.277676,0.08592 -0.143738,0.02234 -0.383847,0.02749 -0.238474,0.0052 -0.241741,0.0052 H 64.17005 v 1.695984 z m 0.455715,-2.104944 h 1.089471 q 0.416514,0 0.623954,-0.04983 0.20744,-0.04983 0.310344,-0.235411 0.102903,-0.187297 0.102903,-0.587666 0,-0.338509 -0.04574,-0.527525 -0.0441,-0.190734 -0.191105,-0.285241 -0.147005,-0.09451 -0.444282,-0.09451 h -1.445549 z m 3.709926,-1.773309 v 1.457137 h 2.087472 v 0.408961 h -2.087472 v 1.589448 h 2.180575 v 0.422707 h -2.629756 v -4.314707 h 2.629756 v 0.436454 z m 2.894868,3.878253 v -4.314707 h 1.933933 q 0.645188,0 0.924498,0.285242 0.279309,0.283523 0.279309,0.967415 0,0.360848 -0.03594,0.56361 -0.03594,0.201044 -0.189472,0.353974 -0.151906,0.152931 -0.483483,0.216509 0.654989,0.04811 0.654989,0.823076 v 1.104881 h -0.475313 v -0.99319 q 0,-0.415834 -0.181307,-0.584229 -0.181306,-0.168396 -0.58802,-0.168396 H 71.2224 v 1.745815 z M 71.2224,84.890804 h 1.331211 q 0.323411,0 0.511252,-0.06358 0.187839,-0.06358 0.276042,-0.237129 0.08983,-0.175268 0.08983,-0.494876 0,-0.364285 -0.0441,-0.555018 -0.0441,-0.190734 -0.19764,-0.288679 -0.153539,-0.09966 -0.480216,-0.09966 h -1.486384 z"
       id="text2-8"
       style="font-size:6.8621px;font-family:EuroStyle;-inkscape-font-specification:'EuroStyle, Normal';letter-spacing:0.491381px;display:inline;fill:#ffffff;stroke:#000000;stroke-width:0.488734;paint-order:stroke fill markers"
       inkscape:label="Text Path"
       aria-label="FRONT-END DEVELOPER" />
  </g>
</svg>
