<?xml version="1.0" encoding="UTF-8" standalone="no"?>
<!-- Created with Inkscape (http://www.inkscape.org/) -->

<svg
   width="68.665939mm"
   height="6.0455189mm"
   viewBox="0 0 68.66594 6.0455188"
   version="1.1"
   id="svg1"
   inkscape:export-filename="bitmap.svg"
   inkscape:export-xdpi="96"
   inkscape:export-ydpi="96"
   inkscape:version="1.3.2 (091e20e, 2023-11-25, custom)"
   sodipodi:docname="Front-End-Developer.svg"
   xmlns:inkscape="http://www.inkscape.org/namespaces/inkscape"
   xmlns:sodipodi="http://sodipodi.sourceforge.net/DTD/sodipodi-0.dtd"
   xmlns="http://www.w3.org/2000/svg"
   xmlns:svg="http://www.w3.org/2000/svg">
  <sodipodi:namedview
     id="namedview1"
     pagecolor="#ffffff"
     bordercolor="#000000"
     borderopacity="0.25"
     inkscape:showpageshadow="2"
     inkscape:pageopacity="0.0"
     inkscape:pagecheckerboard="true"
     inkscape:deskcolor="#d1d1d1"
     inkscape:document-units="mm"
     inkscape:zoom="2.9006173"
     inkscape:cx="164.44775"
     inkscape:cy="31.372632"
     inkscape:window-width="1358"
     inkscape:window-height="1032"
     inkscape:window-x="2443"
     inkscape:window-y="0"
     inkscape:window-maximized="0"
     inkscape:current-layer="layer1" />
  <defs
     id="defs1">
    <linearGradient
       id="SVGID_1_"
       gradientUnits="userSpaceOnUse"
       x1="79.493202"
       y1="4859.4087"
       x2="338.11041"
       y2="4859.4087"
       gradientTransform="matrix(0.26497518,0,0,0.03450167,-28.862316,-163.61518)">
      <stop
         offset="0"
         style="stop-color:#b77800;stop-opacity:1;"
         id="stop1" />
      <stop
         offset="0.49896246"
         style="stop-color:#ffaf19;stop-opacity:1;"
         id="stop2" />
      <stop
         offset="1"
         style="stop-color:#c08200;stop-opacity:1;"
         id="stop3" />
    </linearGradient>
  </defs>
  <g
     inkscape:label="Layer 1"
     inkscape:groupmode="layer"
     id="layer1"
     transform="translate(7.9375,-3.7041669)">
    <rect
       x="-7.7986465"
       y="3.7041669"
       style="display:inline;fill:url(#SVGID_1_);stroke-width:0.264779"
       width="68.527084"
       height="0.67653954"
       id="rect3"
       inkscape:label="Divider" />
    <path
       style="font-size:7.2432px;font-family:EuroStyle;-inkscape-font-specification:'EuroStyle, Normal';letter-spacing:0.264583px;display:inline;fill:#ffffff;stroke-width:0.714258;stroke-linecap:round;stroke-linejoin:round"
       d="M 27.840527,9.69921 V 5.329791 h 2.01679 q 0.480271,0 0.79175,0.118327 0.313221,0.116587 0.485491,0.348022 0.174011,0.231435 0.243616,0.570757 0.0696,0.337582 0.0696,0.830033 v 0.414147 q 0,0.659502 -0.09396,1.098009 -0.09397,0.438509 -0.415887,0.715186 -0.321921,0.274938 -0.958801,0.274938 z m 0.476791,-0.428067 h 1.426891 q 0.348022,0 0.586418,-0.04699 0.238395,-0.04699 0.382824,-0.222734 0.248837,-0.328881 0.248837,-1.219818 V 7.574527 q 0,-0.697785 -0.05046,-1.024925 -0.05743,-0.46983 -0.3167,-0.62296 Q 30.335851,5.771772 29.8434,5.771772 H 28.317322 Z M 32.398957,5.771779 V 7.247394 H 34.62282 V 7.66154 h -2.223863 v 1.609603 h 2.323049 V 9.69921 H 31.920427 V 5.329791 h 2.801579 v 0.441988 z m 6.091471,-0.441988 h 0.527253 L 37.477682,9.69921 h -0.704744 l -1.55392,-4.369419 h 0.527254 l 1.381648,3.977894 z m 1.501055,0.441988 v 1.475615 h 2.223863 V 7.66154 h -2.223863 v 1.609603 h 2.323049 V 9.69921 H 39.512953 V 5.329791 h 2.801579 v 0.441988 z m 3.347314,-0.441988 v 3.91351 H 45.54874 V 9.69921 H 42.811544 V 5.329791 Z m 2.675632,2.260404 V 7.332658 q 0,-0.549874 0.03132,-0.887456 0.03306,-0.339322 0.16357,-0.603819 0.132249,-0.264496 0.426327,-0.412406 0.294079,-0.14965 0.805673,-0.14965 h 0.205332 q 0.504632,0 0.819592,0.04699 0.314961,0.04525 0.530735,0.189672 0.217514,0.14269 0.328881,0.440248 0.111367,0.297559 0.111367,0.798712 0,1.026665 -0.0087,1.560879 -0.01044,0.408927 -0.08875,0.676904 -0.07657,0.267977 -0.245356,0.436768 -0.16705,0.167051 -0.447208,0.243616 -0.278418,0.07657 -0.692564,0.07657 -0.0609,0 -0.179232,-0.0087 -0.118328,-0.007 -0.198372,-0.007 -0.398487,0 -0.669944,-0.05046 Q 46.637383,9.633066 46.449451,9.499074 46.261519,9.363346 46.155372,9.109289 46.050966,8.853492 46.030084,8.444567 46.014424,8.152228 46.014424,7.590171 Z m 0.506373,-0.02262 v 0.699524 q 0.01044,0.438509 0.09048,0.659502 0.08178,0.219255 0.297559,0.308 0.215774,0.08701 0.652542,0.08701 0.424587,0 0.661242,-0.0261 0.236656,-0.02784 0.393265,-0.13225 0.156611,-0.104406 0.233175,-0.328881 0.07831,-0.224474 0.08875,-0.617739 0.01392,-0.476791 0.01392,-1.439072 0,-0.520293 -0.118328,-0.744767 -0.118327,-0.226215 -0.361943,-0.278419 -0.241876,-0.05394 -0.78827,-0.05394 h -0.170532 q -0.407186,0 -0.607298,0.07308 -0.198373,0.07308 -0.283639,0.295818 -0.08527,0.222735 -0.09396,0.701265 z m 3.389079,2.131636 V 5.329789 h 2.039411 q 0.285378,0 0.495931,0.04176 0.212294,0.04176 0.365424,0.179231 0.214033,0.193153 0.285378,0.482012 0.07134,0.287118 0.07134,0.657762 0,0.32192 -0.05742,0.572496 -0.05569,0.248836 -0.227955,0.412407 -0.120067,0.121807 -0.262757,0.186191 -0.142688,0.06264 -0.295819,0.08701 -0.153129,0.02262 -0.408925,0.02784 -0.254057,0.0052 -0.257537,0.0052 h -1.261581 v 1.71749 z m 0.485491,-2.131636 h 1.160655 q 0.443728,0 0.664722,-0.05046 0.220995,-0.05046 0.330621,-0.238395 0.109627,-0.189672 0.109627,-0.595118 0,-0.342802 -0.04872,-0.534214 -0.04699,-0.193152 -0.203593,-0.288859 -0.15661,-0.09571 -0.47331,-0.09571 H 50.395375 Z M 54.097666,5.77178 v 1.475615 h 2.223862 v 0.414146 h -2.223862 v 1.609603 h 2.323049 v 0.428067 h -2.80158 V 5.329789 h 2.80158 v 0.441988 z m 2.833982,3.927431 V 5.329789 h 2.060291 q 0.687345,0 0.984904,0.288858 0.297559,0.287119 0.297559,0.979683 0,0.365423 -0.03828,0.570756 -0.03828,0.203594 -0.201852,0.358464 -0.161831,0.154869 -0.515074,0.219253 0.697785,0.04872 0.697785,0.833514 V 9.699208 H 59.710605 V 8.693424 q 0,-0.421107 -0.193152,-0.591638 Q 59.3243,7.931255 58.891012,7.931255 h -1.482575 v 1.767953 z m 0.47679,-2.173399 h 1.418191 q 0.344542,0 0.544655,-0.06439 0.200113,-0.06438 0.294079,-0.240136 0.09571,-0.17749 0.09571,-0.501151 0,-0.368904 -0.04699,-0.562056 Q 59.667093,5.964926 59.50353,5.865739 59.339963,5.764816 58.99194,5.764816 h -1.583501 z"
       id="path15"
       inkscape:label="Developer" />
    <path
       d="m -7.452721,5.816603 v 1.471288 h 2.056074 V 7.691309 H -7.452721 V 9.642292 H -7.9375 V 5.386065 h 2.60357 v 0.430538 z m 2.875114,3.825689 V 5.386065 h 2.006919 q 0.669538,0 0.959389,0.281376 0.28985,0.279679 0.28985,0.954303 0,0.355957 -0.0373,0.555971 -0.03729,0.198318 -0.196623,0.349176 -0.157638,0.150858 -0.50173,0.213574 0.679708,0.04746 0.679708,0.811921 V 9.642292 H -1.870648 V 8.662563 q 0,-0.410198 -0.188149,-0.576311 -0.188148,-0.166113 -0.610212,-0.166113 h -1.444168 v 1.722153 z m 0.464439,-2.117096 h 1.381452 q 0.335616,0 0.530546,-0.06271 0.194928,-0.06271 0.28646,-0.233915 0.09323,-0.172893 0.09323,-0.488169 0,-0.359347 -0.04577,-0.547495 -0.04577,-0.188149 -0.205099,-0.284766 -0.159333,-0.09831 -0.49834,-0.09831 h -1.54248 z m 3.519228,0.06271 V 7.337041 q 0,-0.53563 0.0305,-0.864467 0.03221,-0.330531 0.159333,-0.588175 0.128823,-0.257646 0.415284,-0.401723 0.28646,-0.145773 0.7848,-0.145773 H 0.99599 q 0.49156,0 0.798361,0.04577 0.3068,0.04407 0.516984,0.184759 0.21188,0.138993 0.320362,0.428843 0.108482,0.289851 0.108482,0.778021 0,1.000069 -0.0085,1.520444 -0.01017,0.398332 -0.08645,0.659368 -0.07458,0.261034 -0.238999,0.425453 -0.162723,0.162723 -0.435623,0.237304 -0.271206,0.07458 -0.674623,0.07458 -0.05933,0 -0.174589,-0.0085 -0.115261,-0.0068 -0.193234,-0.0068 -0.388162,0 -0.652587,-0.04915 Q 0.012844,9.577845 -0.170219,9.447321 -0.353282,9.315109 -0.45668,9.067634 -0.558382,8.818464 -0.578722,8.420131 -0.593972,8.135366 -0.593972,7.58787 Z m 0.493254,-0.02203 v 0.681403 q 0.01018,0.427148 0.08814,0.642417 0.07967,0.213574 0.289851,0.300021 0.210184,0.08475 0.635637,0.08475 0.413587,0 0.644112,-0.02543 0.230525,-0.02712 0.383077,-0.128822 0.152554,-0.101702 0.227135,-0.320361 0.07627,-0.21866 0.08645,-0.601737 0.01356,-0.464439 0.01356,-1.401792 0,-0.506815 -0.115262,-0.725474 Q 2.036751,5.850497 1.799447,5.799645 1.563837,5.747095 1.031597,5.747095 H 0.865484 q -0.396638,0 -0.591566,0.07119 -0.193234,0.07119 -0.276291,0.288156 -0.08306,0.216964 -0.09153,0.683098 z M 7.140833,5.386064 V 9.642291 H 6.362813 L 3.974511,5.796261 v 3.84603 H 3.510073 V 5.386064 h 0.77124 L 6.676394,9.274469 V 5.386064 Z M 9.717622,5.843723 V 9.642291 H 9.231147 V 5.843724 H 7.856476 V 5.386065 h 3.222258 v 0.457659 z m 2.081839,2.028954 h 1.479763 V 8.29474 h -1.479763 z m 2.693745,-2.056075 v 1.437387 h 2.166252 v 0.403419 h -2.166252 v 1.567905 h 2.262869 V 9.642291 H 14.027072 V 5.386064 h 2.729003 v 0.430538 z m 6.658428,-0.430538 v 4.256227 h -0.77802 l -2.388301,-3.84603 v 3.84603 H 17.520874 V 5.386064 h 0.77124 l 2.39508,3.888405 V 5.386064 Z m 0.771579,4.256227 V 5.386064 h 1.964542 q 0.467829,0 0.771239,0.115262 0.305107,0.113568 0.472915,0.339007 0.169503,0.225439 0.237304,0.555971 0.0678,0.328836 0.0678,0.808529 v 0.403419 q 0,0.642417 -0.09153,1.069565 -0.09154,0.427149 -0.405113,0.696659 -0.313582,0.267815 -0.933964,0.267815 z m 0.464438,-0.416977 h 1.389927 q 0.339007,0 0.571226,-0.04577 0.232219,-0.04577 0.372907,-0.216964 0.24239,-0.320361 0.24239,-1.188218 V 7.572653 q 0,-0.679709 -0.04915,-0.998375 Q 24.859021,6.11662 24.606455,5.967457 24.353896,5.816599 23.874201,5.816599 h -1.486547 z"
       id="text1-2"
       style="font-size:7.05556px;font-family:EuroStyle;-inkscape-font-specification:'EuroStyle, Normal';letter-spacing:0.529167px;display:inline;fill:#ffaf19;fill-opacity:1;stroke-width:0.984026;stroke-linecap:round;stroke-linejoin:round"
       inkscape:label="Front-End-old"
       aria-label="FRONT-END" />
  </g>
</svg>
