<?xml version="1.0" encoding="UTF-8" standalone="no"?>
<!-- Created with Inkscape (http://www.inkscape.org/) -->

<svg
   width="68.665939mm"
   height="6.6999998mm"
   viewBox="0 0 68.66594 6.6999997"
   version="1.1"
   id="svg1"
   inkscape:export-filename="bitmap.svg"
   inkscape:export-xdpi="96"
   inkscape:export-ydpi="96"
   inkscape:version="1.4.2 (f4327f4, 2025-05-13)"
   sodipodi:docname="Front-End-Developer.svg"
   xmlns:inkscape="http://www.inkscape.org/namespaces/inkscape"
   xmlns:sodipodi="http://sodipodi.sourceforge.net/DTD/sodipodi-0.dtd"
   xmlns="http://www.w3.org/2000/svg"
   xmlns:svg="http://www.w3.org/2000/svg">
  <sodipodi:namedview
     id="namedview1"
     pagecolor="#ffffff"
     bordercolor="#000000"
     borderopacity="0.25"
     inkscape:showpageshadow="2"
     inkscape:pageopacity="0.0"
     inkscape:pagecheckerboard="true"
     inkscape:deskcolor="#d1d1d1"
     inkscape:document-units="mm"
     inkscape:zoom="8.2041846"
     inkscape:cx="97.511214"
     inkscape:cy="21.330578"
     inkscape:window-width="2905"
     inkscape:window-height="1260"
     inkscape:window-x="4421"
     inkscape:window-y="58"
     inkscape:window-maximized="0"
     inkscape:current-layer="g7"
     showguides="true">
    <sodipodi:guide
       position="-1.6769896,5.0552598"
       orientation="0,-1"
       id="guide7"
       inkscape:locked="false" />
  </sodipodi:namedview>
  <defs
     id="defs1">
    <linearGradient
       id="SVGID_1_"
       gradientUnits="userSpaceOnUse"
       x1="79.493202"
       y1="4859.4087"
       x2="338.11041"
       y2="4859.4087"
       gradientTransform="matrix(0.26497518,0,0,0.03450167,-28.862316,-163.61518)">
      <stop
         offset="0"
         style="stop-color:#b77800;stop-opacity:1;"
         id="stop1" />
      <stop
         offset="0.49896246"
         style="stop-color:#ffaf19;stop-opacity:1;"
         id="stop2" />
      <stop
         offset="1"
         style="stop-color:#c08200;stop-opacity:1;"
         id="stop3" />
    </linearGradient>
  </defs>
  <g
     inkscape:label="Layer 1"
     inkscape:groupmode="layer"
     id="layer1"
     transform="translate(7.9375,-3.7041669)"
     style="display:none">
    <path
       style="font-size:7.2432px;font-family:EuroStyle;-inkscape-font-specification:'EuroStyle, Normal';letter-spacing:0.264583px;display:inline;fill:#ffffff;stroke-width:0.714258;stroke-linecap:round;stroke-linejoin:round"
       d="M 27.840527,9.69921 V 5.329791 h 2.01679 q 0.480271,0 0.79175,0.118327 0.313221,0.116587 0.485491,0.348022 0.174011,0.231435 0.243616,0.570757 0.0696,0.337582 0.0696,0.830033 v 0.414147 q 0,0.659502 -0.09396,1.098009 -0.09397,0.438509 -0.415887,0.715186 -0.321921,0.274938 -0.958801,0.274938 z m 0.476791,-0.428067 h 1.426891 q 0.348022,0 0.586418,-0.04699 0.238395,-0.04699 0.382824,-0.222734 0.248837,-0.328881 0.248837,-1.219818 V 7.574527 q 0,-0.697785 -0.05046,-1.024925 -0.05743,-0.46983 -0.3167,-0.62296 Q 30.335851,5.771772 29.8434,5.771772 H 28.317322 Z M 32.398957,5.771779 V 7.247394 H 34.62282 V 7.66154 h -2.223863 v 1.609603 h 2.323049 V 9.69921 H 31.920427 V 5.329791 h 2.801579 v 0.441988 z m 6.091471,-0.441988 h 0.527253 L 37.477682,9.69921 h -0.704744 l -1.55392,-4.369419 h 0.527254 l 1.381648,3.977894 z m 1.501055,0.441988 v 1.475615 h 2.223863 V 7.66154 h -2.223863 v 1.609603 h 2.323049 V 9.69921 H 39.512953 V 5.329791 h 2.801579 v 0.441988 z m 3.347314,-0.441988 v 3.91351 H 45.54874 V 9.69921 H 42.811544 V 5.329791 Z m 2.675632,2.260404 V 7.332658 q 0,-0.549874 0.03132,-0.887456 0.03306,-0.339322 0.16357,-0.603819 0.132249,-0.264496 0.426327,-0.412406 0.294079,-0.14965 0.805673,-0.14965 h 0.205332 q 0.504632,0 0.819592,0.04699 0.314961,0.04525 0.530735,0.189672 0.217514,0.14269 0.328881,0.440248 0.111367,0.297559 0.111367,0.798712 0,1.026665 -0.0087,1.560879 -0.01044,0.408927 -0.08875,0.676904 -0.07657,0.267977 -0.245356,0.436768 -0.16705,0.167051 -0.447208,0.243616 -0.278418,0.07657 -0.692564,0.07657 -0.0609,0 -0.179232,-0.0087 -0.118328,-0.007 -0.198372,-0.007 -0.398487,0 -0.669944,-0.05046 Q 46.637383,9.633066 46.449451,9.499074 46.261519,9.363346 46.155372,9.109289 46.050966,8.853492 46.030084,8.444567 46.014424,8.152228 46.014424,7.590171 Z m 0.506373,-0.02262 v 0.699524 q 0.01044,0.438509 0.09048,0.659502 0.08178,0.219255 0.297559,0.308 0.215774,0.08701 0.652542,0.08701 0.424587,0 0.661242,-0.0261 0.236656,-0.02784 0.393265,-0.13225 0.156611,-0.104406 0.233175,-0.328881 0.07831,-0.224474 0.08875,-0.617739 0.01392,-0.476791 0.01392,-1.439072 0,-0.520293 -0.118328,-0.744767 -0.118327,-0.226215 -0.361943,-0.278419 -0.241876,-0.05394 -0.78827,-0.05394 h -0.170532 q -0.407186,0 -0.607298,0.07308 -0.198373,0.07308 -0.283639,0.295818 -0.08527,0.222735 -0.09396,0.701265 z m 3.389079,2.131636 V 5.329789 h 2.039411 q 0.285378,0 0.495931,0.04176 0.212294,0.04176 0.365424,0.179231 0.214033,0.193153 0.285378,0.482012 0.07134,0.287118 0.07134,0.657762 0,0.32192 -0.05742,0.572496 -0.05569,0.248836 -0.227955,0.412407 -0.120067,0.121807 -0.262757,0.186191 -0.142688,0.06264 -0.295819,0.08701 -0.153129,0.02262 -0.408925,0.02784 -0.254057,0.0052 -0.257537,0.0052 h -1.261581 v 1.71749 z m 0.485491,-2.131636 h 1.160655 q 0.443728,0 0.664722,-0.05046 0.220995,-0.05046 0.330621,-0.238395 0.109627,-0.189672 0.109627,-0.595118 0,-0.342802 -0.04872,-0.534214 -0.04699,-0.193152 -0.203593,-0.288859 -0.15661,-0.09571 -0.47331,-0.09571 H 50.395375 Z M 54.097666,5.77178 v 1.475615 h 2.223862 v 0.414146 h -2.223862 v 1.609603 h 2.323049 v 0.428067 h -2.80158 V 5.329789 h 2.80158 v 0.441988 z m 2.833982,3.927431 V 5.329789 h 2.060291 q 0.687345,0 0.984904,0.288858 0.297559,0.287119 0.297559,0.979683 0,0.365423 -0.03828,0.570756 -0.03828,0.203594 -0.201852,0.358464 -0.161831,0.154869 -0.515074,0.219253 0.697785,0.04872 0.697785,0.833514 V 9.699208 H 59.710605 V 8.693424 q 0,-0.421107 -0.193152,-0.591638 Q 59.3243,7.931255 58.891012,7.931255 h -1.482575 v 1.767953 z m 0.47679,-2.173399 h 1.418191 q 0.344542,0 0.544655,-0.06439 0.200113,-0.06438 0.294079,-0.240136 0.09571,-0.17749 0.09571,-0.501151 0,-0.368904 -0.04699,-0.562056 Q 59.667093,5.964926 59.50353,5.865739 59.339963,5.764816 58.99194,5.764816 h -1.583501 z"
       id="path15"
       inkscape:label="Developer" />
    <path
       d="m -7.452721,5.816603 v 1.471288 h 2.056074 V 7.691309 H -7.452721 V 9.642292 H -7.9375 V 5.386065 h 2.60357 v 0.430538 z m 2.875114,3.825689 V 5.386065 h 2.006919 q 0.669538,0 0.959389,0.281376 0.28985,0.279679 0.28985,0.954303 0,0.355957 -0.0373,0.555971 -0.03729,0.198318 -0.196623,0.349176 -0.157638,0.150858 -0.50173,0.213574 0.679708,0.04746 0.679708,0.811921 V 9.642292 H -1.870648 V 8.662563 q 0,-0.410198 -0.188149,-0.576311 -0.188148,-0.166113 -0.610212,-0.166113 h -1.444168 v 1.722153 z m 0.464439,-2.117096 h 1.381452 q 0.335616,0 0.530546,-0.06271 0.194928,-0.06271 0.28646,-0.233915 0.09323,-0.172893 0.09323,-0.488169 0,-0.359347 -0.04577,-0.547495 -0.04577,-0.188149 -0.205099,-0.284766 -0.159333,-0.09831 -0.49834,-0.09831 h -1.54248 z m 3.519228,0.06271 V 7.337041 q 0,-0.53563 0.0305,-0.864467 0.03221,-0.330531 0.159333,-0.588175 0.128823,-0.257646 0.415284,-0.401723 0.28646,-0.145773 0.7848,-0.145773 H 0.99599 q 0.49156,0 0.798361,0.04577 0.3068,0.04407 0.516984,0.184759 0.21188,0.138993 0.320362,0.428843 0.108482,0.289851 0.108482,0.778021 0,1.000069 -0.0085,1.520444 -0.01017,0.398332 -0.08645,0.659368 -0.07458,0.261034 -0.238999,0.425453 -0.162723,0.162723 -0.435623,0.237304 -0.271206,0.07458 -0.674623,0.07458 -0.05933,0 -0.174589,-0.0085 -0.115261,-0.0068 -0.193234,-0.0068 -0.388162,0 -0.652587,-0.04915 Q 0.012844,9.577845 -0.170219,9.447321 -0.353282,9.315109 -0.45668,9.067634 -0.558382,8.818464 -0.578722,8.420131 -0.593972,8.135366 -0.593972,7.58787 Z m 0.493254,-0.02203 v 0.681403 q 0.01018,0.427148 0.08814,0.642417 0.07967,0.213574 0.289851,0.300021 0.210184,0.08475 0.635637,0.08475 0.413587,0 0.644112,-0.02543 0.230525,-0.02712 0.383077,-0.128822 0.152554,-0.101702 0.227135,-0.320361 0.07627,-0.21866 0.08645,-0.601737 0.01356,-0.464439 0.01356,-1.401792 0,-0.506815 -0.115262,-0.725474 Q 2.036751,5.850497 1.799447,5.799645 1.563837,5.747095 1.031597,5.747095 H 0.865484 q -0.396638,0 -0.591566,0.07119 -0.193234,0.07119 -0.276291,0.288156 -0.08306,0.216964 -0.09153,0.683098 z M 7.140833,5.386064 V 9.642291 H 6.362813 L 3.974511,5.796261 v 3.84603 H 3.510073 V 5.386064 h 0.77124 L 6.676394,9.274469 V 5.386064 Z M 9.717622,5.843723 V 9.642291 H 9.231147 V 5.843724 H 7.856476 V 5.386065 h 3.222258 v 0.457659 z m 2.081839,2.028954 h 1.479763 V 8.29474 h -1.479763 z m 2.693745,-2.056075 v 1.437387 h 2.166252 v 0.403419 h -2.166252 v 1.567905 h 2.262869 V 9.642291 H 14.027072 V 5.386064 h 2.729003 v 0.430538 z m 6.658428,-0.430538 v 4.256227 h -0.77802 l -2.388301,-3.84603 v 3.84603 H 17.520874 V 5.386064 h 0.77124 l 2.39508,3.888405 V 5.386064 Z m 0.771579,4.256227 V 5.386064 h 1.964542 q 0.467829,0 0.771239,0.115262 0.305107,0.113568 0.472915,0.339007 0.169503,0.225439 0.237304,0.555971 0.0678,0.328836 0.0678,0.808529 v 0.403419 q 0,0.642417 -0.09153,1.069565 -0.09154,0.427149 -0.405113,0.696659 -0.313582,0.267815 -0.933964,0.267815 z m 0.464438,-0.416977 h 1.389927 q 0.339007,0 0.571226,-0.04577 0.232219,-0.04577 0.372907,-0.216964 0.24239,-0.320361 0.24239,-1.188218 V 7.572653 q 0,-0.679709 -0.04915,-0.998375 Q 24.859021,6.11662 24.606455,5.967457 24.353896,5.816599 23.874201,5.816599 h -1.486547 z"
       id="text1-2"
       style="font-size:7.05556px;font-family:EuroStyle;-inkscape-font-specification:'EuroStyle, Normal';letter-spacing:0.529167px;display:inline;fill:#ffaf19;fill-opacity:1;stroke-width:0.984026;stroke-linecap:round;stroke-linejoin:round"
       inkscape:label="Front-End-old"
       aria-label="FRONT-END" />
  </g>
  <g
     inkscape:groupmode="layer"
     id="layer3"
     inkscape:label="Divider">
    <rect
       x="-7.7986465"
       y="3.7041669"
       style="display:inline;fill:url(#SVGID_1_);stroke-width:0.264779"
       width="68.527084"
       height="0.67653954"
       id="rect3"
       inkscape:label="Divider"
       transform="translate(7.9375,-3.7041669)" />
  </g>
  <g
     inkscape:groupmode="layer"
     id="layer2"
     inkscape:label="Web Designer/Developer"
     style="display:none">
    <g
       id="text1"
       style="font-size:5.64788px;font-family:EuroStyle;-inkscape-font-specification:'EuroStyle, Normal';letter-spacing:0.423591px;fill:#ffaf19;stroke-width:0.211795;stroke-linecap:round;stroke-linejoin:round"
       aria-label="WEB DESIGNER/DEVELOPER">
      <path
         d="M 5.2181876,1.6954244 4.1343903,5.1577845 H 3.5469887 L 2.6369299,2.0456591 1.7103245,5.1577845 H 1.1298173 L 0.06670319,1.6954244 h 0.4012532 L 1.4166237,4.8585682 2.3542601,1.6954244 H 2.9251152 L 3.8517205,4.8585682 4.8224499,1.6954244 Z M 6.1781617,2.0456591 V 3.2149468 H 7.9403665 V 3.5431195 H 6.1781617 V 4.8185807 H 8.0189625 V 5.1577845 H 5.7989706 V 1.6954244 H 8.0189625 V 2.0456591 Z M 8.6411113,5.1577845 V 1.6954244 h 1.6601677 q 0.314384,0 0.507427,0.079975 0.193043,0.078596 0.285427,0.2661233 0.09376,0.1861484 0.09376,0.5129422 0,0.3350671 -0.08687,0.5129423 -0.08549,0.1778751 -0.365403,0.2716387 0.329552,0.093764 0.441241,0.2785332 0.113068,0.1833906 0.113068,0.5405198 0,0.3267938 -0.08273,0.5460352 -0.08135,0.2192415 -0.278533,0.336446 -0.1958,0.1172046 -0.530867,0.1172046 z M 10.38677,3.5541505 H 9.0244391 v 1.2644302 h 1.0617349 q 0.333689,0 0.492259,-0.03723 0.158571,-0.03723 0.231652,-0.1723596 0.07308,-0.1351299 0.07308,-0.4343462 0,-0.3088685 -0.09652,-0.4646816 Q 10.690122,3.5541505 10.38677,3.5541505 Z M 10.250261,2.0401436 H 9.0244391 v 1.1637722 h 1.0906919 q 0.263365,0 0.406769,-0.052397 0.144782,-0.052397 0.204073,-0.1861484 0.06067,-0.1337511 0.06067,-0.3833278 0,-0.3157628 -0.111689,-0.4288308 -0.11031,-0.1130679 -0.424694,-0.1130679 z"
         id="path3" />
      <path
         style="fill:#ffffff"
         d="M 13.848303,5.1577845 V 1.6954244 h 1.598119 q 0.38057,0 0.627389,0.093764 0.248197,0.092385 0.384706,0.2757754 0.137888,0.1833907 0.193043,0.4522717 0.05515,0.2675021 0.05515,0.6577243 v 0.3281727 q 0,0.5225944 -0.07446,0.8700714 -0.07446,0.347477 -0.329552,0.5667184 -0.255092,0.2178626 -0.759761,0.2178626 z m 0.377812,-0.3392038 h 1.13068 q 0.275775,0 0.464681,-0.03723 0.188906,-0.03723 0.303353,-0.1764962 Q 16.322008,4.344247 16.322008,3.638262 V 3.4741757 q 0,-0.5529297 -0.03999,-0.8121586 Q 16.236518,2.2897204 16.031062,2.1683792 15.82561,2.0456591 15.435388,2.0456591 h -1.209276 z m 3.451604,-2.7729216 v 1.1692877 h 1.762205 V 3.5431195 H 17.677719 V 4.8185807 H 19.51852 V 5.1577845 H 17.298528 V 1.6954244 h 2.219992 v 0.3502347 z m 4.958718,0.6039481 H 22.258625 Q 22.243457,2.3821051 22.188302,2.2483541 22.133147,2.114603 21.999396,2.0608268 21.865645,2.0056717 21.598143,2.0056717 h -0.198559 q -0.533625,0 -0.705985,0.1075524 -0.186148,0.1144468 -0.186148,0.4798492 0,0.2054527 0.03861,0.3281727 0.03999,0.1213412 0.151676,0.190285 0.113068,0.067565 0.324036,0.081354 0.03585,0.00276 0.508806,0.019304 0.472955,0.016547 0.689438,0.081354 0.217863,0.064807 0.350235,0.2647444 0.133751,0.1985583 0.133751,0.5887804 0,0.3019741 -0.04964,0.5060479 -0.04964,0.2026949 -0.201316,0.3350671 -0.151676,0.1309933 -0.448135,0.1585708 -0.282669,0.027578 -0.661861,0.027578 -0.314383,0 -0.525352,-0.027578 -0.210968,-0.028956 -0.375054,-0.1213411 -0.162708,-0.092385 -0.252335,-0.2826698 -0.08963,-0.190285 -0.08963,-0.5005323 0,-0.028956 0.0028,-0.081354 0.0028,-0.052397 0.0028,-0.081354 h 0.373676 q 0,0.3281727 0.05378,0.4826069 0.05515,0.1544342 0.209589,0.2151048 0.154434,0.059292 0.481228,0.059292 h 0.322657 q 0.313005,0 0.470197,-0.039987 0.157192,-0.041366 0.227515,-0.1778751 0.07032,-0.1378877 0.07032,-0.4329674 0,-0.2413035 -0.04137,-0.3612658 -0.04007,-0.1213415 -0.154514,-0.17236 Q 22.004911,3.6010324 21.77326,3.5927591 21.446466,3.5789703 21.133461,3.5624238 20.820456,3.5458773 20.599836,3.470039 20.379215,3.3942008 20.248222,3.1915059 20.117229,2.9874321 20.117229,2.6109987 q 0,-0.3957377 0.140645,-0.5984326 0.140646,-0.2026949 0.39298,-0.2675021 0.252335,-0.066186 0.653588,-0.066186 h 0.08963 q 0.321278,0 0.530868,0.02482 0.210968,0.023441 0.372296,0.1103102 0.161329,0.086869 0.249577,0.2757754 0.08963,0.1875273 0.08963,0.5032901 z M 23.726026,1.6954244 V 5.1577845 H 23.337183 V 1.6954244 Z m 1.977585,1.7401427 h 1.479535 q 0.01103,0.1296145 0.01103,0.3778123 v 0.2481979 q 0,0.4826069 -0.137888,0.7666556 -0.136509,0.2826697 -0.573613,0.3295516 -0.386085,0.027577 -0.7115,0.027577 -0.57775,0 -0.878345,-0.1034158 Q 24.592235,4.97853 24.464,4.7041334 24.337143,4.428358 24.337143,3.8919749 q 0,-0.1613286 0.0028,-0.4757126 0.0028,-0.3143839 0.0028,-0.4729548 0,-0.4605449 0.110311,-0.7363203 0.11031,-0.2757754 0.370917,-0.4012532 0.260608,-0.1268566 0.715638,-0.1268566 0.554308,0 0.836978,0.011031 0.426073,0.01241 0.616358,0.2357879 0.190285,0.2219992 0.190285,0.6563455 v 0.1240989 h -0.377812 q 0,-0.3529925 -0.09652,-0.5088056 -0.09514,-0.157192 -0.417799,-0.168223 -0.242683,-0.011031 -0.722532,-0.011031 -0.376433,0 -0.543278,0.068944 -0.165465,0.067565 -0.22062,0.2550923 -0.05378,0.1861484 -0.06067,0.6191157 l -0.01103,0.4564083 0.01103,0.4867436 q 0,0.2661233 0.0262,0.4384829 0.02758,0.1709807 0.136509,0.2992163 0.11031,0.1282355 0.339204,0.1654652 0.186148,0.028956 0.559824,0.028956 h 0.202695 q 0.344719,0 0.508805,-0.055155 0.165466,-0.055155 0.226136,-0.212347 0.06205,-0.157192 0.06205,-0.4895013 V 3.7802864 H 25.703611 Z M 30.769882,1.6954244 V 5.1577845 H 30.136977 L 28.194139,2.0291126 V 5.1577845 H 27.816327 V 1.6954244 h 0.627389 l 1.948353,3.1631438 V 1.6954244 Z m 0.977898,0.3502347 v 1.1692877 h 1.762205 V 3.5431195 H 31.74778 v 1.2754612 h 1.840801 V 5.1577845 H 31.368589 V 1.6954244 h 2.219992 v 0.3502347 z m 2.46295,3.1121254 V 1.6954244 h 1.632591 q 0.544656,0 0.780444,0.2288936 0.235788,0.2275147 0.235788,0.7763077 0,0.2895642 -0.03034,0.4522716 -0.03034,0.1613287 -0.15995,0.2840487 -0.128235,0.1227201 -0.408147,0.1737385 0.552929,0.038609 0.552929,0.6604821 V 5.1577845 H 36.412797 V 4.3607936 q 0,-0.3336883 -0.153055,-0.4688182 -0.153056,-0.1351299 -0.496396,-0.1351299 h -1.174803 v 1.400939 z m 0.377813,-1.7222174 h 1.123785 q 0.273017,0 0.431588,-0.051018 0.158571,-0.051018 0.23303,-0.190285 0.07584,-0.1406455 0.07584,-0.3971166 0,-0.2923219 -0.03723,-0.4453773 -0.03723,-0.1530553 -0.166844,-0.2316513 -0.129615,-0.079975 -0.40539,-0.079975 H 34.588543 Z M 40.41733,1.6954244 37.745067,5.6665901 h -0.281291 l 2.659853,-3.9711657 z m 0.638699,3.4623601 V 1.6954244 h 1.598118 q 0.38057,0 0.627389,0.093764 0.248198,0.092385 0.384707,0.2757754 0.137888,0.1833907 0.193043,0.4522717 0.05515,0.2675021 0.05515,0.6577243 v 0.3281727 q 0,0.5225944 -0.07446,0.8700714 -0.07446,0.347477 -0.329551,0.5667184 -0.255093,0.2178626 -0.759761,0.2178626 z m 0.377812,-0.3392038 h 1.130679 q 0.275776,0 0.464682,-0.03723 0.188906,-0.03723 0.303353,-0.1764962 Q 43.529734,4.344247 43.529734,3.638262 V 3.4741757 q 0,-0.5529297 -0.03999,-0.8121586 -0.0455,-0.3722967 -0.250956,-0.4936379 -0.205453,-0.1227201 -0.595675,-0.1227201 h -1.209275 z m 3.451602,-2.7729216 v 1.1692877 h 1.762205 v 0.3281727 h -1.762205 v 1.2754612 h 1.840801 V 5.1577845 H 44.506252 V 1.6954244 h 2.219992 v 0.3502347 z m 5.04421,-0.3502347 h 0.4178 L 49.127147,5.1577845 H 48.568701 L 47.337364,1.6954244 h 0.4178 l 1.094828,3.1521127 z m 1.406729,0.3502347 v 1.1692877 h 1.762205 v 0.3281727 h -1.762205 v 1.2754612 h 1.840801 V 5.1577845 H 50.957191 V 1.6954244 h 2.219992 v 0.3502347 z m 2.869721,-0.3502347 v 3.1010943 h 1.751174 V 5.1577845 H 53.788303 V 1.6954244 Z m 2.337472,1.7911612 V 3.2825118 q 0,-0.4357251 0.02482,-0.7032273 0.0262,-0.268881 0.129615,-0.4784703 0.104795,-0.2095893 0.337825,-0.3267938 0.23303,-0.1185834 0.63842,-0.1185834 h 0.162707 q 0.399875,0 0.649451,0.03723 0.249577,0.035851 0.420558,0.1502976 0.172359,0.1130679 0.260608,0.3488559 0.08825,0.235788 0.08825,0.6329045 0,0.8135374 -0.0069,1.2368527 -0.0083,0.3240361 -0.07032,0.5363831 -0.06067,0.2123471 -0.194422,0.3460981 -0.132372,0.1323722 -0.354371,0.1930428 -0.220621,0.060671 -0.548793,0.060671 -0.04826,0 -0.142025,-0.00689 -0.09376,-0.00552 -0.157192,-0.00552 -0.315763,0 -0.530867,-0.039987 -0.213726,-0.039988 -0.362645,-0.146161 -0.148919,-0.1075524 -0.23303,-0.3088684 -0.08273,-0.2026949 -0.09928,-0.526731 -0.01241,-0.2316514 -0.01241,-0.6770286 z m 0.401253,-0.017925 v 0.5543085 q 0.0083,0.347477 0.0717,0.5225944 0.06481,0.1737385 0.235788,0.2440612 0.170981,0.068944 0.517079,0.068944 0.336446,0 0.523974,-0.020683 0.187527,-0.022062 0.311626,-0.1047946 0.124099,-0.082733 0.184769,-0.2606078 0.06205,-0.1778751 0.07032,-0.4895013 0.01103,-0.3778123 0.01103,-1.1403313 0,-0.4122842 -0.09376,-0.5901593 -0.09376,-0.179254 -0.286806,-0.2206203 -0.191664,-0.042745 -0.624631,-0.042745 h -0.13513 q -0.322657,0 -0.481228,0.057913 -0.157192,0.057913 -0.224757,0.2344091 -0.06757,0.1764963 -0.07446,0.5556874 z m 2.90281,1.6891243 V 1.6954244 h 1.616043 q 0.226136,0 0.39298,0.033093 0.168223,0.033093 0.289565,0.1420244 0.169601,0.1530553 0.226135,0.3819489 0.05653,0.2275147 0.05653,0.5212155 0,0.2550922 -0.0455,0.4536505 -0.04412,0.1971794 -0.180632,0.3267938 -0.09514,0.096521 -0.208211,0.1475399 -0.113068,0.04964 -0.234409,0.068944 -0.121341,0.017925 -0.324036,0.022062 -0.201316,0.00414 -0.204074,0.00414 H 60.232343 V 5.157788 Z m 0.384706,-1.6891243 h 0.919711 q 0.351614,0 0.526731,-0.039988 0.175118,-0.039987 0.261987,-0.1889061 0.08687,-0.1502976 0.08687,-0.4715759 0,-0.2716388 -0.03861,-0.4233153 Q 61.951803,2.19182 61.827704,2.1159818 61.703605,2.0401438 61.452649,2.0401438 h -1.220306 z m 3.151012,-1.4230011 v 1.1692877 h 1.762205 v 0.3281727 h -1.762205 v 1.2754612 h 1.840801 V 5.1577845 H 63.004165 V 1.6954244 h 2.219992 v 0.3502347 z m 2.462953,3.1121254 V 1.6954244 h 1.63259 q 0.544656,0 0.780444,0.2288936 0.235788,0.2275147 0.235788,0.7763077 0,0.2895642 -0.03033,0.4522716 -0.03034,0.1613287 -0.15995,0.2840487 -0.128235,0.1227201 -0.408147,0.1737385 0.552929,0.038609 0.552929,0.6604821 V 5.1577845 H 68.048375 V 4.3607936 q 0,-0.3336883 -0.153055,-0.4688182 -0.153056,-0.1351299 -0.496396,-0.1351299 h -1.174803 v 1.400939 z m 0.377812,-1.7222174 h 1.123785 q 0.273017,0 0.431588,-0.051018 0.158571,-0.051018 0.23303,-0.190285 0.07584,-0.1406455 0.07584,-0.3971166 0,-0.2923219 -0.03723,-0.4453773 Q 68.013904,2.1987153 67.88429,2.1201193 67.754675,2.0401443 67.4789,2.0401443 h -1.254778 z"
         id="path4" />
    </g>
  </g>
  <g
     inkscape:groupmode="layer"
     id="g7"
     inkscape:label="Designer/Developer"
     style="display:inline">
    <g
       id="g6"
       style="font-size:5.64788px;font-family:EuroStyle;-inkscape-font-specification:'EuroStyle, Normal';letter-spacing:0.423591px;fill:#ffaf19;stroke:#000000;stroke-width:0.429114;stroke-linecap:round;stroke-linejoin:miter;stroke-dasharray:none;stroke-opacity:1;paint-order:stroke fill markers"
       aria-label="WEB DESIGNER/DEVELOPER"
       transform="matrix(1.2331609,0,0,1.2331609,-16.531807,-0.57948208)">
      <path
         style="fill:#ffffff;stroke:#000000;stroke-width:0.429114;stroke-linejoin:miter;stroke-dasharray:none;stroke-opacity:1;paint-order:stroke fill markers"
         d="M 13.848303,5.1577845 V 1.6954244 h 1.598119 q 0.38057,0 0.627389,0.093764 0.248197,0.092385 0.384706,0.2757754 0.137888,0.1833907 0.193043,0.4522717 0.05515,0.2675021 0.05515,0.6577243 v 0.3281727 q 0,0.5225944 -0.07446,0.8700714 -0.07446,0.347477 -0.329552,0.5667184 -0.255092,0.2178626 -0.759761,0.2178626 z m 0.377812,-0.3392038 h 1.13068 q 0.275775,0 0.464681,-0.03723 0.188906,-0.03723 0.303353,-0.1764962 Q 16.322008,4.344247 16.322008,3.638262 V 3.4741757 q 0,-0.5529297 -0.03999,-0.8121586 Q 16.236518,2.2897204 16.031062,2.1683792 15.82561,2.0456591 15.435388,2.0456591 h -1.209276 z m 3.451604,-2.7729216 v 1.1692877 h 1.762205 V 3.5431195 H 17.677719 V 4.8185807 H 19.51852 V 5.1577845 H 17.298528 V 1.6954244 h 2.219992 v 0.3502347 z m 4.958718,0.6039481 H 22.258625 Q 22.243457,2.3821051 22.188302,2.2483541 22.133147,2.114603 21.999396,2.0608268 21.865645,2.0056717 21.598143,2.0056717 h -0.198559 q -0.533625,0 -0.705985,0.1075524 -0.186148,0.1144468 -0.186148,0.4798492 0,0.2054527 0.03861,0.3281727 0.03999,0.1213412 0.151676,0.190285 0.113068,0.067565 0.324036,0.081354 0.03585,0.00276 0.508806,0.019304 0.472955,0.016547 0.689438,0.081354 0.217863,0.064807 0.350235,0.2647444 0.133751,0.1985583 0.133751,0.5887804 0,0.3019741 -0.04964,0.5060479 -0.04964,0.2026949 -0.201316,0.3350671 -0.151676,0.1309933 -0.448135,0.1585708 -0.282669,0.027578 -0.661861,0.027578 -0.314383,0 -0.525352,-0.027578 -0.210968,-0.028956 -0.375054,-0.1213411 -0.162708,-0.092385 -0.252335,-0.2826698 -0.08963,-0.190285 -0.08963,-0.5005323 0,-0.028956 0.0028,-0.081354 0.0028,-0.052397 0.0028,-0.081354 h 0.373676 q 0,0.3281727 0.05378,0.4826069 0.05515,0.1544342 0.209589,0.2151048 0.154434,0.059292 0.481228,0.059292 h 0.322657 q 0.313005,0 0.470197,-0.039987 0.157192,-0.041366 0.227515,-0.1778751 0.07032,-0.1378877 0.07032,-0.4329674 0,-0.2413035 -0.04137,-0.3612658 -0.04007,-0.1213415 -0.154514,-0.17236 Q 22.004911,3.6010324 21.77326,3.5927591 21.446466,3.5789703 21.133461,3.5624238 20.820456,3.5458773 20.599836,3.470039 20.379215,3.3942008 20.248222,3.1915059 20.117229,2.9874321 20.117229,2.6109987 q 0,-0.3957377 0.140645,-0.5984326 0.140646,-0.2026949 0.39298,-0.2675021 0.252335,-0.066186 0.653588,-0.066186 h 0.08963 q 0.321278,0 0.530868,0.02482 0.210968,0.023441 0.372296,0.1103102 0.161329,0.086869 0.249577,0.2757754 0.08963,0.1875273 0.08963,0.5032901 z M 23.726026,1.6954244 V 5.1577845 H 23.337183 V 1.6954244 Z m 1.977585,1.7401427 h 1.479535 q 0.01103,0.1296145 0.01103,0.3778123 v 0.2481979 q 0,0.4826069 -0.137888,0.7666556 -0.136509,0.2826697 -0.573613,0.3295516 -0.386085,0.027577 -0.7115,0.027577 -0.57775,0 -0.878345,-0.1034158 Q 24.592235,4.97853 24.464,4.7041334 24.337143,4.428358 24.337143,3.8919749 q 0,-0.1613286 0.0028,-0.4757126 0.0028,-0.3143839 0.0028,-0.4729548 0,-0.4605449 0.110311,-0.7363203 0.11031,-0.2757754 0.370917,-0.4012532 0.260608,-0.1268566 0.715638,-0.1268566 0.554308,0 0.836978,0.011031 0.426073,0.01241 0.616358,0.2357879 0.190285,0.2219992 0.190285,0.6563455 v 0.1240989 h -0.377812 q 0,-0.3529925 -0.09652,-0.5088056 -0.09514,-0.157192 -0.417799,-0.168223 -0.242683,-0.011031 -0.722532,-0.011031 -0.376433,0 -0.543278,0.068944 -0.165465,0.067565 -0.22062,0.2550923 -0.05378,0.1861484 -0.06067,0.6191157 l -0.01103,0.4564083 0.01103,0.4867436 q 0,0.2661233 0.0262,0.4384829 0.02758,0.1709807 0.136509,0.2992163 0.11031,0.1282355 0.339204,0.1654652 0.186148,0.028956 0.559824,0.028956 h 0.202695 q 0.344719,0 0.508805,-0.055155 0.165466,-0.055155 0.226136,-0.212347 0.06205,-0.157192 0.06205,-0.4895013 V 3.7802864 H 25.703611 Z M 30.769882,1.6954244 V 5.1577845 H 30.136977 L 28.194139,2.0291126 V 5.1577845 H 27.816327 V 1.6954244 h 0.627389 l 1.948353,3.1631438 V 1.6954244 Z m 0.977898,0.3502347 v 1.1692877 h 1.762205 V 3.5431195 H 31.74778 v 1.2754612 h 1.840801 V 5.1577845 H 31.368589 V 1.6954244 h 2.219992 v 0.3502347 z m 2.46295,3.1121254 V 1.6954244 h 1.632591 q 0.544656,0 0.780444,0.2288936 0.235788,0.2275147 0.235788,0.7763077 0,0.2895642 -0.03034,0.4522716 -0.03034,0.1613287 -0.15995,0.2840487 -0.128235,0.1227201 -0.408147,0.1737385 0.552929,0.038609 0.552929,0.6604821 V 5.1577845 H 36.412797 V 4.3607936 q 0,-0.3336883 -0.153055,-0.4688182 -0.153056,-0.1351299 -0.496396,-0.1351299 h -1.174803 v 1.400939 z m 0.377813,-1.7222174 h 1.123785 q 0.273017,0 0.431588,-0.051018 0.158571,-0.051018 0.23303,-0.190285 0.07584,-0.1406455 0.07584,-0.3971166 0,-0.2923219 -0.03723,-0.4453773 -0.03723,-0.1530553 -0.166844,-0.2316513 -0.129615,-0.079975 -0.40539,-0.079975 H 34.588543 Z M 40.41733,1.6954244 37.745067,5.6665901 h -0.281291 l 2.659853,-3.9711657 z m 0.638699,3.4623601 V 1.6954244 h 1.598118 q 0.38057,0 0.627389,0.093764 0.248198,0.092385 0.384707,0.2757754 0.137888,0.1833907 0.193043,0.4522717 0.05515,0.2675021 0.05515,0.6577243 v 0.3281727 q 0,0.5225944 -0.07446,0.8700714 -0.07446,0.347477 -0.329551,0.5667184 -0.255093,0.2178626 -0.759761,0.2178626 z m 0.377812,-0.3392038 h 1.130679 q 0.275776,0 0.464682,-0.03723 0.188906,-0.03723 0.303353,-0.1764962 Q 43.529734,4.344247 43.529734,3.638262 V 3.4741757 q 0,-0.5529297 -0.03999,-0.8121586 -0.0455,-0.3722967 -0.250956,-0.4936379 -0.205453,-0.1227201 -0.595675,-0.1227201 h -1.209275 z m 3.451602,-2.7729216 v 1.1692877 h 1.762205 v 0.3281727 h -1.762205 v 1.2754612 h 1.840801 V 5.1577845 H 44.506252 V 1.6954244 h 2.219992 v 0.3502347 z m 5.04421,-0.3502347 h 0.4178 L 49.127147,5.1577845 H 48.568701 L 47.337364,1.6954244 h 0.4178 l 1.094828,3.1521127 z m 1.406729,0.3502347 v 1.1692877 h 1.762205 v 0.3281727 h -1.762205 v 1.2754612 h 1.840801 V 5.1577845 H 50.957191 V 1.6954244 h 2.219992 v 0.3502347 z m 2.869721,-0.3502347 v 3.1010943 h 1.751174 V 5.1577845 H 53.788303 V 1.6954244 Z m 2.337472,1.7911612 V 3.2825118 q 0,-0.4357251 0.02482,-0.7032273 0.0262,-0.268881 0.129615,-0.4784703 0.104795,-0.2095893 0.337825,-0.3267938 0.23303,-0.1185834 0.63842,-0.1185834 h 0.162707 q 0.399875,0 0.649451,0.03723 0.249577,0.035851 0.420558,0.1502976 0.172359,0.1130679 0.260608,0.3488559 0.08825,0.235788 0.08825,0.6329045 0,0.8135374 -0.0069,1.2368527 -0.0083,0.3240361 -0.07032,0.5363831 -0.06067,0.2123471 -0.194422,0.3460981 -0.132372,0.1323722 -0.354371,0.1930428 -0.220621,0.060671 -0.548793,0.060671 -0.04826,0 -0.142025,-0.00689 -0.09376,-0.00552 -0.157192,-0.00552 -0.315763,0 -0.530867,-0.039987 -0.213726,-0.039988 -0.362645,-0.146161 -0.148919,-0.1075524 -0.23303,-0.3088684 -0.08273,-0.2026949 -0.09928,-0.526731 -0.01241,-0.2316514 -0.01241,-0.6770286 z m 0.401253,-0.017925 v 0.5543085 q 0.0083,0.347477 0.0717,0.5225944 0.06481,0.1737385 0.235788,0.2440612 0.170981,0.068944 0.517079,0.068944 0.336446,0 0.523974,-0.020683 0.187527,-0.022062 0.311626,-0.1047946 0.124099,-0.082733 0.184769,-0.2606078 0.06205,-0.1778751 0.07032,-0.4895013 0.01103,-0.3778123 0.01103,-1.1403313 0,-0.4122842 -0.09376,-0.5901593 -0.09376,-0.179254 -0.286806,-0.2206203 -0.191664,-0.042745 -0.624631,-0.042745 h -0.13513 q -0.322657,0 -0.481228,0.057913 -0.157192,0.057913 -0.224757,0.2344091 -0.06757,0.1764963 -0.07446,0.5556874 z m 2.90281,1.6891243 V 1.6954244 h 1.616043 q 0.226136,0 0.39298,0.033093 0.168223,0.033093 0.289565,0.1420244 0.169601,0.1530553 0.226135,0.3819489 0.05653,0.2275147 0.05653,0.5212155 0,0.2550922 -0.0455,0.4536505 -0.04412,0.1971794 -0.180632,0.3267938 -0.09514,0.096521 -0.208211,0.1475399 -0.113068,0.04964 -0.234409,0.068944 -0.121341,0.017925 -0.324036,0.022062 -0.201316,0.00414 -0.204074,0.00414 H 60.232343 V 5.157788 Z m 0.384706,-1.6891243 h 0.919711 q 0.351614,0 0.526731,-0.039988 0.175118,-0.039987 0.261987,-0.1889061 0.08687,-0.1502976 0.08687,-0.4715759 0,-0.2716388 -0.03861,-0.4233153 Q 61.951803,2.19182 61.827704,2.1159818 61.703605,2.0401438 61.452649,2.0401438 h -1.220306 z m 3.151012,-1.4230011 v 1.1692877 h 1.762205 v 0.3281727 h -1.762205 v 1.2754612 h 1.840801 V 5.1577845 H 63.004165 V 1.6954244 h 2.219992 v 0.3502347 z m 2.462953,3.1121254 V 1.6954244 h 1.63259 q 0.544656,0 0.780444,0.2288936 0.235788,0.2275147 0.235788,0.7763077 0,0.2895642 -0.03033,0.4522716 -0.03034,0.1613287 -0.15995,0.2840487 -0.128235,0.1227201 -0.408147,0.1737385 0.552929,0.038609 0.552929,0.6604821 V 5.1577845 H 68.048375 V 4.3607936 q 0,-0.3336883 -0.153055,-0.4688182 -0.153056,-0.1351299 -0.496396,-0.1351299 h -1.174803 v 1.400939 z m 0.377812,-1.7222174 h 1.123785 q 0.273017,0 0.431588,-0.051018 0.158571,-0.051018 0.23303,-0.190285 0.07584,-0.1406455 0.07584,-0.3971166 0,-0.2923219 -0.03723,-0.4453773 Q 68.013904,2.1987153 67.88429,2.1201193 67.754675,2.0401443 67.4789,2.0401443 h -1.254778 z"
         id="path6" />
    </g>
  </g>
</svg>
